<svg width="46" height="46" viewBox="0 0 46 46" fill="none" xmlns="http://www.w3.org/2000/svg"><path d="M23 33.7812c5.9543 0 10.7812-4.8269 10.7812-10.7812S28.9543 12.2188 23 12.2188 12.2188 17.0457 12.2188 23 17.0457 33.7812 23 33.7812zM23 6.46875V2.875M11.3106 11.3107L8.76948 8.76949M6.46875 23H2.875M11.3106 34.6894l-2.54112 2.5411M23 39.5312v3.5938M34.6894 34.6894l2.5411 2.5411M39.5312 23h3.5938M34.6894 11.3107l2.5411-2.54121" stroke="#023A15" stroke-width="2" stroke-linecap="round" stroke-linejoin="round"/><path d="M21 21c0-1.1046-.6716-2-1.5-2s-1.5.8954-1.5 2M28 21c0-1.1046-.6716-2-1.5-2s-1.5.8954-1.5 2" stroke="#023A15" stroke-width="1.5" stroke-linecap="round"/><path d="M23 30c3.3137 0 6-2.6863 6-6H17c0 3.3137 2.6863 6 6 6z" fill="#023A15"/></svg>