<svg width="291" height="230" viewBox="0 0 291 230" fill="none" xmlns="http://www.w3.org/2000/svg">
<path opacity="0.5" fill-rule="evenodd" clip-rule="evenodd" d="M123.125 11.736C150.682 15.0898 168.936 38.8246 184.251 61.9328C197.457 81.8606 203.131 104.433 200.28 128.155C196.887 156.389 192.593 189.047 167.38 202.293C141.626 215.825 110.801 202.892 85.5589 188.431C62.9116 175.456 48.1209 154.308 40.2504 129.458C31.2384 101.005 22.7408 68.7858 39.9302 44.3685C57.9518 18.7691 92.0067 7.94884 123.125 11.736Z" fill="white"/>
<path d="M107.711 164.88C107.69 164.88 107.669 164.876 107.649 164.867C107.629 164.859 107.611 164.846 107.596 164.831C107.581 164.815 107.569 164.796 107.561 164.776C107.553 164.755 107.549 164.733 107.549 164.711V148.679C107.549 148.635 107.567 148.592 107.597 148.561C107.628 148.53 107.669 148.512 107.711 148.512C107.754 148.512 107.795 148.53 107.826 148.561C107.856 148.592 107.874 148.635 107.874 148.679V164.711C107.874 164.733 107.87 164.755 107.862 164.776C107.854 164.796 107.842 164.815 107.827 164.831C107.811 164.846 107.793 164.859 107.774 164.867C107.754 164.876 107.733 164.88 107.711 164.88V164.88Z" fill="#111111"/>
<path d="M123.941 135.966C123.591 136.585 123.178 137.164 122.71 137.694C122.261 138.239 121.769 138.74 121.285 139.25C120.287 140.238 119.262 141.199 118.184 142.092C116.035 143.891 113.757 145.517 111.37 146.957C108.986 148.417 106.466 149.622 103.848 150.554C102.535 151.019 101.19 151.384 99.8258 151.644C99.1346 151.73 98.4459 151.871 97.752 151.911C97.0574 151.932 96.3619 151.965 95.6673 151.974C92.8974 151.877 90.1454 151.472 87.4586 150.765C84.7765 150.09 82.1363 149.246 79.5526 148.238C76.9665 147.249 74.4272 146.138 71.9006 145.015C71.2687 144.738 70.6352 144.455 69.9987 144.214C69.6872 144.1 69.3515 143.981 69.0181 143.838C68.8637 143.744 68.7019 143.662 68.5548 143.558C68.41 143.449 68.2717 143.331 68.1405 143.206C67.6388 142.683 67.2621 142.046 67.0408 141.344C66.8157 140.653 66.6912 139.931 66.6715 139.202L66.6733 139.223C65.0177 129.783 62.8921 120.44 60.3051 111.23C59.046 106.616 57.6396 102.048 56.1947 97.4961C54.747 92.9445 53.2038 88.4278 51.5651 83.9461C50.7382 81.7092 49.9098 79.4729 49.0413 77.2539C48.621 76.1409 48.1282 75.0592 47.7645 73.8812C47.4041 72.7136 47.1685 71.5083 47.0622 70.2869C47.0027 69.6681 46.9858 69.0457 47.0118 68.4244C47.0778 67.7517 47.3447 67.1176 47.7752 66.611C48.2057 66.1044 48.7779 65.7508 49.4116 65.6001C49.9869 65.4501 50.5731 65.3496 51.1643 65.2996C52.3589 65.2164 53.5573 65.3872 54.6864 65.8015L57.9741 66.9237L71.1252 71.4124C71.6881 71.5803 72.2373 71.7942 72.7677 72.0522C73.2983 72.3303 73.7848 72.6914 74.21 73.123C75.0697 73.9851 75.6307 75.1189 75.8056 76.3475L76.7814 83.4754C76.7825 83.4842 76.7803 83.4931 76.7752 83.5001C76.7701 83.5072 76.7625 83.512 76.7541 83.5133C76.7457 83.5147 76.7371 83.5125 76.7302 83.5074C76.7233 83.5022 76.7186 83.4945 76.7171 83.4857L75.5683 76.3881C75.3708 75.2278 74.8183 74.1648 73.9933 73.3573C73.5863 72.9552 73.1223 72.6205 72.6176 72.365C72.0994 72.1226 71.5637 71.9232 71.0154 71.7685L57.807 67.4657L54.5049 66.3901C53.4469 66.0161 52.3265 65.8713 51.2126 65.9646C50.6545 66.0215 50.1011 66.1211 49.5571 66.2627C49.0581 66.3828 48.6077 66.6624 48.2693 67.0623C47.9308 67.4622 47.7213 67.9623 47.67 68.4924C47.6507 69.07 47.669 69.6483 47.7249 70.2234C47.8293 71.3938 48.0576 72.5486 48.4056 73.6669C48.7486 74.775 49.2463 75.868 49.6722 76.9862C50.5466 79.2103 51.3889 81.4472 52.1991 83.6969C55.4393 92.6948 58.2779 101.832 60.7147 111.11C61.932 115.742 63.0676 120.397 64.0745 125.082C65.1374 129.755 66.0101 134.469 66.8972 139.18L66.8986 139.192L66.899 139.201C66.8946 140.612 67.4004 141.972 68.316 143.012C68.438 143.128 68.5666 143.235 68.7009 143.335C68.8368 143.431 68.9885 143.502 69.1309 143.587C69.434 143.71 69.7516 143.818 70.0904 143.934C70.7486 144.171 71.3837 144.441 72.0224 144.708C74.5697 145.786 77.1177 146.848 79.7077 147.789C82.2918 148.735 84.9214 149.54 87.5859 150.203C90.239 150.874 92.9498 151.269 95.6782 151.381C96.3571 151.376 97.0357 151.348 97.7148 151.333C98.3921 151.299 99.059 151.165 99.7321 151.087C101.073 150.84 102.394 150.492 103.686 150.044C106.275 149.131 108.777 147.968 111.158 146.57C113.549 145.175 115.837 143.6 118.006 141.857C119.101 140.999 120.145 140.072 121.163 139.117C121.657 138.623 122.161 138.138 122.62 137.61C123.097 137.099 123.52 136.538 123.883 135.935L123.885 135.931C123.89 135.923 123.897 135.918 123.905 135.916C123.914 135.913 123.923 135.915 123.93 135.919C123.937 135.924 123.943 135.931 123.945 135.94C123.947 135.949 123.946 135.958 123.941 135.966L123.941 135.966Z" fill="#111111"/>
<path d="M49.6819 68.6956L54.6702 70.5166L59.6462 72.3719L64.6161 74.2443L69.5772 76.141C69.6193 76.1571 69.657 76.1837 69.6868 76.2185C69.7166 76.2534 69.7377 76.2953 69.7482 76.3407L69.7492 76.3456C70.7413 80.7601 71.6947 85.1837 72.6094 89.6165C73.5324 94.0472 74.4174 98.487 75.3765 102.909C77.2651 111.761 79.328 120.571 81.3212 129.398C81.7969 131.577 82.6655 133.641 83.881 135.483C85.0943 137.316 86.6816 138.847 88.5295 139.968C90.383 141.065 92.473 141.656 94.6052 141.688C95.6817 141.681 96.7571 141.615 97.827 141.492C98.9044 141.371 99.9813 141.246 101.048 141.061C103.185 140.722 105.286 140.177 107.326 139.433C109.36 138.657 111.336 137.725 113.238 136.644C115.155 135.584 117.027 134.426 118.882 133.24C120.746 132.068 122.593 130.864 124.442 129.663C124.449 129.658 124.458 129.656 124.466 129.658C124.474 129.66 124.482 129.665 124.486 129.673C124.491 129.68 124.493 129.689 124.491 129.698C124.489 129.707 124.484 129.715 124.477 129.72C120.863 132.254 117.267 134.823 113.457 137.062C111.555 138.198 109.57 139.176 107.52 139.988C105.457 140.783 103.325 141.367 101.153 141.733C100.07 141.924 98.9816 142.055 97.8927 142.18C96.797 142.31 95.6955 142.38 94.5927 142.391C92.3443 142.372 90.1387 141.748 88.1906 140.58C86.2888 139.37 84.6489 137.762 83.3743 135.859C82.0998 133.956 81.2181 131.799 80.7851 129.524C78.921 120.667 77.1266 111.793 75.1579 102.961C74.1884 98.541 73.1449 94.1387 72.1392 89.7274C71.1297 85.317 70.1544 80.8986 69.2134 76.4721L69.3854 76.6765L64.4411 74.7325L59.5056 72.7642L54.5762 70.7788L49.6591 68.7591C49.6511 68.7558 49.6447 68.7495 49.6412 68.7413C49.6378 68.7332 49.6375 68.724 49.6405 68.7157C49.6435 68.7074 49.6495 68.7006 49.6572 68.6968C49.665 68.6931 49.6738 68.6926 49.6819 68.6956L49.6819 68.6956Z" fill="#111111"/>
<path d="M107.299 42.5547C105.932 41.6918 105.588 39.0916 106.641 37.3512C107.97 35.1565 109.455 39.1395 109.455 39.1395C111.877 42.8786 116.801 32.8805 116.801 32.8805C116.801 32.8805 112.893 27.7596 103.984 31.1736C95.0753 34.5875 101.171 46.2113 101.171 46.2113C101.171 46.2113 91.8711 50.7633 94.9971 62.8747C94.9971 62.8747 103.307 60.8633 102.812 46.4374C102.812 46.4374 106.29 45.0123 107.299 42.5547" fill="#111111"/>
<path d="M108.273 42.8126C107.776 42.9402 107.251 42.862 106.808 42.5943C106.79 42.5827 106.774 42.5673 106.761 42.5493C106.749 42.5312 106.739 42.5106 106.734 42.4888C106.729 42.4671 106.728 42.4444 106.731 42.4223C106.735 42.4001 106.742 42.3789 106.753 42.3597C106.765 42.3405 106.779 42.3239 106.797 42.3106C106.814 42.2974 106.834 42.2878 106.855 42.2825C106.876 42.2772 106.898 42.2762 106.919 42.2797C106.94 42.2831 106.961 42.2909 106.979 42.3025C106.991 42.3103 107.002 42.3194 107.012 42.3297C107.357 42.6529 107.808 42.8258 108.273 42.8126V42.8126Z" fill="#111111"/>
<path d="M116.547 33.4036C117.078 34.2869 117.493 35.2399 117.782 36.2373C118.091 37.248 118.208 38.3117 118.125 39.3688L118.063 39.1768C118.36 39.5016 118.65 39.8338 118.936 40.1696L119.794 41.1956C119.869 41.2993 119.923 41.4178 119.952 41.5438C119.982 41.6699 119.986 41.801 119.966 41.929C119.945 42.057 119.899 42.1792 119.831 42.2882C119.764 42.3972 119.675 42.4906 119.572 42.5629C119.395 42.7032 119.207 42.8262 119.009 42.9302C118.907 42.9967 118.792 43.0385 118.672 43.0526C118.552 43.0668 118.431 43.0529 118.317 43.012L118.431 42.9409C118.418 44.4036 118.27 45.8616 117.99 47.295C117.843 48.043 117.538 48.7476 117.096 49.3577C116.838 49.6914 116.474 49.918 116.069 49.9969C115.865 50.0214 115.659 50.0127 115.458 49.9713L114.956 49.8815C114.303 49.7597 113.635 49.7599 112.982 49.8822C112.34 50.0207 111.746 50.3372 111.263 50.7981C110.321 51.8372 109.594 53.0663 109.128 54.4093C109.125 54.416 109.12 54.4213 109.114 54.4242C109.108 54.4271 109.1 54.4273 109.094 54.4247C109.088 54.4222 109.083 54.4175 109.081 54.4116C109.078 54.4056 109.077 54.3988 109.078 54.3924C109.247 53.6818 109.479 52.9893 109.772 52.3238C110.059 51.6368 110.459 51.0077 110.956 50.4652C111.474 49.9059 112.137 49.5144 112.865 49.3379C113.583 49.1799 114.324 49.1725 115.044 49.316L115.57 49.4271C115.71 49.4606 115.854 49.4724 115.998 49.462C116.285 49.4105 116.545 49.2544 116.731 49.0216C117.142 48.4782 117.441 47.8535 117.612 47.1857C118.012 45.8066 118.235 44.3784 118.275 42.9384C118.275 42.9166 118.285 42.896 118.3 42.8811C118.315 42.8663 118.336 42.8584 118.357 42.8592C118.368 42.8598 118.378 42.8625 118.388 42.8673C118.48 42.8933 118.577 42.8984 118.671 42.8823C118.765 42.8662 118.855 42.8294 118.934 42.7742C119.118 42.6695 119.291 42.5446 119.449 42.4016C119.523 42.3452 119.585 42.2735 119.631 42.191C119.676 42.1085 119.705 42.0171 119.716 41.9223C119.726 41.8276 119.717 41.7318 119.69 41.6408C119.662 41.5498 119.617 41.4657 119.557 41.3938L118.637 40.4655C118.329 40.1514 118.024 39.8338 117.727 39.5088C117.705 39.4846 117.688 39.4558 117.677 39.4243C117.666 39.3928 117.662 39.3593 117.664 39.3259L117.665 39.3166C117.706 38.8209 117.705 38.3224 117.661 37.827C117.611 37.3255 117.532 36.8277 117.423 36.3363C117.195 35.3421 116.887 34.3697 116.502 33.4296C116.501 33.4264 116.5 33.4229 116.499 33.4193C116.499 33.4158 116.5 33.4122 116.501 33.4089C116.502 33.4055 116.504 33.4025 116.506 33.3998C116.508 33.3972 116.511 33.395 116.514 33.3935C116.52 33.391 116.527 33.3906 116.533 33.3924C116.539 33.3942 116.544 33.3982 116.547 33.4036V33.4036Z" fill="#111111"/>
<path d="M115.14 37.392C115.434 37.0836 115.828 36.8996 116.244 36.8756C116.656 36.8342 117.07 36.9296 117.426 37.1481C117.015 37.1809 116.645 37.178 116.273 37.2129C115.892 37.2477 115.514 37.3075 115.14 37.392Z" fill="#111111"/>
<path d="M116.136 39.485C116.263 39.4804 116.383 39.4249 116.471 39.3301C116.559 39.2354 116.608 39.1087 116.608 38.977C116.608 38.8452 116.559 38.7186 116.471 38.6238C116.383 38.529 116.263 38.4735 116.136 38.4689C116.01 38.4735 115.89 38.529 115.802 38.6238C115.714 38.7186 115.665 38.8452 115.665 38.977C115.665 39.1087 115.714 39.2354 115.802 39.3301C115.89 39.4249 116.01 39.4804 116.136 39.485V39.485Z" fill="#111111"/>
<path d="M109.806 45.3172C110.262 45.893 110.676 46.4753 111.119 47.0339C111.555 47.6021 112.037 48.1292 112.561 48.6092C111.892 48.3179 111.308 47.8487 110.868 47.2486C110.409 46.6734 110.05 46.0199 109.806 45.3172V45.3172Z" fill="#111111"/>
<path d="M76.3716 81.2766C76.6951 79.714 77.088 78.1968 77.5122 76.6732C77.9416 75.1552 78.3901 73.6406 78.9093 72.1508C79.9185 69.1533 81.1249 66.2316 82.5198 63.4064C83.2309 61.9933 84.0169 60.6223 84.8741 59.2999C85.725 57.9601 86.6884 56.7013 87.7529 55.5383C88.818 54.3462 90.0473 53.3249 91.4005 52.5079C92.781 51.679 94.3271 51.1933 95.918 51.0887L95.9223 51.0885C95.9493 51.0872 95.9764 51.0885 96.0032 51.0924C97.5423 51.3257 99.067 51.6013 100.59 51.9136C102.112 52.2224 103.63 52.5565 105.139 52.9443C106.668 53.2979 108.162 53.8003 109.6 54.4447C110.313 54.8125 110.96 55.2015 111.662 55.5497L113.755 56.5913C114.461 56.9389 115.145 57.3341 115.802 57.7745C116.477 58.215 117.061 58.7909 117.519 59.4687C118.42 60.7495 119.478 61.9398 120.49 63.148C122.538 65.5544 124.625 67.9249 126.752 70.2593C126.788 70.2987 126.811 70.3491 126.817 70.4029C126.824 70.4568 126.813 70.5113 126.787 70.5585L126.785 70.5622C125.997 72.0074 125.145 73.3997 124.251 74.7706C123.356 76.1387 122.405 77.4708 121.385 78.7503C120.362 80.0389 119.24 81.2388 118.03 82.3382C116.806 83.4922 115.367 84.3737 113.803 84.9283L114.012 84.7995C112.882 85.9948 111.725 87.1425 110.506 88.2431C109.895 88.7911 109.27 89.3255 108.602 89.8234C108.263 90.08 107.909 90.3149 107.543 90.527C107.12 90.8017 106.636 90.9562 106.138 90.975L106.685 90.3131C106.944 91.4954 107.214 92.6802 107.496 93.8564L107.932 95.6129C108.005 95.904 108.083 96.1933 108.164 96.476C108.235 96.7382 108.32 96.9959 108.419 97.248L108.431 97.2753C108.46 97.343 108.476 97.416 108.478 97.4901C108.48 97.5642 108.468 97.638 108.443 97.7072C108.417 97.7764 108.379 97.8398 108.33 97.8936C108.281 97.9474 108.222 97.9907 108.157 98.0209C108.103 98.0457 108.045 98.0614 107.986 98.0674C104.356 98.4219 100.731 98.664 97.0913 98.7961C93.445 98.9507 89.793 98.8636 86.1574 98.5351C85.2462 98.4363 84.3351 98.3169 83.4279 98.1353C82.5059 97.9713 81.6036 97.7045 80.7365 97.3396C80.2817 97.1463 79.857 96.884 79.4763 96.5611C79.2748 96.3815 79.1028 96.169 78.967 95.9318C78.8369 95.693 78.7653 95.4843 78.6619 95.2592C78.2959 94.3774 77.9965 93.4671 77.7667 92.5369C77.3144 90.6968 76.9865 88.8261 76.7854 86.9385C76.5735 85.055 76.4334 83.1808 76.3716 81.2766ZM76.4749 81.2867C76.7442 85.0358 77.3598 88.7492 78.3131 92.3756C78.5624 93.2657 78.878 94.1342 79.2572 94.9732C79.3548 95.1703 79.4491 95.4038 79.5489 95.5708C79.6518 95.7356 79.7795 95.8821 79.927 96.0048C80.2605 96.2657 80.6287 96.4746 81.0201 96.6249C82.7081 97.2012 84.4621 97.5425 86.2363 97.64C89.838 97.8752 93.4496 97.898 97.0539 97.7084C100.665 97.5617 104.283 97.3036 107.875 96.9369L107.442 97.7562C107.312 97.4475 107.203 97.13 107.115 96.8058C107.027 96.5051 106.946 96.2079 106.87 95.9103C106.712 95.3159 106.576 94.72 106.438 94.1249C106.166 92.9337 105.909 91.744 105.66 90.5477C105.645 90.4774 105.644 90.4049 105.657 90.3341C105.669 90.2634 105.694 90.1959 105.732 90.1355C105.769 90.0751 105.818 90.0229 105.875 89.982C105.931 89.9411 105.995 89.9122 106.063 89.897C106.11 89.8867 106.159 89.8828 106.207 89.8857C106.507 89.847 106.795 89.7421 107.052 89.5778C107.384 89.39 107.704 89.1816 108.012 88.9537C108.644 88.4939 109.258 87.9824 109.859 87.4549C111.058 86.3966 112.221 85.2672 113.338 84.1123L113.341 84.1085C113.399 84.0497 113.469 84.0067 113.546 83.9834C114.993 83.4852 116.329 82.6928 117.478 81.6522C118.672 80.6059 119.784 79.4625 120.804 78.2328C121.84 77.0083 122.816 75.7225 123.74 74.3963C124.663 73.0712 125.545 71.7045 126.354 70.3063L126.386 70.609C124.333 68.2017 122.271 65.8043 120.234 63.3823C119.222 62.1606 118.204 60.9602 117.251 59.6665C116.384 58.3741 114.957 57.6467 113.587 56.9542C112.199 56.2787 110.76 55.6153 109.388 54.9083C107.966 54.3291 106.495 53.8888 104.994 53.5933C101.987 52.9171 98.9251 52.4621 95.8815 51.9949L95.9665 51.9986C94.5138 52.1103 93.1056 52.5701 91.8521 53.342C90.5828 54.1249 89.4203 55.0815 88.3958 56.1862C87.3522 57.2995 86.4056 58.5069 85.5671 59.7941C84.7115 61.0807 83.9252 62.4157 83.2118 63.793C81.7665 66.5545 80.4957 69.4108 79.4072 72.3441C78.3005 75.2717 77.313 78.2695 76.4748 81.2867L76.4749 81.2867Z" fill="#111111"/>
<path d="M113.675 84.4559C113.305 83.5791 112.957 82.6952 112.605 81.8136C112.252 80.9326 111.919 80.0435 111.553 79.1696C111.213 78.2844 110.848 77.4103 110.469 76.545C110.285 76.109 110.085 75.682 109.869 75.2638C109.768 75.0511 109.655 74.8452 109.529 74.6472C109.47 74.5462 109.405 74.4486 109.336 74.3547L109.103 74.092C109.776 74.7555 110.316 75.5501 110.694 76.4306C111.123 77.2807 111.488 78.161 111.853 79.0396C112.196 79.9282 112.534 80.818 112.838 81.721C113.142 82.6238 113.431 83.5321 113.675 84.4559Z" fill="#111111"/>
<path d="M108.517 101.33C108.486 101.33 108.456 101.321 108.43 101.303C108.404 101.286 108.383 101.262 108.37 101.232L106.758 97.6752C106.749 97.6551 106.744 97.6332 106.743 97.6109C106.742 97.5886 106.745 97.5663 106.752 97.5453C106.759 97.5243 106.77 97.505 106.785 97.4884C106.799 97.4719 106.817 97.4585 106.836 97.449C106.856 97.4395 106.877 97.4341 106.898 97.433C106.919 97.432 106.941 97.4354 106.961 97.443C106.981 97.4506 107 97.4623 107.016 97.4774C107.031 97.4924 107.044 97.5106 107.053 97.5308L108.664 101.088C108.676 101.114 108.681 101.142 108.679 101.171C108.678 101.199 108.669 101.227 108.654 101.251C108.64 101.275 108.619 101.295 108.595 101.309C108.571 101.323 108.544 101.33 108.517 101.33V101.33Z" fill="#111111"/>
<path d="M79.2729 95.9171L81.2397 103.446C80.2107 99.6698 79.4813 96.7537 79.2729 95.9171Z" fill="#111111"/>
<path d="M148.724 143.227C147.625 145.24 148.133 149.377 147.905 150.786C147.595 152.776 146.867 154.672 145.773 156.337C145.477 153.968 145.13 151.606 144.772 149.242C144.414 146.885 144.01 144.533 143.636 142.175C143.216 139.828 142.822 137.471 142.381 135.13L141.712 131.612C141.468 130.441 141.245 129.271 140.986 128.105C141.131 129.292 141.302 130.474 141.463 131.661L141.987 135.2C142.345 137.563 142.744 139.915 143.123 142.267C143.543 144.619 143.937 146.971 144.378 149.318C144.819 151.659 145.265 154.006 145.773 156.337C143.315 160.086 139.176 162.455 134.559 164.262C131.101 165.608 127.538 166.648 123.911 167.369C121.255 143.103 125.4 126.034 125.4 126.034C125.4 126.034 124.928 125.424 123.289 125.424C121.644 125.424 117.075 128.229 117.075 128.229C99.725 139.203 94.3308 133.106 90.2282 128.472C87.5361 125.43 83.6202 112.212 81.2551 103.516C97.1992 109.612 106.053 101.158 107.713 101.158C108.237 101.158 110.804 100.877 114.383 100.521C114.804 100.969 115.133 101.503 115.347 102.088C115.561 102.674 115.657 103.3 115.628 103.926C117.111 106.116 118.911 102.458 118.128 101.158C117.952 100.86 117.816 100.539 117.723 100.203C118.434 100.138 119.17 100.068 119.922 100.003C121.172 101.784 122.62 104.417 123.911 105.711C126.178 107.988 126.572 104.33 126.572 104.33C129.383 106.445 129.383 102.706 129.383 102.706C131.883 104.249 131.022 100.521 131.022 100.521C131.194 100.366 131.32 100.164 131.388 99.9386C131.456 99.7129 131.462 99.472 131.406 99.2428C134.599 99.0777 137.799 99.1246 140.986 99.3831C150.716 100.408 159.98 129.934 159.98 129.934C160.332 135.178 152.708 135.912 148.724 143.227Z" fill="#111111"/>
<path d="M93.0651 151.5C93.4279 153.854 93.6515 156.219 93.8874 158.582C94.1068 160.948 94.2111 163.322 94.3527 165.693L94.7855 172.807L95.1859 179.923C95.1864 179.931 95.1836 179.94 95.178 179.947C95.1724 179.954 95.1645 179.958 95.1559 179.958C95.1474 179.959 95.139 179.956 95.1325 179.951C95.1259 179.945 95.1218 179.937 95.121 179.928L94.461 172.833L93.8333 165.735C93.6216 163.369 93.3725 161.007 93.2382 158.635C93.1207 156.261 92.9908 153.889 93.0002 151.506C93.0002 151.497 93.0033 151.489 93.0089 151.483C93.0144 151.476 93.0221 151.472 93.0303 151.472C93.0385 151.471 93.0467 151.474 93.0531 151.479C93.0596 151.484 93.0639 151.492 93.0651 151.5H93.0651Z" fill="#111111"/>
<path d="M100.188 151.312C100.416 153.693 100.506 156.077 100.608 158.46C100.693 160.843 100.662 163.229 100.669 165.614L100.699 172.769L100.695 179.925C100.695 179.934 100.692 179.942 100.686 179.949C100.68 179.955 100.672 179.959 100.663 179.959C100.655 179.959 100.647 179.956 100.64 179.949C100.634 179.943 100.631 179.935 100.63 179.926L100.373 172.775L100.149 165.624C100.071 163.24 99.956 160.857 99.9564 158.472C99.9734 156.087 99.9781 153.702 100.122 151.314C100.123 151.305 100.127 151.297 100.133 151.291C100.138 151.285 100.146 151.282 100.154 151.282C100.163 151.282 100.171 151.285 100.177 151.29C100.183 151.296 100.187 151.304 100.188 151.312V151.312Z" fill="#111111"/>
<path d="M97.8266 185.633C106.696 185.633 113.886 182.603 113.886 178.866C113.886 175.128 106.696 172.099 97.8266 172.099C88.9571 172.099 81.7669 175.128 81.7669 178.866C81.7669 182.603 88.9571 185.633 97.8266 185.633Z" fill="#111111"/>
<path d="M106.172 90.4304C105.832 90.6819 105.437 90.8417 105.023 90.8955C104.81 90.9264 104.594 90.9181 104.384 90.8708C104.271 90.8545 104.166 90.804 104.081 90.7257C103.996 90.6473 103.935 90.5446 103.906 90.4304C103.975 90.4953 104.056 90.5446 104.145 90.5753C104.233 90.606 104.326 90.6175 104.419 90.609C104.607 90.6042 104.795 90.5877 104.982 90.5597C105.376 90.4949 105.774 90.4518 106.172 90.4304V90.4304Z" fill="#111111"/>
<path d="M113.323 84.8145C115.037 85.9703 116.746 87.135 118.475 88.2547C118.909 88.5314 119.344 88.8075 119.785 89.062C120.004 89.1955 120.228 89.3084 120.447 89.4285C120.551 89.4736 120.674 89.5402 120.762 89.5688C120.801 89.5783 120.84 89.5902 120.878 89.6047C120.964 89.6216 121.052 89.6427 121.138 89.6677C121.625 89.8811 122.097 90.1316 122.548 90.4173C122.993 90.6878 123.432 90.9674 123.864 91.256C125.607 92.3934 127.256 93.6782 128.796 95.0974C129.586 95.8076 130.284 96.6227 130.87 97.5218L131.068 97.8884L131.227 98.2479C131.345 98.4947 131.447 98.7499 131.531 99.0116C131.614 99.2953 131.626 99.5965 131.565 99.8862C131.496 100.178 131.34 100.439 131.12 100.633L131.162 100.489C131.228 100.833 131.269 101.183 131.286 101.534C131.311 101.893 131.27 102.254 131.164 102.598C131.136 102.689 131.093 102.775 131.036 102.851L130.951 102.969L130.832 103.059C130.754 103.119 130.662 103.157 130.566 103.17C130.476 103.193 130.382 103.196 130.29 103.178C130.116 103.157 129.944 103.111 129.782 103.04L129.331 102.796L129.485 102.705C129.473 103.102 129.414 103.496 129.309 103.878C129.214 104.28 128.991 104.637 128.675 104.89C128.501 104.998 128.306 105.064 128.104 105.082C127.902 105.1 127.699 105.07 127.51 104.993C127.33 104.923 127.153 104.842 126.981 104.751L126.498 104.433L126.691 104.344C126.641 104.983 126.436 105.599 126.096 106.133C125.997 106.277 125.868 106.396 125.718 106.482C125.569 106.567 125.403 106.616 125.233 106.625L124.976 106.604C124.895 106.584 124.82 106.551 124.742 106.524C124.592 106.467 124.449 106.391 124.318 106.296C123.824 105.928 123.381 105.491 123.002 104.997C122.62 104.521 122.263 104.028 121.922 103.527C121.239 102.525 120.599 101.498 119.918 100.517C119.59 100.028 119.232 99.5614 118.846 99.1208C118.67 98.9178 118.467 98.7421 118.244 98.5992C118.164 98.5451 118.072 98.5137 117.977 98.5082C117.91 98.5093 117.846 98.5372 117.798 98.5862L117.897 98.3944C117.83 99.0443 117.902 99.7017 118.109 100.319C118.162 100.47 118.225 100.617 118.298 100.759C118.334 100.83 118.372 100.899 118.413 100.966C118.46 101.062 118.509 101.172 118.553 101.276C118.668 101.674 118.691 102.095 118.619 102.504C118.498 103.292 118.13 104.017 117.573 104.566C117.408 104.726 117.208 104.842 116.991 104.904C116.773 104.966 116.544 104.972 116.324 104.921C115.922 104.779 115.578 104.5 115.349 104.129C115.305 104.075 115.283 104.005 115.286 103.935L115.287 103.894C115.321 103.086 115.139 102.285 114.764 101.577C114.668 101.404 114.559 101.238 114.439 101.081C114.315 100.918 114.196 100.802 114.032 100.613C113.725 100.268 113.47 99.8767 113.277 99.4519C112.92 98.619 112.708 97.7268 112.65 96.8169C112.584 95.9305 112.591 95.0398 112.672 94.1548L112.687 94.2529C112.427 93.7379 112.041 93.3037 111.567 92.9947C111.079 92.6601 110.545 92.4057 109.982 92.2403C109.416 92.0607 108.834 91.9356 108.245 91.8667C107.949 91.8432 107.652 91.8112 107.354 91.7944L106.457 91.7716C106.449 91.7719 106.44 91.7686 106.434 91.7625C106.427 91.7564 106.424 91.7479 106.423 91.7389C106.424 91.7302 106.427 91.7218 106.433 91.7153C106.438 91.7089 106.446 91.7048 106.454 91.7039L107.356 91.6592C107.657 91.6567 107.959 91.6716 108.261 91.677C108.868 91.7112 109.47 91.8032 110.06 91.9521C110.661 92.099 111.237 92.3426 111.765 92.6742C112.034 92.8435 112.284 93.0433 112.51 93.27C112.753 93.5023 112.953 93.7789 113.1 94.086C113.111 94.1094 113.116 94.1352 113.115 94.1612L113.114 94.1844C113.073 95.0443 113.093 95.9061 113.174 96.7629C113.247 97.6008 113.461 98.4188 113.808 99.1792C113.984 99.5414 114.212 99.8735 114.484 100.164C114.604 100.298 114.795 100.48 114.934 100.657C115.082 100.837 115.214 101.031 115.33 101.236C115.784 102.061 116.006 103.003 115.97 103.954L115.909 103.719C116.092 103.944 116.292 104.188 116.5 104.22C116.612 104.241 116.728 104.233 116.836 104.197C116.945 104.161 117.044 104.098 117.124 104.014C117.554 103.573 117.839 103.002 117.936 102.382C117.987 102.093 117.978 101.796 117.909 101.511L117.836 101.338C117.787 101.255 117.742 101.17 117.699 101.084C117.615 100.912 117.541 100.734 117.481 100.552C117.245 99.8247 117.172 99.0511 117.267 98.29C117.276 98.2195 117.308 98.1544 117.358 98.1062L117.366 98.098C117.536 97.937 117.757 97.849 117.987 97.8516C118.186 97.8601 118.38 97.9225 118.55 98.0327C118.827 98.2107 119.077 98.4303 119.292 98.6844C119.691 99.1523 120.06 99.6471 120.397 100.166C121.066 101.184 121.68 102.225 122.331 103.233C122.657 103.737 122.984 104.238 123.339 104.714C123.676 105.19 124.073 105.616 124.52 105.981C124.627 106.065 124.743 106.134 124.868 106.186C124.928 106.209 124.988 106.239 125.048 106.257L125.23 106.278C125.353 106.274 125.473 106.241 125.582 106.182C125.691 106.122 125.785 106.038 125.859 105.935C126.18 105.454 126.383 104.898 126.448 104.316C126.453 104.282 126.471 104.251 126.498 104.231C126.525 104.21 126.559 104.202 126.592 104.207C126.61 104.21 126.626 104.217 126.641 104.227L127.097 104.535C127.254 104.621 127.416 104.698 127.582 104.766C127.738 104.833 127.907 104.863 128.076 104.852C128.244 104.841 128.409 104.79 128.555 104.702C128.833 104.481 129.03 104.168 129.115 103.815C129.222 103.455 129.278 103.081 129.281 102.705C129.281 102.687 129.286 102.669 129.294 102.653C129.303 102.637 129.315 102.624 129.33 102.615C129.344 102.605 129.361 102.6 129.379 102.599C129.396 102.598 129.413 102.602 129.429 102.61L129.435 102.613L129.864 102.836C130.006 102.895 130.155 102.933 130.308 102.95C130.447 102.972 130.589 102.939 130.706 102.858C130.824 102.777 130.908 102.653 130.942 102.511C131.031 102.198 131.062 101.871 131.033 101.547C131.013 101.213 130.964 100.882 130.886 100.558C130.88 100.532 130.88 100.505 130.888 100.48C130.895 100.454 130.909 100.431 130.928 100.414C131.094 100.251 131.208 100.04 131.256 99.8087C131.304 99.5773 131.283 99.3363 131.197 99.1172C131.109 98.8789 131.005 98.6473 130.886 98.4241L130.71 98.0673L130.519 97.7478C129.922 96.9133 129.224 96.1629 128.441 95.5155C126.886 94.1605 125.257 92.8987 123.564 91.7362C122.742 91.1449 121.878 90.619 120.979 90.1627C120.942 90.1534 120.905 90.1402 120.87 90.1234C120.798 90.1068 120.698 90.0861 120.615 90.0611C120.461 90.0067 120.359 89.9433 120.228 89.8843C119.997 89.7549 119.769 89.6211 119.551 89.4784C119.109 89.1994 118.683 88.9044 118.257 88.6081C116.556 87.421 114.906 86.165 113.285 84.8697C113.278 84.8644 113.274 84.8565 113.272 84.8478C113.271 84.8392 113.273 84.8303 113.278 84.8231C113.283 84.816 113.29 84.8111 113.299 84.8095C113.307 84.8079 113.315 84.8097 113.323 84.8145L113.323 84.8145Z" fill="#111111"/>
<path d="M120.63 96.9333C121.765 98.0304 122.841 99.1914 123.854 100.411C124.875 101.628 125.827 102.906 126.706 104.238C126.729 104.275 126.738 104.32 126.73 104.363C126.722 104.407 126.697 104.446 126.662 104.471C126.627 104.496 126.584 104.506 126.541 104.498C126.499 104.49 126.462 104.466 126.437 104.429L126.433 104.423C125.605 103.068 124.702 101.765 123.729 100.52C122.76 99.2663 121.725 98.069 120.63 96.9333Z" fill="#111111"/>
<path d="M123.912 96.2017C125.881 98.2355 127.75 100.371 129.512 102.601C129.538 102.636 129.551 102.68 129.546 102.725C129.542 102.769 129.52 102.81 129.487 102.838C129.454 102.866 129.411 102.879 129.368 102.875C129.326 102.871 129.286 102.849 129.259 102.815L129.254 102.808C127.581 100.514 125.799 98.3092 123.912 96.2017V96.2017Z" fill="#111111"/>
<path d="M126.257 95.6732C127.094 96.4354 127.924 97.206 128.747 97.9851L129.97 99.1679C130.373 99.5711 130.774 99.9677 131.151 100.418C131.18 100.452 131.194 100.496 131.191 100.541C131.188 100.586 131.168 100.627 131.136 100.657C131.103 100.686 131.06 100.701 131.017 100.698C130.974 100.695 130.934 100.674 130.906 100.64L130.901 100.634L130.896 100.629C130.563 100.189 130.177 99.7659 129.798 99.3475L128.634 98.1074C127.85 97.288 127.057 96.4767 126.257 95.6732Z" fill="#111111"/>
<path d="M116.593 82.9335C117.012 83.4761 117.479 83.9774 117.987 84.431C118.486 84.902 118.992 85.3655 119.506 85.8215L122.61 88.5276C124.684 90.3264 126.804 92.0718 128.899 93.8407L128.928 93.8681L128.935 93.8751C129.849 94.8675 130.886 95.7281 132.02 96.4339C133.154 97.1221 134.385 97.6205 135.668 97.9105C138.25 98.4964 140.942 98.2607 143.394 97.234C144.594 96.7237 145.808 95.9945 147.044 95.4119C148.273 94.794 149.532 94.2408 150.796 93.7063C152.068 93.1898 153.356 92.7161 154.663 92.3038C155.972 91.8699 157.318 91.568 158.682 91.4023C158.699 91.4007 158.715 91.4026 158.731 91.4077L158.737 91.4098C159.93 91.8223 161.178 92.0417 162.435 92.0602C163.684 92.0867 164.92 91.8039 166.042 91.2351C166.598 90.9249 167.132 90.5745 167.64 90.1866C168.261 89.8739 168.96 89.7676 169.641 89.8823C170.29 89.954 170.931 90.0862 171.557 90.2775C171.693 90.326 171.833 90.362 171.975 90.3853C172.098 90.4007 172.222 90.3926 172.341 90.3614C172.569 90.2944 172.768 90.1478 172.904 89.9461L173.035 89.8194C173.01 89.8319 172.988 89.8482 172.968 89.8678C172.918 89.9146 172.885 89.9773 172.874 90.046C172.865 90.0971 172.868 90.1496 172.883 90.1993C172.897 90.2489 172.923 90.2942 172.958 90.3316L172.911 89.9347C172.992 89.7679 173.024 89.58 173.003 89.3945C172.993 89.2907 172.974 89.188 172.946 89.0877C172.919 88.9891 172.884 88.8932 172.841 88.8009C172.821 88.7589 172.809 88.713 172.806 88.666C172.803 88.619 172.809 88.5719 172.824 88.5275L172.832 88.5057C172.92 88.0838 172.893 87.6446 172.754 87.2379C172.625 86.7764 172.456 86.328 172.249 85.8982C172.226 85.8488 172.212 85.795 172.209 85.74C172.206 85.6851 172.214 85.63 172.232 85.5782L172.241 85.5526C172.303 85.3836 172.331 85.2034 172.324 85.0227C172.305 84.829 172.257 84.6396 172.18 84.4617C172.096 84.2691 171.991 84.087 171.867 83.9189C171.745 83.7483 171.608 83.5897 171.457 83.4452C171.392 83.3844 171.347 83.3043 171.327 83.2157C171.307 83.1271 171.314 83.0343 171.346 82.9498L171.356 82.9241C171.49 82.5919 171.497 82.2192 171.376 81.8819C171.209 81.5574 170.93 81.3115 170.595 81.1943C169.78 80.9284 168.917 80.8706 168.076 81.0258C166.269 81.2877 164.489 81.7231 162.758 82.3263L162.754 82.3277C162.696 82.3468 162.635 82.3553 162.575 82.3528C160.96 82.2825 159.328 83.0248 157.643 83.572C156.792 83.8478 155.988 84.1575 155.05 84.3627C154.151 84.558 153.268 84.657 152.381 84.7636C148.841 85.1066 145.314 85.2251 141.783 85.2685L140.459 85.2816L139.797 85.2856L139.466 85.287C139.351 85.2875 139.217 85.2833 139.093 85.2716C138.333 85.1976 137.619 84.859 137.067 84.3107C136.881 84.1197 136.755 83.9709 136.596 83.7989L132.986 79.7828C130.582 77.1034 128.195 74.4061 125.826 71.6911C125.817 71.6807 125.812 71.6671 125.812 71.6531C125.813 71.639 125.818 71.6257 125.828 71.616C125.838 71.6062 125.851 71.6008 125.864 71.6008C125.878 71.6008 125.89 71.6063 125.9 71.6161C128.435 74.1647 130.949 76.734 133.442 79.3241L137.183 83.2077C137.333 83.3625 137.505 83.5506 137.637 83.678C138.058 84.0768 138.597 84.3163 139.166 84.3579C139.341 84.3717 139.557 84.3571 139.782 84.3523L140.442 84.3318L141.76 84.2855C145.272 84.1344 148.793 83.9913 152.266 83.6138C153.128 83.512 154 83.414 154.826 83.2349C155.615 83.0686 156.473 82.7501 157.302 82.4811C158.139 82.2022 158.973 81.9114 159.846 81.659C160.744 81.3751 161.68 81.2456 162.618 81.2757L162.435 81.3021C163.345 81.0071 164.247 80.7559 165.169 80.5362C166.093 80.3094 167.03 80.1409 167.975 80.0318C168.46 79.9777 168.949 79.9591 169.437 79.9763C169.958 79.9943 170.472 80.1101 170.954 80.3181C171.5 80.5394 171.943 80.9717 172.189 81.5245C172.301 81.8131 172.348 82.1241 172.328 82.4344C172.312 82.7353 172.242 83.0306 172.123 83.3054L172.022 82.7845C172.214 82.9744 172.387 83.1831 172.54 83.4077C172.696 83.6317 172.827 83.8733 172.931 84.1279C173.04 84.3992 173.105 84.6874 173.123 84.9807C173.13 85.289 173.074 85.5954 172.958 85.8792L172.95 85.5338C173.169 86.0192 173.342 86.5259 173.465 87.0467C173.531 87.3158 173.572 87.5909 173.587 87.8681C173.611 88.1776 173.568 88.4888 173.461 88.7787L173.452 88.4836C173.57 88.7567 173.639 89.0496 173.657 89.3484C173.679 89.6696 173.608 89.9904 173.453 90.2692L173.407 89.8724C173.443 89.9105 173.469 89.9569 173.484 90.0076C173.499 90.0584 173.502 90.1121 173.493 90.1644C173.481 90.2354 173.447 90.3002 173.395 90.3486C173.372 90.3713 173.346 90.3902 173.317 90.4047L173.447 90.2782C173.34 90.4617 173.19 90.6144 173.012 90.7222C172.847 90.8305 172.667 90.912 172.478 90.9639C172.287 91.0066 172.09 91.0125 171.897 90.9812C171.726 90.9481 171.558 90.8999 171.395 90.8371C170.806 90.636 170.201 90.4903 169.587 90.4019C169.009 90.2822 168.41 90.345 167.867 90.5822C167.338 90.9582 166.785 91.2969 166.212 91.5961C165.032 92.1774 163.737 92.4586 162.432 92.4166C161.143 92.3742 159.867 92.142 158.641 91.7272L158.695 91.7346C157.36 91.9039 156.046 92.2204 154.775 92.6787C153.489 93.1098 152.232 93.6352 150.993 94.1974C149.761 94.7771 148.537 95.3757 147.342 96.035C146.125 96.6653 145.006 97.4073 143.713 98.021C141.121 99.2097 138.23 99.5013 135.466 98.8528C134.093 98.528 132.777 97.9804 131.568 97.2301C130.375 96.4694 129.29 95.5383 128.346 94.4641L128.382 94.4983C126.301 92.6951 124.272 90.8347 122.247 88.9655C121.233 88.0334 120.238 87.0782 119.263 86.0999C118.772 85.6141 118.29 85.1192 117.815 84.6153C117.582 84.3569 117.343 84.1086 117.123 83.8368L116.793 83.4309C116.69 83.2873 116.598 83.1319 116.501 82.9845C116.494 82.9728 116.491 82.9585 116.493 82.9447C116.496 82.9309 116.504 82.9187 116.515 82.9107C116.526 82.9027 116.539 82.8996 116.553 82.9019C116.566 82.9043 116.578 82.9121 116.586 82.9235L116.593 82.9335Z" fill="#111111"/>
<path d="M165.097 83.196C166.185 82.8343 167.303 82.5825 168.437 82.4441C169.01 82.3715 169.588 82.3605 170.162 82.4113C170.76 82.4408 171.34 82.6378 171.84 82.9814C171.875 83.0079 171.898 83.0478 171.905 83.0922C171.911 83.1366 171.901 83.1819 171.875 83.2181C171.85 83.2544 171.811 83.2786 171.769 83.2855C171.726 83.2923 171.682 83.2813 171.648 83.2547L171.639 83.2481C171.196 82.9171 170.676 82.7153 170.133 82.6634C169.575 82.5865 169.012 82.5696 168.451 82.6128C167.317 82.6948 166.194 82.89 165.097 83.196V83.196Z" fill="#111111"/>
<path d="M166.582 85.1843C167.602 84.954 168.639 84.8167 169.682 84.774C170.209 84.7556 170.737 84.7892 171.258 84.8742C171.814 84.9373 172.333 85.1974 172.727 85.611C172.756 85.6446 172.77 85.6887 172.768 85.7336C172.765 85.7785 172.746 85.8204 172.713 85.8503C172.697 85.865 172.679 85.8764 172.658 85.8836C172.638 85.8909 172.617 85.8939 172.595 85.8926C172.552 85.8899 172.512 85.8694 172.483 85.8358L172.477 85.8282L172.472 85.8209C172.138 85.4472 171.693 85.2013 171.208 85.1229C170.706 85.0134 170.195 84.9532 169.682 84.9434C168.644 84.9298 167.607 85.0104 166.582 85.1843V85.1843Z" fill="#111111"/>
<path d="M167.129 87.3415C168.187 87.1424 169.265 87.0877 170.336 87.179C170.88 87.2202 171.415 87.342 171.926 87.5409C172.459 87.7371 172.928 88.0853 173.28 88.5457C173.293 88.5635 173.303 88.5838 173.308 88.6054C173.314 88.627 173.315 88.6495 173.312 88.6717C173.309 88.6938 173.302 88.7151 173.291 88.7343C173.28 88.7535 173.265 88.7703 173.248 88.7837C173.231 88.7971 173.211 88.8068 173.191 88.8123C173.17 88.8178 173.148 88.819 173.127 88.8158C173.106 88.8125 173.085 88.805 173.067 88.7935C173.048 88.782 173.032 88.7669 173.02 88.7489L173.015 88.7425L173.013 88.7385C172.713 88.3094 172.304 87.9759 171.832 87.7755C171.349 87.5582 170.839 87.414 170.317 87.3471C169.259 87.2011 168.187 87.1992 167.129 87.3415Z" fill="#111111"/>
<path d="M150.302 33.1061V65.7827L193.909 69.8063V33.1061H150.302ZM189.103 64.9292L154.756 62.0029V37.4955L189.103 37.1297V64.9292Z" fill="#111111"/>
<path d="M157.347 40.138C157.392 41.1381 157.432 42.098 157.453 43.0423C157.477 43.9878 157.491 44.9176 157.456 45.8566L157.335 45.7305C158.11 45.7576 158.885 45.7977 159.66 45.8014C160.435 45.8094 161.21 45.7908 161.985 45.764L161.896 45.8566C161.862 44.9015 161.838 43.9464 161.829 42.9914C161.811 42.0363 161.81 41.0812 161.819 40.1261L161.985 40.2985C161.231 40.3019 160.473 40.2629 159.707 40.2436L157.347 40.138ZM157.324 40.1141L159.613 40.0085C160.397 39.9892 161.189 39.9502 161.985 39.9536C162.029 39.9541 162.071 39.9724 162.102 40.0047C162.133 40.0369 162.15 40.0805 162.151 40.1261C162.16 41.0812 162.159 42.0363 162.141 42.9913C162.132 43.9464 162.108 44.9015 162.074 45.8566L162.074 45.863C162.074 45.8748 162.071 45.8863 162.066 45.897C162.062 45.9077 162.055 45.9174 162.047 45.9254C162.038 45.9334 162.029 45.9397 162.018 45.9438C162.008 45.9479 161.996 45.9498 161.985 45.9493C161.21 45.9225 160.435 45.9039 159.66 45.912C158.885 45.9156 158.11 45.9557 157.335 45.9828C157.32 45.9833 157.304 45.9807 157.29 45.9751C157.276 45.9694 157.262 45.9609 157.251 45.95C157.24 45.939 157.231 45.9259 157.225 45.9113C157.218 45.8968 157.215 45.881 157.214 45.865L157.214 45.8566C157.179 44.8853 157.194 43.905 157.217 42.9404C157.238 41.9744 157.278 41.0243 157.324 40.1141H157.324Z" fill="#111111"/>
<path d="M179.649 39.6327C179.729 41.5786 179.784 43.4732 179.831 45.3528C179.887 47.2371 179.912 49.0884 179.932 50.9384C179.953 52.7872 179.925 54.6153 179.867 56.4532C179.818 58.2915 179.745 60.1439 179.74 62.0046L179.622 61.8819C180.681 61.8972 181.74 61.8685 182.799 61.864C183.858 61.856 184.917 61.8138 185.976 61.7904L185.77 62.0046C185.711 60.1379 185.669 58.2713 185.641 56.4047L185.58 50.8049C185.567 48.9382 185.572 47.0716 185.595 45.205L185.694 39.6051L185.976 39.8985L182.868 39.7785L179.649 39.6327ZM179.596 39.5774L182.73 39.4317L185.976 39.3116C186.012 39.3103 186.047 39.3163 186.081 39.3293C186.114 39.3423 186.145 39.3621 186.171 39.3874C186.197 39.4128 186.218 39.4432 186.233 39.4771C186.248 39.5109 186.256 39.5475 186.258 39.5846L186.258 39.5879L186.258 39.6051L186.357 45.205C186.379 47.0716 186.383 48.9382 186.372 50.8049L186.311 56.4047C186.282 58.2713 186.239 60.138 186.182 62.0046L186.182 62.0162C186.18 62.0713 186.157 62.1235 186.119 62.1615C186.08 62.1994 186.029 62.2201 185.976 62.2189C184.917 62.1955 183.858 62.1533 182.799 62.1453C181.74 62.1407 180.681 62.112 179.622 62.1273C179.607 62.1275 179.592 62.1246 179.578 62.1188C179.563 62.1129 179.551 62.1042 179.54 62.0931C179.529 62.082 179.52 62.0688 179.514 62.0542C179.508 62.0396 179.505 62.0239 179.504 62.008L179.504 62.0046C179.499 60.132 179.426 58.2512 179.378 56.3562C179.319 54.4608 179.292 52.5556 179.312 50.6712C179.333 48.788 179.357 46.906 179.413 45.0571C179.461 43.2034 179.515 41.3648 179.596 39.5774Z" fill="#111111"/>
<path d="M175.028 71.2619V68.0643L170.223 67.6208V70.7602C167.304 70.8421 165.13 71.6749 165.015 72.9034C164.871 74.4449 168.023 76.0245 172.056 76.4315C176.088 76.8385 179.474 75.9187 179.618 74.3772C179.731 73.1667 177.811 71.933 175.028 71.2619Z" fill="#111111"/>
<path d="M130.064 76.1607C132.449 74.5795 134.862 73.0463 137.282 71.5272C137.311 71.5098 137.344 71.5032 137.376 71.5084C139.616 71.8665 141.848 72.2771 144.079 72.6935C146.309 73.1158 148.547 73.4889 150.788 73.8391L157.511 74.8939C159.749 75.262 161.99 75.6117 164.225 76.0019C164.269 76.0094 164.309 76.0349 164.335 76.0728C164.361 76.1106 164.372 76.1577 164.365 76.2037C164.357 76.2483 164.334 76.2884 164.299 76.3158C162.64 77.6118 160.969 78.8915 159.286 80.1549L156.77 82.0623L154.239 83.9475C154.235 83.9501 154.231 83.9511 154.227 83.9504C154.223 83.9497 154.219 83.9474 154.216 83.9438C154.214 83.9403 154.213 83.9358 154.213 83.9315C154.214 83.9271 154.216 83.9231 154.219 83.9204L156.672 81.9262L159.142 79.9543C160.785 78.6358 162.437 77.3293 164.097 76.0346L164.171 76.3485C161.932 75.9848 159.699 75.5806 157.464 75.1948L150.765 73.988C148.532 73.5843 146.295 73.2035 144.051 72.8718C141.808 72.5345 139.566 72.1911 137.332 71.7953L137.426 71.7766C134.992 73.273 132.55 74.7554 130.08 76.1897C130.077 76.1919 130.072 76.1924 130.068 76.1913C130.064 76.1901 130.06 76.1874 130.058 76.1836C130.056 76.1798 130.055 76.1753 130.056 76.171C130.057 76.1667 130.06 76.163 130.064 76.1607V76.1607Z" fill="#111111"/>
<path d="M132.955 79.274C134.326 79.639 135.688 80.0396 137.047 80.4455L141.114 81.7033L145.159 83.0359C146.503 83.4938 147.846 83.9568 149.178 84.4559C147.806 84.0913 146.445 83.6907 145.086 83.2849L141.019 82.0266L136.974 80.6934C135.63 80.2357 134.287 79.7726 132.955 79.274Z" fill="#111111"/>
<path d="M179.109 73.1964C179.932 73.0802 180.764 73.0551 181.592 73.1214C182.442 73.1638 183.276 73.3866 184.041 73.776C184.44 73.9922 184.785 74.3043 185.046 74.6865C185.305 75.0855 185.449 75.5539 185.46 76.0357C185.468 76.4981 185.402 76.9587 185.263 77.3982C185.14 77.8505 184.929 78.2719 184.644 78.6362C184.359 79.0007 184.009 79.3048 183.613 79.5322C183.242 79.7553 182.852 79.9439 182.449 80.0957C181.646 80.4067 180.799 80.5781 179.943 80.6031C179.098 80.6213 178.255 80.5072 177.443 80.2645C176.664 80.0146 175.834 79.9883 175.042 80.1885C175.412 79.9792 175.825 79.8641 176.247 79.8526C176.667 79.8241 177.089 79.8394 177.506 79.8982C178.3 80.0469 179.108 80.0895 179.912 80.025C180.704 79.958 181.482 79.7731 182.223 79.476C182.592 79.3276 182.949 79.1509 183.292 78.9473C183.623 78.7655 183.917 78.5186 184.158 78.2202C184.399 77.9218 184.583 77.5787 184.701 77.2091C184.831 76.8371 184.9 76.4452 184.905 76.0494C184.913 75.6696 184.816 75.2953 184.628 74.9701C184.423 74.6418 184.146 74.3679 183.821 74.1704C183.121 73.7644 182.355 73.4974 181.561 73.3832C180.75 73.2488 179.93 73.1863 179.109 73.1964V73.1964Z" fill="#111111"/>
<path d="M175.755 82.4848C175.755 82.4848 175.615 87.2434 173.182 90.1019C173.28 89.8708 173.327 89.6202 173.321 89.3678C173.315 89.1155 173.255 88.8677 173.146 88.6421C173.537 87.6667 172.599 85.7159 172.599 85.7159C173.146 84.4153 171.74 83.1147 171.74 83.1147C171.74 83.1147 172.599 81.2451 170.333 80.5949C170.333 80.5949 176.526 77.5874 175.755 82.4848Z" fill="#111111"/>
<path d="M189.05 118.079C189.028 118.08 189.006 118.076 188.985 118.069L147.07 103.653C147.044 103.644 147.02 103.63 147 103.611C146.979 103.593 146.962 103.57 146.95 103.545C146.938 103.52 146.93 103.492 146.928 103.464C146.926 103.436 146.93 103.407 146.938 103.38C146.947 103.353 146.96 103.328 146.978 103.307C146.996 103.285 147.018 103.268 147.042 103.255C147.066 103.242 147.093 103.235 147.12 103.233C147.147 103.231 147.174 103.234 147.2 103.243L189.027 117.629L242.883 85.5905V83.0206L143.001 64.0737L126.644 70.6355C126.593 70.6559 126.536 70.6543 126.486 70.6311C126.436 70.6079 126.396 70.565 126.377 70.5117C126.357 70.4585 126.358 70.3992 126.38 70.347C126.402 70.2948 126.444 70.2538 126.495 70.233L142.906 63.6491C142.942 63.6357 142.981 63.6319 143.018 63.638L243.127 82.6281C243.175 82.6372 243.218 82.6634 243.249 82.7022C243.28 82.741 243.297 82.7899 243.297 82.8404V85.7159C243.298 85.7539 243.288 85.7912 243.27 85.8241C243.251 85.857 243.225 85.8842 243.193 85.9029L189.153 118.051C189.122 118.07 189.086 118.079 189.05 118.079V118.079Z" fill="#111111"/>
<path d="M188.933 115.351C188.916 115.351 188.899 115.348 188.884 115.343L144.338 100.685C144.318 100.678 144.299 100.667 144.283 100.653C144.266 100.638 144.253 100.621 144.243 100.601C144.223 100.561 144.219 100.515 144.233 100.472C144.246 100.43 144.274 100.394 144.313 100.373C144.351 100.353 144.396 100.349 144.437 100.362L188.914 114.998L243.009 82.6934C243.028 82.6823 243.048 82.6752 243.069 82.6723C243.09 82.6695 243.112 82.671 243.133 82.6769C243.153 82.6827 243.173 82.6927 243.19 82.7063C243.207 82.7199 243.221 82.7368 243.231 82.7561C243.242 82.7754 243.249 82.7967 243.252 82.8188C243.254 82.8408 243.253 82.8633 243.247 82.8847C243.242 82.9062 243.232 82.9263 243.219 82.9439C243.206 82.9616 243.19 82.9763 243.171 82.9874L189.014 115.329C188.989 115.343 188.961 115.351 188.933 115.351V115.351Z" fill="#111111"/>
<path d="M189.05 118.033C189.008 118.033 188.968 118.016 188.937 117.986C188.907 117.956 188.889 117.915 188.887 117.872L188.77 115.19C188.769 115.167 188.772 115.145 188.78 115.124C188.787 115.103 188.798 115.084 188.812 115.068C188.827 115.051 188.844 115.038 188.864 115.028C188.883 115.019 188.904 115.014 188.925 115.013C188.968 115.012 189.009 115.028 189.041 115.058C189.072 115.088 189.092 115.129 189.095 115.174L189.213 117.856C189.214 117.878 189.21 117.9 189.203 117.921C189.196 117.942 189.185 117.961 189.17 117.978C189.156 117.994 189.138 118.008 189.119 118.017C189.1 118.027 189.079 118.032 189.057 118.033H189.05Z" fill="#111111"/>
<path d="M189.065 117.076L189.39 137.787L189.635 158.499C189.723 165.402 189.904 172.306 189.797 179.21C189.739 182.662 189.68 186.114 189.551 189.566L189.355 194.744C189.257 196.469 189.19 198.195 189.065 199.921C189.063 199.943 189.054 199.963 189.039 199.977C189.024 199.992 189.004 200 188.983 200C188.963 200 188.943 199.992 188.928 199.977C188.913 199.963 188.904 199.943 188.902 199.921C188.777 198.195 188.71 196.469 188.612 194.744L188.416 189.566C188.287 186.114 188.228 182.662 188.169 179.21C188.063 172.306 188.244 165.402 188.332 158.499L188.576 137.787L188.902 117.076C188.902 117.053 188.911 117.032 188.926 117.017C188.942 117.001 188.962 116.992 188.983 116.992C189.005 116.992 189.025 117.001 189.04 117.017C189.056 117.032 189.064 117.053 189.065 117.076Z" fill="#111111"/>
<path d="M238.951 88.6422L239.277 109.354L239.521 130.065C239.609 136.969 239.791 143.873 239.684 150.776C239.625 154.228 239.567 157.68 239.437 161.132L239.241 166.31C239.144 168.036 239.076 169.762 238.951 171.488C238.95 171.509 238.941 171.529 238.925 171.544C238.91 171.558 238.891 171.566 238.87 171.566C238.849 171.566 238.83 171.558 238.814 171.544C238.799 171.529 238.79 171.509 238.789 171.488C238.664 169.762 238.596 168.036 238.499 166.31L238.303 161.132C238.173 157.68 238.115 154.228 238.056 150.776C237.949 143.873 238.131 136.969 238.219 130.065L238.463 109.354L238.789 88.6422C238.789 88.6199 238.798 88.5987 238.813 88.583C238.828 88.5674 238.849 88.5587 238.87 88.5587C238.891 88.5587 238.912 88.5674 238.927 88.583C238.942 88.5987 238.951 88.6199 238.951 88.6422H238.951Z" fill="#111111"/>
<path d="M155.993 145.542C155.993 145.542 159.717 145.865 172.51 155.001C174.603 156.524 177.164 157.187 179.699 156.863C180.375 156.785 181.037 156.608 181.665 156.338C181.665 156.338 191.394 158.954 182.72 160.661C182.72 160.661 170.294 161.027 161.033 153.955L161.15 157.856H156.462C156.462 157.856 154.351 147.736 155.993 145.542Z" fill="#111111"/>
<path d="M159.973 130.679C160.692 131.939 161.375 133.219 162.077 134.489L164.12 138.332C164.809 139.607 165.457 140.91 166.125 142.193C166.786 143.461 167.575 144.651 168.481 145.743C168.926 146.295 169.398 146.822 169.896 147.322C170.392 147.82 170.929 148.29 171.459 148.771C172.519 149.73 173.606 150.654 174.681 151.592C175.763 152.522 176.863 153.428 178.002 154.278C178.567 154.71 179.144 155.122 179.744 155.498L180.198 155.771L180.668 156.012C180.982 156.172 181.319 156.283 181.665 156.338C180.958 156.26 180.275 156.027 179.661 155.655C179.03 155.32 178.42 154.946 177.823 154.552C176.637 153.751 175.496 152.886 174.37 152C173.239 151.121 172.159 150.178 171.075 149.24C170.538 148.767 169.992 148.302 169.467 147.792C167.893 146.269 166.586 144.472 165.603 142.483C164.957 141.179 164.3 139.888 163.679 138.573L161.796 134.642C161.189 133.321 160.562 132.01 159.973 130.679Z" fill="#111111"/>
<path d="M151.367 139.635C152.308 140.457 153.167 141.375 153.932 142.374C154.72 143.355 155.41 144.416 155.993 145.542C155.051 144.721 154.192 143.803 153.427 142.802C152.641 141.82 151.951 140.759 151.367 139.635Z" fill="#111111"/>
<path d="M129.253 175.212C129.253 175.212 132.985 175.016 146.834 182.3C149.103 183.52 151.726 183.822 154.198 183.149C154.857 182.979 155.49 182.712 156.078 182.357C156.078 182.357 166.056 183.602 157.677 186.495C157.677 186.495 145.409 188.579 135.326 182.852L135.941 186.703L131.294 187.352C131.294 187.352 127.907 177.615 129.253 175.212Z" fill="#111111"/>
<path d="M137.11 163.175C137.418 164.367 137.684 165.568 137.973 166.764L138.372 168.565C138.482 169.154 138.659 169.728 138.897 170.274C139.137 170.809 139.444 171.31 139.809 171.763C140.184 172.216 140.593 172.659 141.011 173.078C141.848 173.923 142.754 174.69 143.72 175.369C145.682 176.722 147.683 178.046 149.699 179.319C150.709 179.955 151.732 180.569 152.782 181.125C153.301 181.415 153.833 181.678 154.378 181.911C154.913 182.169 155.49 182.32 156.078 182.358C155.48 182.394 154.881 182.299 154.32 182.08C153.751 181.892 153.192 181.673 152.646 181.425C151.556 180.924 150.498 180.357 149.45 179.772C147.357 178.593 145.349 177.286 143.354 175.929C142.361 175.221 141.432 174.419 140.58 173.534C140.156 173.087 139.754 172.63 139.369 172.138C138.982 171.637 138.668 171.078 138.44 170.48C138.216 169.891 138.058 169.277 137.97 168.65L137.662 166.829C137.479 165.611 137.274 164.397 137.11 163.175Z" fill="#111111"/>
<path d="M128.937 166.152C129.219 167.641 129.381 169.153 129.42 170.67C129.488 172.186 129.432 173.706 129.253 175.212C128.969 173.723 128.807 172.212 128.77 170.695C128.703 169.178 128.759 167.659 128.937 166.152V166.152Z" fill="#111111"/>
<path d="M118.153 45.5824C117.489 45.65 116.819 45.5312 116.215 45.2385C115.899 45.0935 115.623 44.8704 115.409 44.5886C115.197 44.3055 115.1 43.9466 115.14 43.5898C115.23 43.8959 115.386 44.1763 115.597 44.4093C115.808 44.6423 116.067 44.8216 116.355 44.9333C116.937 45.1979 117.538 45.4149 118.153 45.5824V45.5824Z" fill="#111111"/>
<path d="M181.121 42.3563C181.323 42.349 181.514 42.2606 181.654 42.1096C181.794 41.9586 181.873 41.7569 181.873 41.5471C181.873 41.3372 181.794 41.1355 181.654 40.9845C181.514 40.8335 181.323 40.7451 181.121 40.7378C180.92 40.7451 180.729 40.8335 180.588 40.9845C180.448 41.1355 180.37 41.3372 180.37 41.5471C180.37 41.7569 180.448 41.9586 180.588 42.1096C180.729 42.2606 180.92 42.349 181.121 42.3563V42.3563Z" fill="#111111"/>
<path d="M181.246 46.8233C181.447 46.8161 181.638 46.7276 181.779 46.5767C181.919 46.4257 181.997 46.224 181.997 46.0141C181.997 45.8042 181.919 45.6025 181.779 45.4516C181.638 45.3006 181.447 45.2122 181.246 45.2049C181.044 45.2122 180.853 45.3006 180.713 45.4516C180.573 45.6025 180.494 45.8042 180.494 46.0141C180.494 46.224 180.573 46.4257 180.713 46.5767C180.853 46.7276 181.044 46.8161 181.246 46.8233Z" fill="#111111"/>
<path d="M181.308 51.614C181.51 51.6067 181.701 51.5183 181.841 51.3673C181.981 51.2164 182.059 51.0147 182.059 50.8048C182.059 50.5949 181.981 50.3932 181.841 50.2422C181.701 50.0913 181.51 50.0028 181.308 49.9955C181.106 50.0028 180.915 50.0913 180.775 50.2422C180.635 50.3932 180.556 50.5949 180.556 50.8048C180.556 51.0147 180.635 51.2164 180.775 51.3673C180.915 51.5183 181.106 51.6067 181.308 51.614V51.614Z" fill="#111111"/>
<path d="M181.308 56.9225C181.51 56.9153 181.701 56.8268 181.841 56.6759C181.981 56.5249 182.059 56.3232 182.059 56.1133C182.059 55.9034 181.981 55.7017 181.841 55.5508C181.701 55.3998 181.51 55.3113 181.308 55.3041C181.106 55.3113 180.915 55.3998 180.775 55.5508C180.635 55.7017 180.556 55.9034 180.556 56.1133C180.556 56.3232 180.635 56.5249 180.775 56.6759C180.915 56.8268 181.106 56.9153 181.308 56.9225V56.9225Z" fill="#111111"/>
<path d="M181.432 61.1954C181.634 61.1881 181.825 61.0997 181.965 60.9487C182.106 60.7978 182.184 60.5961 182.184 60.3862C182.184 60.1763 182.106 59.9746 181.965 59.8236C181.825 59.6726 181.634 59.5842 181.432 59.5769C181.231 59.5842 181.04 59.6726 180.899 59.8236C180.759 59.9746 180.681 60.1763 180.681 60.3862C180.681 60.5961 180.759 60.7978 180.899 60.9487C181.04 61.0997 181.231 61.1881 181.432 61.1954V61.1954Z" fill="#111111"/>
<path d="M159.641 43.3218C159.753 43.3211 159.864 43.2875 159.959 43.2246C160.054 43.1618 160.13 43.0724 160.179 42.9666C160.258 42.782 160.312 42.5868 160.339 42.3866C160.364 42.2796 160.367 42.1684 160.348 42.0601C160.329 41.9518 160.289 41.8487 160.23 41.7573C160.158 41.6721 160.065 41.6087 159.962 41.5738C159.858 41.539 159.747 41.534 159.641 41.5593C159.451 41.5992 159.28 41.7046 159.155 41.8583C159.051 42.0131 158.995 42.198 158.996 42.3872C158.991 42.585 159.029 42.7814 159.107 42.9619C159.155 43.068 159.23 43.1581 159.324 43.2217C159.419 43.2854 159.528 43.3201 159.641 43.3218V43.3218ZM159.641 43.3697C159.376 43.3867 159.112 43.3195 158.885 43.1769C158.766 43.0862 158.669 42.9672 158.603 42.8299C158.537 42.6925 158.503 42.5407 158.504 42.387C158.502 42.2314 158.531 42.0769 158.588 41.9332C158.645 41.7894 158.73 41.6594 158.838 41.5511C158.943 41.4458 159.07 41.3679 159.21 41.3237C159.349 41.2795 159.497 41.2703 159.641 41.2968C159.903 41.3391 160.146 41.4626 160.34 41.6514C160.547 41.8416 160.683 42.1022 160.723 42.3868C160.739 42.5365 160.717 42.6881 160.659 42.826C160.601 42.9639 160.508 43.0832 160.391 43.1715C160.166 43.3147 159.904 43.3837 159.641 43.3697V43.3697Z" fill="#111111"/>
<path d="M161.132 45.8734C160.65 45.9573 160.165 46.0136 159.678 46.042C159.416 46.0539 159.153 46.068 158.885 46.0608C158.618 46.0544 158.351 46.018 158.092 45.9928L158.066 45.9901C158.05 45.9887 158.036 45.9841 158.022 45.9767C158.009 45.9693 157.997 45.9592 157.987 45.947C157.977 45.9348 157.97 45.9207 157.966 45.9056C157.961 45.8904 157.96 45.8745 157.961 45.8587L157.961 45.8566C157.998 45.5645 158.019 45.2704 158.023 44.9758C158.004 44.6683 158.046 44.3601 158.146 44.0699C158.263 43.7573 158.468 43.4882 158.733 43.2969C158.998 43.1056 159.312 43.0008 159.634 42.9959C159.957 42.991 160.274 43.0862 160.544 43.2694C160.815 43.4526 161.026 43.7154 161.152 44.0243C161.274 44.3308 161.31 44.6669 161.256 44.9936C161.224 45.3162 161.172 45.6165 161.132 45.8734ZM161.1 45.8398L160.976 44.9582C160.962 44.6979 160.894 44.4439 160.775 44.2143C160.653 43.9994 160.483 43.8188 160.279 43.6881C160.075 43.5574 159.843 43.4806 159.604 43.4646C159.353 43.458 159.105 43.5194 158.883 43.6428C158.662 43.7663 158.476 43.9474 158.342 44.1686C158.202 44.4114 158.139 44.6937 158.161 44.9758C158.165 45.2704 158.186 45.5645 158.223 45.8566L158.092 45.7205C158.337 45.6952 158.574 45.6588 158.811 45.6524C159.047 45.6452 159.287 45.6593 159.53 45.6713C160.017 45.7019 160.526 45.7631 161.1 45.8398V45.8398Z" fill="#111111"/>
<path d="M164.012 40.138C164.058 41.1381 164.098 42.098 164.119 43.0423C164.142 43.9878 164.157 44.9176 164.122 45.8566L164.001 45.7305C164.776 45.7576 165.551 45.7977 166.326 45.8014C167.101 45.8094 167.876 45.7908 168.651 45.764L168.562 45.8566C168.528 44.9015 168.503 43.9464 168.495 42.9914C168.477 42.0363 168.476 41.0812 168.485 40.1261L168.651 40.2985C167.897 40.3019 167.139 40.2629 166.373 40.2436L164.012 40.138ZM163.989 40.1141L166.279 40.0085C167.063 39.9892 167.855 39.9502 168.651 39.9536C168.695 39.9541 168.737 39.9724 168.768 40.0047C168.799 40.0369 168.816 40.0805 168.817 40.1261C168.826 41.0812 168.825 42.0363 168.807 42.9913C168.798 43.9464 168.774 44.9015 168.74 45.8566L168.74 45.863C168.739 45.8748 168.737 45.8863 168.732 45.897C168.727 45.9077 168.721 45.9174 168.712 45.9254C168.704 45.9334 168.695 45.9397 168.684 45.9438C168.673 45.9479 168.662 45.9498 168.651 45.9493C167.876 45.9225 167.101 45.9039 166.326 45.912C165.551 45.9156 164.776 45.9557 164.001 45.9828C163.986 45.9833 163.97 45.9807 163.956 45.9751C163.942 45.9694 163.928 45.9609 163.917 45.95C163.906 45.939 163.897 45.9259 163.89 45.9113C163.884 45.8968 163.881 45.881 163.88 45.865L163.88 45.8566C163.845 44.8853 163.86 43.905 163.883 42.9404C163.904 41.9744 163.944 41.0243 163.989 40.1141Z" fill="#111111"/>
<path d="M166.306 43.3218C166.419 43.3211 166.529 43.2875 166.625 43.2246C166.72 43.1618 166.796 43.0724 166.845 42.9666C166.924 42.782 166.978 42.5868 167.005 42.3866C167.03 42.2796 167.033 42.1684 167.014 42.0601C166.995 41.9518 166.955 41.8487 166.896 41.7573C166.824 41.6721 166.731 41.6087 166.628 41.5738C166.524 41.539 166.413 41.534 166.306 41.5593C166.117 41.5992 165.946 41.7046 165.821 41.8583C165.716 42.0131 165.661 42.198 165.662 42.3872C165.657 42.585 165.695 42.7814 165.773 42.9619C165.821 43.068 165.896 43.1581 165.99 43.2217C166.084 43.2854 166.194 43.3201 166.306 43.3218V43.3218ZM166.306 43.3697C166.042 43.3867 165.778 43.3195 165.551 43.1769C165.432 43.0862 165.335 42.9672 165.269 42.8299C165.203 42.6925 165.169 42.5407 165.17 42.387C165.168 42.2314 165.196 42.0769 165.254 41.9332C165.311 41.7894 165.396 41.6594 165.504 41.5511C165.609 41.4458 165.736 41.3679 165.876 41.3237C166.015 41.2795 166.163 41.2703 166.306 41.2968C166.569 41.3391 166.812 41.4626 167.005 41.6514C167.213 41.8416 167.349 42.1022 167.389 42.3868C167.405 42.5365 167.383 42.6881 167.325 42.826C167.266 42.9639 167.174 43.0832 167.057 43.1715C166.831 43.3147 166.57 43.3837 166.306 43.3697Z" fill="#111111"/>
<path d="M167.798 45.8734C167.316 45.9573 166.831 46.0136 166.343 46.042C166.082 46.0539 165.818 46.068 165.551 46.0608C165.284 46.0544 165.017 46.018 164.758 45.9928L164.731 45.9901C164.716 45.9887 164.702 45.9841 164.688 45.9767C164.675 45.9693 164.663 45.9592 164.653 45.947C164.643 45.9348 164.636 45.9207 164.631 45.9056C164.627 45.8904 164.625 45.8745 164.627 45.8588L164.627 45.8566C164.664 45.5645 164.685 45.2704 164.688 44.9758C164.67 44.6683 164.712 44.3601 164.812 44.0699C164.929 43.7573 165.134 43.4882 165.399 43.2969C165.664 43.1056 165.978 43.0008 166.3 42.9959C166.623 42.991 166.94 43.0862 167.21 43.2694C167.48 43.4526 167.692 43.7154 167.818 44.0243C167.94 44.3308 167.976 44.6669 167.921 44.9936C167.89 45.3162 167.838 45.6165 167.798 45.8734ZM167.765 45.8399L167.642 44.9582C167.628 44.6979 167.56 44.4439 167.441 44.2143C167.319 43.9995 167.149 43.8188 166.945 43.6881C166.741 43.5574 166.509 43.4807 166.27 43.4646C166.019 43.458 165.77 43.5194 165.549 43.6428C165.328 43.7663 165.141 43.9475 165.008 44.1686C164.868 44.4114 164.805 44.6937 164.827 44.9758C164.831 45.2704 164.852 45.5645 164.889 45.8566L164.758 45.7205C165.003 45.6952 165.24 45.6588 165.476 45.6524C165.713 45.6452 165.953 45.6593 166.196 45.6713C166.683 45.7019 167.192 45.7631 167.765 45.8399Z" fill="#111111"/>
<path d="M170.802 40.138C170.848 41.1381 170.888 42.098 170.909 43.0423C170.932 43.9878 170.947 44.9176 170.912 45.8566L170.791 45.7305C171.566 45.7576 172.341 45.7977 173.116 45.8014C173.891 45.8094 174.666 45.7908 175.441 45.764L175.351 45.8566C175.318 44.9015 175.293 43.9464 175.285 42.9914C175.267 42.0363 175.266 41.0812 175.275 40.1261L175.441 40.2985C174.686 40.3019 173.929 40.2629 173.162 40.2436L170.802 40.138ZM170.779 40.1141L173.069 40.0085C173.852 39.9892 174.645 39.9502 175.441 39.9536C175.484 39.9541 175.526 39.9724 175.557 40.0046C175.588 40.0369 175.606 40.0805 175.606 40.1261C175.615 41.0812 175.614 42.0363 175.597 42.9913C175.588 43.9464 175.564 44.9015 175.53 45.8566L175.529 45.863C175.529 45.8748 175.526 45.8863 175.522 45.897C175.517 45.9077 175.51 45.9174 175.502 45.9254C175.494 45.9334 175.484 45.9397 175.474 45.9438C175.463 45.9479 175.452 45.9498 175.441 45.9493C174.666 45.9225 173.891 45.9039 173.116 45.912C172.341 45.9156 171.566 45.9557 170.791 45.9828C170.775 45.9833 170.76 45.9807 170.746 45.9751C170.731 45.9694 170.718 45.9609 170.707 45.95C170.696 45.939 170.687 45.9259 170.68 45.9113C170.674 45.8968 170.67 45.881 170.67 45.865L170.669 45.8566C170.635 44.8853 170.649 43.905 170.672 42.9404C170.693 41.9744 170.734 41.0243 170.779 40.1141Z" fill="#111111"/>
<path d="M173.096 43.3218C173.209 43.3211 173.319 43.2875 173.414 43.2247C173.51 43.1618 173.586 43.0724 173.634 42.9666C173.714 42.782 173.768 42.5868 173.795 42.3866C173.819 42.2796 173.823 42.1684 173.804 42.0601C173.785 41.9518 173.745 41.8487 173.686 41.7573C173.614 41.6721 173.521 41.6087 173.417 41.5738C173.314 41.539 173.203 41.534 173.096 41.5593C172.907 41.5992 172.736 41.7046 172.611 41.8583C172.506 42.0131 172.451 42.198 172.452 42.3872C172.447 42.585 172.485 42.7814 172.563 42.9619C172.61 43.068 172.685 43.1581 172.78 43.2217C172.874 43.2854 172.984 43.3201 173.096 43.3218V43.3218ZM173.096 43.3697C172.832 43.3867 172.568 43.3195 172.341 43.1769C172.222 43.0862 172.125 42.9672 172.059 42.8298C171.992 42.6925 171.959 42.5407 171.96 42.387C171.958 42.2314 171.986 42.0769 172.044 41.9332C172.101 41.7894 172.186 41.6594 172.293 41.5511C172.398 41.4458 172.526 41.3679 172.665 41.3237C172.805 41.2795 172.953 41.2703 173.096 41.2968C173.358 41.339 173.602 41.4626 173.795 41.6514C174.003 41.8416 174.139 42.1022 174.179 42.3868C174.195 42.5365 174.173 42.6881 174.115 42.826C174.056 42.9639 173.964 43.0832 173.846 43.1715C173.621 43.3147 173.36 43.3837 173.096 43.3697Z" fill="#111111"/>
<path d="M174.587 45.8734C174.106 45.9574 173.621 46.0136 173.133 46.042C172.872 46.0539 172.608 46.068 172.341 46.0608C172.074 46.0544 171.807 46.018 171.548 45.9928L171.521 45.9902C171.506 45.9887 171.491 45.9841 171.478 45.9767C171.464 45.9693 171.452 45.9592 171.443 45.947C171.433 45.9348 171.426 45.9208 171.421 45.9056C171.417 45.8905 171.415 45.8746 171.417 45.8588L171.417 45.8566C171.454 45.5645 171.474 45.2705 171.478 44.9759C171.46 44.6683 171.502 44.3601 171.602 44.07C171.719 43.7573 171.923 43.4882 172.188 43.2969C172.453 43.1056 172.767 43.0008 173.09 42.9959C173.413 42.991 173.729 43.0862 174 43.2694C174.27 43.4526 174.482 43.7154 174.608 44.0243C174.73 44.3308 174.765 44.6669 174.711 44.9937C174.68 45.3162 174.628 45.6165 174.587 45.8734ZM174.555 45.8399L174.431 44.9582C174.418 44.6979 174.349 44.4439 174.23 44.2144C174.109 43.9995 173.939 43.8188 173.735 43.6881C173.53 43.5574 173.299 43.4807 173.059 43.4646C172.808 43.458 172.56 43.5194 172.339 43.6429C172.118 43.7663 171.931 43.9475 171.798 44.1686C171.658 44.4114 171.594 44.6938 171.617 44.9759C171.621 45.2704 171.641 45.5645 171.678 45.8566L171.548 45.7206C171.793 45.6953 172.029 45.6589 172.266 45.6525C172.503 45.6453 172.743 45.6594 172.986 45.6713C173.473 45.7019 173.981 45.7632 174.555 45.8399Z" fill="#111111"/>
<path d="M167.793 47.2543C167.839 48.2543 167.879 49.2142 167.9 50.1585C167.923 51.104 167.937 52.0339 167.903 52.9728L167.781 52.8467C168.556 52.8738 169.331 52.9139 170.106 52.9176C170.881 52.9256 171.656 52.907 172.431 52.8802L172.342 52.9728C172.308 52.0177 172.284 51.0626 172.275 50.1076C172.258 49.1525 172.257 48.1974 172.266 47.2424L172.431 47.4147C171.677 47.4181 170.919 47.3792 170.153 47.3599L167.793 47.2543ZM167.77 47.2303L170.06 47.1247C170.843 47.1054 171.635 47.0664 172.431 47.0699C172.475 47.0703 172.517 47.0886 172.548 47.1209C172.579 47.1531 172.597 47.1967 172.597 47.2423C172.606 48.1974 172.605 49.1525 172.587 50.1076C172.579 51.0626 172.554 52.0177 172.52 52.9728L172.52 52.9793C172.52 52.991 172.517 53.0026 172.513 53.0133C172.508 53.024 172.501 53.0336 172.493 53.0416C172.485 53.0496 172.475 53.0558 172.464 53.0599C172.454 53.064 172.443 53.0659 172.431 53.0655C171.656 53.0387 170.881 53.0201 170.106 53.0282C169.331 53.0318 168.556 53.0719 167.781 53.099C167.75 53.1 167.72 53.0882 167.698 53.0662C167.675 53.0441 167.661 53.0136 167.66 52.9813L167.66 52.9728C167.626 52.0015 167.64 51.0211 167.663 50.0566C167.684 49.0906 167.724 48.1405 167.77 47.2303Z" fill="#111111"/>
<path d="M170.087 50.4379C170.2 50.4373 170.31 50.4037 170.405 50.3408C170.5 50.278 170.577 50.1886 170.625 50.0828C170.704 49.8982 170.758 49.703 170.786 49.5028C170.81 49.3958 170.813 49.2846 170.794 49.1763C170.776 49.068 170.736 48.9649 170.677 48.8736C170.605 48.7883 170.512 48.7249 170.408 48.6901C170.304 48.6552 170.193 48.6502 170.087 48.6755C169.897 48.7154 169.726 48.8208 169.602 48.9745C169.497 49.1293 169.441 49.3142 169.442 49.5034C169.438 49.7012 169.476 49.8976 169.554 50.0781C169.601 50.1842 169.676 50.2743 169.77 50.3379C169.865 50.4016 169.975 50.4362 170.087 50.4379ZM170.087 50.4859C169.822 50.5029 169.559 50.4357 169.332 50.2931C169.212 50.2024 169.116 50.0834 169.049 49.946C168.983 49.8087 168.949 49.6569 168.951 49.5032C168.948 49.3476 168.977 49.1931 169.034 49.0494C169.092 48.9056 169.177 48.7756 169.284 48.6673C169.389 48.562 169.517 48.4841 169.656 48.4399C169.796 48.3957 169.943 48.3865 170.087 48.413C170.349 48.4553 170.593 48.5788 170.786 48.7676C170.993 48.9578 171.129 49.2184 171.169 49.503C171.186 49.6527 171.164 49.8043 171.105 49.9422C171.047 50.0801 170.954 50.1993 170.837 50.2877C170.612 50.4309 170.35 50.4999 170.087 50.4859V50.4859Z" fill="#111111"/>
<path d="M171.578 52.9897C171.097 53.0736 170.611 53.1299 170.124 53.1583C169.863 53.1702 169.599 53.1843 169.332 53.1771C169.065 53.1707 168.797 53.1343 168.538 53.1091L168.512 53.1064C168.497 53.105 168.482 53.1004 168.468 53.093C168.455 53.0856 168.443 53.0755 168.433 53.0633C168.424 53.0511 168.416 53.037 168.412 53.0219C168.407 53.0067 168.406 52.9908 168.407 52.9751L168.407 52.9729C168.444 52.6808 168.465 52.3867 168.469 52.0921C168.451 51.7846 168.493 51.4765 168.592 51.1863C168.71 50.8737 168.914 50.6045 169.179 50.4132C169.444 50.2219 169.758 50.1171 170.081 50.1122C170.403 50.1073 170.72 50.2025 170.99 50.3857C171.261 50.5688 171.472 50.8317 171.598 51.1406C171.72 51.4471 171.756 51.7832 171.702 52.1099C171.67 52.4325 171.618 52.7328 171.578 52.9897ZM171.546 52.9561L171.422 52.0745C171.408 51.8142 171.34 51.5602 171.221 51.3306C171.1 51.1158 170.929 50.9351 170.725 50.8044C170.521 50.6737 170.289 50.5969 170.05 50.5809C169.799 50.5742 169.551 50.6357 169.329 50.7591C169.108 50.8825 168.922 51.0637 168.788 51.2849C168.648 51.5277 168.585 51.81 168.608 52.0921C168.612 52.3867 168.632 52.6808 168.669 52.9729L168.538 52.8368C168.783 52.8115 169.02 52.7751 169.257 52.7687C169.493 52.7615 169.734 52.7756 169.976 52.7876C170.463 52.8182 170.972 52.8794 171.546 52.9561V52.9561Z" fill="#111111"/>
<path d="M160.543 47.2543C160.588 48.2543 160.628 49.2143 160.649 50.1585C160.672 51.104 160.687 52.0339 160.652 52.9728L160.531 52.8467C161.306 52.8738 162.081 52.9139 162.856 52.9176C163.631 52.9256 164.406 52.907 165.181 52.8802L165.092 52.9728C165.058 52.0177 165.034 51.0626 165.025 50.1076C165.007 49.1525 165.006 48.1974 165.015 47.2424L165.181 47.4147C164.427 47.4181 163.669 47.3792 162.903 47.3599L160.543 47.2543ZM160.52 47.2303L162.809 47.1247C163.593 47.1054 164.385 47.0664 165.181 47.0699C165.225 47.0703 165.267 47.0886 165.298 47.1209C165.329 47.1531 165.346 47.1967 165.347 47.2423C165.356 48.1974 165.355 49.1525 165.337 50.1076C165.328 51.0626 165.304 52.0177 165.27 52.9728L165.27 52.9793C165.269 52.991 165.267 53.0026 165.262 53.0133C165.258 53.024 165.251 53.0336 165.243 53.0416C165.234 53.0496 165.225 53.0559 165.214 53.06C165.203 53.0641 165.192 53.0659 165.181 53.0655C164.406 53.0387 163.631 53.0201 162.856 53.0282C162.081 53.0318 161.306 53.0719 160.531 53.099C160.516 53.0995 160.5 53.0969 160.486 53.0913C160.472 53.0856 160.458 53.0771 160.447 53.0662C160.436 53.0553 160.427 53.0421 160.421 53.0276C160.414 53.013 160.411 52.9973 160.41 52.9813L160.41 52.9728C160.375 52.0015 160.39 51.0212 160.413 50.0566C160.434 49.0906 160.474 48.1405 160.52 47.2303Z" fill="#111111"/>
<path d="M157.347 54.6674C157.392 55.6674 157.432 56.6274 157.453 57.5716C157.477 58.5172 157.491 59.447 157.456 60.386L157.335 60.2599C158.11 60.2869 158.885 60.327 159.66 60.3307C160.435 60.3387 161.21 60.3201 161.985 60.2933L161.896 60.386C161.862 59.4309 161.838 58.4758 161.829 57.5207C161.811 56.5656 161.81 55.6105 161.819 54.6555L161.985 54.8279C161.231 54.8313 160.473 54.7923 159.707 54.7729L157.347 54.6674ZM157.324 54.6434L159.613 54.5379C160.397 54.5185 161.189 54.4796 161.985 54.483C162.029 54.4834 162.071 54.5018 162.102 54.534C162.133 54.5663 162.15 54.6099 162.151 54.6555C162.16 55.6105 162.159 56.5656 162.141 57.5207C162.132 58.4757 162.108 59.4308 162.074 60.3859L162.074 60.3924C162.074 60.4042 162.071 60.4157 162.066 60.4264C162.062 60.4371 162.055 60.4467 162.047 60.4547C162.038 60.4628 162.029 60.469 162.018 60.4731C162.008 60.4772 161.996 60.4791 161.985 60.4787C161.21 60.4519 160.435 60.4332 159.66 60.4413C158.885 60.445 158.11 60.4851 157.335 60.5121C157.32 60.5127 157.304 60.51 157.29 60.5044C157.276 60.4988 157.262 60.4903 157.251 60.4793C157.24 60.4684 157.231 60.4553 157.225 60.4407C157.218 60.4261 157.215 60.4104 157.214 60.3944L157.214 60.386C157.179 59.4146 157.194 58.4343 157.217 57.4697C157.238 56.5038 157.278 55.5535 157.324 54.6434L157.324 54.6434Z" fill="#111111"/>
<path d="M159.641 57.8511C159.753 57.8505 159.864 57.8168 159.959 57.754C160.054 57.6912 160.13 57.6017 160.179 57.4959C160.258 57.3113 160.312 57.1161 160.339 56.9159C160.364 56.8089 160.367 56.6977 160.348 56.5894C160.329 56.4811 160.289 56.378 160.23 56.2867C160.158 56.2014 160.065 56.138 159.962 56.1032C159.858 56.0683 159.747 56.0633 159.641 56.0886C159.451 56.1285 159.28 56.2339 159.155 56.3876C159.051 56.5425 158.995 56.7273 158.996 56.9165C158.991 57.1143 159.029 57.3107 159.107 57.4912C159.155 57.5974 159.23 57.6874 159.324 57.7511C159.418 57.8147 159.528 57.8494 159.641 57.8511V57.8511ZM159.641 57.8991C159.376 57.9161 159.112 57.8489 158.885 57.7063C158.766 57.6156 158.669 57.4966 158.603 57.3592C158.537 57.2218 158.503 57.07 158.504 56.9164C158.502 56.7607 158.531 56.6063 158.588 56.4625C158.645 56.3188 158.73 56.1887 158.838 56.0805C158.943 55.9752 159.07 55.8972 159.21 55.853C159.349 55.8088 159.497 55.7996 159.641 55.8262C159.903 55.8684 160.146 55.992 160.34 56.1807C160.547 56.3709 160.683 56.6315 160.723 56.9161C160.739 57.0658 160.717 57.2174 160.659 57.3553C160.601 57.4932 160.508 57.6125 160.391 57.7009C160.166 57.844 159.904 57.9131 159.641 57.8991V57.8991Z" fill="#111111"/>
<path d="M161.132 60.4028C160.65 60.4867 160.165 60.543 159.678 60.5714C159.416 60.5833 159.153 60.5974 158.885 60.5903C158.618 60.5839 158.351 60.5475 158.092 60.5222L158.066 60.5196C158.05 60.5181 158.036 60.5136 158.022 60.5062C158.009 60.4988 157.997 60.4887 157.987 60.4765C157.977 60.4643 157.97 60.4502 157.966 60.435C157.961 60.4199 157.96 60.404 157.961 60.3882L157.961 60.3861C157.998 60.094 158.019 59.7999 158.023 59.5053C158.004 59.1978 158.046 58.8896 158.146 58.5994C158.263 58.2868 158.468 58.0176 158.733 57.8263C158.998 57.635 159.312 57.5302 159.634 57.5253C159.957 57.5204 160.274 57.6156 160.544 57.7988C160.815 57.982 161.026 58.2448 161.152 58.5538C161.274 58.8602 161.31 59.1963 161.256 59.5231C161.224 59.8456 161.172 60.1459 161.132 60.4028ZM161.1 60.3693L160.976 59.4876C160.962 59.2273 160.894 58.9733 160.775 58.7438C160.653 58.5289 160.483 58.3482 160.279 58.2175C160.075 58.0868 159.843 58.0101 159.604 57.994C159.353 57.9874 159.105 58.0489 158.883 58.1723C158.662 58.2957 158.476 58.4769 158.342 58.698C158.202 58.9408 158.139 59.2232 158.161 59.5053C158.165 59.7999 158.186 60.094 158.223 60.386L158.092 60.2499C158.337 60.2247 158.574 60.1883 158.811 60.1819C159.047 60.1747 159.287 60.1888 159.53 60.2007C160.017 60.2313 160.526 60.2925 161.1 60.3693V60.3693Z" fill="#111111"/>
<path d="M164.012 54.6674C164.058 55.6674 164.098 56.6274 164.119 57.5716C164.142 58.5172 164.157 59.447 164.122 60.386L164.001 60.2599C164.776 60.2869 165.551 60.327 166.326 60.3307C167.101 60.3387 167.876 60.3201 168.651 60.2933L168.562 60.386C168.528 59.4309 168.503 58.4758 168.495 57.5207C168.477 56.5656 168.476 55.6105 168.485 54.6555L168.651 54.8279C167.897 54.8313 167.139 54.7923 166.373 54.7729L164.012 54.6674ZM163.989 54.6434L166.279 54.5379C167.063 54.5185 167.855 54.4796 168.651 54.483C168.695 54.4834 168.737 54.5018 168.768 54.534C168.799 54.5663 168.816 54.6099 168.817 54.6555C168.826 55.6105 168.825 56.5656 168.807 57.5207C168.798 58.4757 168.774 59.4308 168.74 60.3859L168.74 60.3924C168.739 60.4042 168.737 60.4157 168.732 60.4264C168.727 60.4371 168.721 60.4467 168.712 60.4547C168.704 60.4628 168.695 60.469 168.684 60.4731C168.673 60.4772 168.662 60.4791 168.651 60.4787C167.876 60.4519 167.101 60.4332 166.326 60.4413C165.551 60.445 164.776 60.4851 164.001 60.5121C163.986 60.5127 163.97 60.51 163.956 60.5044C163.942 60.4988 163.928 60.4903 163.917 60.4793C163.906 60.4684 163.897 60.4553 163.89 60.4407C163.884 60.4261 163.881 60.4104 163.88 60.3944L163.88 60.386C163.845 59.4146 163.86 58.4343 163.883 57.4697C163.904 56.5038 163.944 55.5535 163.989 54.6434V54.6434Z" fill="#111111"/>
<path d="M170.746 54.6674C170.792 55.6674 170.832 56.6274 170.853 57.5716C170.876 58.5172 170.89 59.447 170.856 60.386L170.734 60.2599C171.509 60.2869 172.284 60.327 173.059 60.3307C173.834 60.3387 174.609 60.3201 175.384 60.2933L175.295 60.386C175.261 59.4309 175.237 58.4758 175.228 57.5207C175.211 56.5656 175.21 55.6105 175.219 54.6555L175.384 54.8279C174.63 54.8313 173.873 54.7923 173.106 54.7729L170.746 54.6674ZM170.723 54.6434L173.013 54.5379C173.796 54.5185 174.589 54.4796 175.384 54.483C175.428 54.4834 175.47 54.5018 175.501 54.534C175.532 54.5663 175.55 54.6099 175.55 54.6555C175.559 55.6105 175.558 56.5656 175.54 57.5207C175.532 58.4757 175.507 59.4308 175.474 60.3859L175.473 60.3924C175.473 60.4042 175.47 60.4157 175.466 60.4264C175.461 60.4371 175.454 60.4467 175.446 60.4547C175.438 60.4628 175.428 60.469 175.417 60.4731C175.407 60.4772 175.396 60.4791 175.384 60.4787C174.609 60.4519 173.834 60.4332 173.059 60.4413C172.284 60.445 171.509 60.4851 170.734 60.5121C170.719 60.5127 170.704 60.51 170.689 60.5044C170.675 60.4988 170.662 60.4903 170.651 60.4793C170.639 60.4684 170.63 60.4553 170.624 60.4407C170.618 60.4261 170.614 60.4104 170.613 60.3944L170.613 60.386C170.579 59.4146 170.593 58.4343 170.616 57.4697C170.637 56.5038 170.677 55.5535 170.723 54.6434V54.6434Z" fill="#111111"/>
<path d="M173.04 57.8511C173.153 57.8505 173.263 57.8168 173.358 57.754C173.453 57.6912 173.53 57.6017 173.578 57.4959C173.658 57.3113 173.712 57.1161 173.739 56.9159C173.763 56.8089 173.766 56.6977 173.747 56.5894C173.729 56.4811 173.689 56.378 173.63 56.2867C173.558 56.2014 173.465 56.138 173.361 56.1032C173.257 56.0683 173.146 56.0633 173.04 56.0886C172.85 56.1285 172.679 56.2339 172.555 56.3876C172.45 56.5424 172.394 56.7273 172.395 56.9165C172.391 57.1143 172.429 57.3107 172.507 57.4912C172.554 57.5973 172.629 57.6874 172.723 57.7511C172.818 57.8147 172.927 57.8494 173.04 57.8511ZM173.04 57.899C172.775 57.9161 172.512 57.8489 172.285 57.7063C172.165 57.6156 172.069 57.4966 172.002 57.3592C171.936 57.2218 171.902 57.07 171.904 56.9163C171.901 56.7607 171.93 56.6063 171.987 56.4625C172.045 56.3188 172.13 56.1888 172.237 56.0805C172.342 55.9752 172.47 55.8972 172.609 55.853C172.749 55.8088 172.896 55.7996 173.04 55.8262C173.302 55.8684 173.546 55.9919 173.739 56.1807C173.946 56.3709 174.082 56.6315 174.122 56.9161C174.139 57.0658 174.117 57.2173 174.058 57.3553C174 57.4932 173.907 57.6125 173.79 57.7009C173.565 57.844 173.303 57.9131 173.04 57.899V57.899Z" fill="#111111"/>
<path d="M174.531 60.4028C174.05 60.4867 173.564 60.543 173.077 60.5714C172.816 60.5833 172.552 60.5974 172.285 60.5903C172.018 60.5839 171.75 60.5475 171.491 60.5222L171.465 60.5196C171.45 60.5181 171.435 60.5136 171.422 60.5062C171.408 60.4988 171.396 60.4887 171.386 60.4765C171.377 60.4643 171.369 60.4502 171.365 60.4351C171.36 60.4199 171.359 60.404 171.36 60.3882L171.361 60.3861C171.398 60.094 171.418 59.7999 171.422 59.5053C171.404 59.1978 171.446 58.8896 171.545 58.5994C171.663 58.2868 171.867 58.0176 172.132 57.8263C172.397 57.635 172.711 57.5302 173.034 57.5253C173.356 57.5204 173.673 57.6156 173.943 57.7988C174.214 57.982 174.426 58.2448 174.552 58.5538C174.673 58.8602 174.709 59.1963 174.655 59.5231C174.623 59.8456 174.571 60.1459 174.531 60.4028ZM174.499 60.3693L174.375 59.4876C174.362 59.2273 174.293 58.9733 174.174 58.7438C174.053 58.5289 173.882 58.3482 173.678 58.2175C173.474 58.0868 173.242 58.0101 173.003 57.994C172.752 57.9874 172.504 58.0489 172.283 58.1723C172.061 58.2957 171.875 58.4769 171.741 58.698C171.601 58.9408 171.538 59.2232 171.561 59.5053C171.565 59.7999 171.585 60.094 171.622 60.386L171.491 60.2499C171.736 60.2247 171.973 60.1883 172.21 60.1819C172.447 60.1747 172.687 60.1888 172.929 60.2007C173.417 60.2313 173.925 60.2925 174.499 60.3693Z" fill="#111111"/>
<path d="M137.567 73.8261L137.478 74.3572L137.989 74.4504L138.078 73.9194L137.567 73.8261Z" fill="#111111"/>
<path d="M156.296 77.7805L155.279 77.5956L155.368 77.0646L156.385 77.2495L156.296 77.7805ZM154.261 77.4107L153.244 77.2258L153.333 76.6947L154.35 76.8796L154.261 77.4107ZM152.227 77.0409L151.21 76.8559L151.299 76.3249L152.316 76.5098L152.227 77.0409ZM150.193 76.671L149.176 76.4856L149.265 75.9545L150.282 76.1399L150.193 76.671ZM148.159 76.3006L147.142 76.1157L147.231 75.5847L148.248 75.7696L148.159 76.3006ZM146.125 75.9308L145.108 75.7459L145.197 75.2148L146.214 75.3997L146.125 75.9308ZM144.09 75.5609L143.073 75.376L143.162 74.845L144.179 75.0299L144.09 75.5609ZM142.056 75.1906L141.039 75.0057L141.128 74.4746L142.145 74.6595L142.056 75.1906ZM140.022 74.8207L139.005 74.6358L139.094 74.1047L140.111 74.2897L140.022 74.8207Z" fill="#111111"/>
<path d="M157.404 77.434L157.314 77.965L157.825 78.0583L157.914 77.5272L157.404 77.434Z" fill="#111111"/>
<path d="M135.895 75.6784L135.786 76.2063L136.294 76.319L136.402 75.7912L135.895 75.6784Z" fill="#111111"/>
<path d="M154.084 80.2608L153.095 80.0416L153.204 79.5138L154.192 79.7329L154.084 80.2608ZM152.107 79.823L151.119 79.6038L151.227 79.0759L152.215 79.2951L152.107 79.823ZM150.131 79.3847L149.142 79.166L149.25 78.6381L150.239 78.8568L150.131 79.3847ZM148.154 78.9469L147.166 78.7277L147.274 78.1998L148.262 78.419L148.154 78.9469ZM146.177 78.5085L145.189 78.2899L145.297 77.762L146.285 77.9806L146.177 78.5085ZM144.201 78.0707L143.212 77.8516L143.32 77.3237L144.309 77.5428L144.201 78.0707ZM142.224 77.6329L141.236 77.4138L141.344 76.8859L142.332 77.105L142.224 77.6329ZM140.247 77.1946L139.259 76.9754L139.367 76.4475L140.356 76.6667L140.247 77.1946ZM138.271 76.7568L137.282 76.5376L137.391 76.0097L138.379 76.2289L138.271 76.7568Z" fill="#111111"/>
<path d="M155.18 79.9516L155.072 80.4795L155.579 80.5922L155.688 80.0643L155.18 79.9516Z" fill="#111111"/>
<path d="M137.492 78.7879C138.379 78.8404 139.256 78.9942 140.11 79.2467C140.97 79.4762 141.802 79.8046 142.592 80.2259C141.705 80.1745 140.828 80.0206 139.974 79.767C139.115 79.5364 138.283 79.208 137.492 78.7879V78.7879Z" fill="#111111"/>
</svg>
