<svg width="288" height="244" viewBox="0 0 288 244" fill="none" xmlns="http://www.w3.org/2000/svg">
<path opacity="0.5" fill-rule="evenodd" clip-rule="evenodd" d="M168.555 0.19022C135.753 3.01135 123.827 42.0532 103.767 68.1779C84.5077 93.2587 55.0665 113.774 57.1 145.339C59.4519 181.847 81.8304 215.806 114.353 232.513C147.771 249.68 187.876 246.653 221.43 229.754C254.251 213.224 279.373 182.823 285.124 146.507C290.486 112.648 270.35 82.4926 248.995 55.6877C227.635 28.8765 202.694 -2.74586 168.555 0.19022Z" fill="white"/>
<path d="M205.413 149.373C205.315 149.373 205.217 149.367 205.119 149.361C205.407 147.67 205.706 145.972 206.102 144.269C206.481 145.909 206.775 147.537 207.05 149.171C206.514 149.299 205.964 149.366 205.413 149.373V149.373Z" fill="#111111"/>
<path d="M207.263 150.42C207.252 151.398 207.252 152.376 207.252 153.354C207.252 154.424 207.257 155.5 207.252 156.571V187.313C206.901 189.367 206.562 191.415 206.102 193.464C205.642 191.415 205.303 189.367 204.953 187.313V153.498C204.953 152.474 204.953 151.444 204.941 150.42C204.982 150.19 205.016 149.965 205.056 149.735C205.748 149.817 206.448 149.803 207.137 149.695C207.183 149.937 207.223 150.178 207.263 150.42Z" fill="#111111"/>
<path d="M168.256 98.429C168.256 98.429 168.377 98.6419 168.613 98.9757L168.601 98.9872L166.911 100.8C166.222 101.289 165.532 101.778 164.791 102.215C165.182 101.45 165.624 100.73 166.061 100.006L167.343 98.6419C167.9 98.5269 168.256 98.429 168.256 98.429Z" fill="#111111"/>
<path d="M178.354 87.727C177.958 88.4865 177.515 89.2115 177.078 89.9307L175.383 91.7431L175.073 92.0711C174.659 91.9328 174.237 91.8232 173.808 91.7431L174.544 90.9549L176.239 89.1424C176.929 88.659 177.619 88.1758 178.354 87.727Z" fill="#111111"/>
<path d="M197.141 101.666C197.23 101.467 197.367 101.293 197.54 101.159C197.67 101.062 197.822 100.998 197.982 100.975C198.142 100.953 198.306 100.973 198.456 101.033C198.657 101.114 198.835 101.244 198.972 101.413H198.974L198.981 101.423L198.974 101.434L198.975 101.434C198.887 101.632 198.749 101.805 198.575 101.935C198.446 102.032 198.293 102.094 198.133 102.115C197.972 102.134 197.808 102.112 197.658 102.052C197.456 101.968 197.279 101.835 197.141 101.666V101.666Z" fill="#111111"/>
<path d="M173.73 104.78L161.154 106.336C156.962 106.851 152.768 107.352 148.573 107.84C140.181 108.805 131.796 109.827 123.399 110.737L98.2133 113.533L73.0137 116.197L73.0106 116.197C72.941 116.204 72.8707 116.197 72.804 116.176C69.2113 115.01 65.6146 113.857 62.0318 112.66L51.2738 109.1C47.6854 107.92 44.1029 106.722 40.5263 105.506L29.796 101.859L40.6472 105.128C44.2641 106.218 47.8754 107.326 51.4812 108.451L62.3046 111.807C65.9156 112.915 69.5128 114.067 73.1138 115.207L72.9043 115.186L98.0902 112.394L123.29 109.734C131.688 108.825 140.097 108.029 148.501 107.176C152.703 106.747 156.907 106.339 161.113 105.952L173.73 104.78Z" fill="#111111"/>
<path d="M29.7943 107.22C33.3552 108.461 36.8937 109.761 40.4428 111.033L51.0542 114.943L56.3576 116.904L61.644 118.909L72.2168 122.919L71.9468 122.887C76.9854 122.205 82.0341 121.603 87.0789 120.97L102.217 119.1L117.368 117.332C122.423 116.777 127.475 116.2 132.535 115.69C127.51 116.471 122.475 117.185 117.444 117.922L102.336 120.03L87.215 122.034C82.1735 122.693 77.1358 123.383 72.0881 123.993L72.0818 123.994C71.9924 124.004 71.9018 123.993 71.8179 123.96L61.2792 119.861L56.0098 117.811L50.7574 115.717L40.2573 111.517C36.7692 110.086 33.2705 108.683 29.7943 107.22Z" fill="#111111"/>
<path d="M71.5894 174.968C71.4815 170.023 71.4468 165.08 71.4851 160.138C71.5076 155.196 71.5973 150.256 71.7 145.316C71.824 140.376 71.9626 135.436 72.1682 130.499C72.3573 125.561 72.6209 120.624 72.9589 115.69C73.0682 120.635 73.1035 125.578 73.0649 130.52C73.0421 135.462 72.9524 140.402 72.8483 145.342C72.7227 150.282 72.5842 155.221 72.3784 160.159C72.1887 165.097 71.9257 170.033 71.5894 174.968Z" fill="#111111"/>
<path d="M225.747 62.4312C225.04 62.1148 224.391 61.6815 223.828 61.1496C223.269 60.6017 222.786 59.9819 222.391 59.3064C222.003 58.6273 221.682 57.912 221.433 57.1707C221.181 56.4215 221 55.6505 220.891 54.8678C220.886 54.8319 220.887 54.7956 220.894 54.76L220.906 54.6954C221.083 53.8911 221.174 53.0702 221.178 52.2466C221.184 51.4264 221.097 50.6083 220.92 49.8075C220.568 48.2116 219.905 46.7007 218.97 45.3607L219.033 45.4272C218.039 44.4755 216.931 43.6497 215.736 42.9685C214.522 42.3017 213.205 41.8457 211.839 41.62C209.037 41.2657 206.195 41.8245 203.735 43.2136C203.116 43.5449 202.52 43.916 201.95 44.3245C201.665 44.5279 201.386 44.7384 201.118 44.9577C200.992 45.062 200.833 45.1915 200.749 45.2793C200.642 45.3946 200.533 45.5292 200.427 45.6597C199.604 46.7568 198.985 47.9927 198.598 49.3087C198.209 50.6181 198.004 51.9756 197.991 53.3417C198.005 54.7123 198.169 56.0772 198.481 57.412C198.501 57.5074 198.503 57.6058 198.486 57.7018C198.356 58.4213 198.215 59.1251 198.056 59.8361C197.904 60.5605 197.712 61.2757 197.48 61.9785C197.372 62.3075 197.114 62.8819 197.172 62.7623C197.148 62.7212 197.185 62.8291 197.387 62.9706C197.848 63.2514 198.374 63.4067 198.914 63.4214L198.968 63.4193C199.089 63.4151 199.209 63.4405 199.317 63.4934C199.426 63.5462 199.52 63.6248 199.591 63.7223C200.396 64.8385 201.248 65.9392 202.093 67.0295C202.916 68.112 203.81 69.1393 204.768 70.1047C204.886 70.2124 205.004 70.314 205.12 70.4023C205.175 70.441 205.233 70.4824 205.28 70.5109L205.344 70.5466C205.363 70.5568 205.359 70.5497 205.366 70.558C205.389 70.5706 205.316 70.5457 205.296 70.566C205.279 70.5767 205.353 70.5542 205.377 70.5501C205.453 70.5343 205.527 70.5146 205.6 70.4911C205.751 70.449 205.908 70.3935 206.063 70.3411C206.692 70.109 207.302 69.8268 207.886 69.497C209.082 68.881 210.111 67.9843 210.886 66.8836L210.905 66.8547C210.92 66.8304 210.941 66.8094 210.964 66.793C210.988 66.7765 211.015 66.7649 211.043 66.7587C211.071 66.7526 211.1 66.7521 211.129 66.7572C211.157 66.7624 211.184 66.7731 211.208 66.7887L211.232 66.8064C211.576 67.0977 211.896 67.4162 212.189 67.7589C212.338 67.9303 212.471 68.1146 212.586 68.3097C212.711 68.5055 212.797 68.7238 212.839 68.9524C212.842 68.9701 212.838 68.9882 212.828 69.0029C212.818 69.0177 212.802 69.0282 212.785 69.0322C212.767 69.0363 212.749 69.0336 212.734 69.0248C212.718 69.016 212.706 69.0016 212.701 68.9846L212.7 68.9803C212.536 68.5916 212.281 68.2482 211.956 67.9791C211.644 67.6879 211.308 67.4222 210.953 67.1844L211.299 67.1071C210.606 68.3934 209.589 69.4762 208.349 70.2482C207.746 70.6516 207.112 71.0055 206.453 71.3067C206.282 71.3786 206.116 71.455 205.934 71.5167C205.847 71.55 205.755 71.5809 205.656 71.6085C205.6 71.6276 205.543 71.6423 205.484 71.6523C205.375 71.6695 205.264 71.668 205.155 71.6479C204.91 71.5908 204.677 71.4866 204.471 71.3411C204.302 71.2279 204.149 71.1106 204.002 70.9919C202.931 70.0427 201.937 69.0105 201.028 67.905C200.106 66.8367 199.246 65.7344 198.386 64.6128L199.063 64.9134C198.612 64.9417 198.16 64.8927 197.726 64.7683C197.298 64.6584 196.892 64.4768 196.526 64.2312C196.301 64.0821 196.104 63.8932 195.947 63.6737C195.742 63.3949 195.638 63.055 195.65 62.7092C195.654 62.5403 195.688 62.3735 195.751 62.2166L195.832 62.0135L195.875 61.9158C195.935 61.7908 195.991 61.6315 196.045 61.4795C196.468 60.1518 196.818 58.8021 197.094 57.4363L197.099 57.7258C196.802 56.2735 196.667 54.7928 196.696 53.3106C196.755 51.8218 197.047 50.3515 197.56 48.9528C197.685 48.6037 197.845 48.2667 197.993 47.9276C198.171 47.6011 198.321 47.2619 198.523 46.9496C198.896 46.308 199.334 45.7062 199.83 45.1535C199.958 45.0154 200.082 44.8809 200.227 44.7442C200.373 44.6185 200.526 44.5006 200.685 44.3909C200.983 44.1786 201.287 43.9793 201.595 43.7883C202.211 43.4046 202.854 43.0716 203.502 42.753C206.102 41.4435 209.003 40.8496 211.908 41.0323C213.374 41.1557 214.81 41.524 216.155 42.122C217.502 42.7302 218.751 43.5373 219.859 44.5163C219.88 44.5347 219.9 44.5549 219.917 44.5766L219.922 44.5829C220.49 45.3103 220.962 46.1076 221.327 46.9551C221.696 47.7878 221.968 48.6604 222.137 49.5557C222.322 50.449 222.392 51.3623 222.346 52.2735C222.306 53.1813 222.164 54.0816 221.924 54.9578L221.939 54.7857C221.994 55.5048 222.114 56.2173 222.297 56.9146C222.475 57.6221 222.717 58.3121 223.018 58.9762C223.324 59.6394 223.711 60.2625 224.168 60.8314C224.641 61.401 225.196 61.8974 225.813 62.3046L225.818 62.3076C225.833 62.3178 225.843 62.3331 225.847 62.3505C225.851 62.368 225.848 62.3863 225.839 62.4018C225.83 62.4174 225.816 62.429 225.799 62.4345C225.782 62.4399 225.764 62.4388 225.747 62.4313L225.747 62.4312Z" fill="#111111"/>
<path d="M199.759 61.6254C199.635 61.6256 199.513 61.5933 199.405 61.5317C199.297 61.4701 199.207 61.3813 199.144 61.2742L197.176 57.9321C197.128 57.8513 197.096 57.7619 197.083 57.6689C197.069 57.5759 197.075 57.4812 197.098 57.3902C197.121 57.2992 197.162 57.2137 197.219 57.1386C197.275 57.0635 197.346 57.0003 197.426 56.9525C197.507 56.9048 197.597 56.8735 197.689 56.8604C197.782 56.8473 197.877 56.8526 197.968 56.8762C198.059 56.8998 198.144 56.941 198.219 56.9976C198.294 57.0543 198.357 57.1251 198.404 57.2061L200.373 60.5482C200.437 60.6566 200.471 60.7801 200.472 60.906C200.473 61.0319 200.441 61.1558 200.378 61.2651C200.316 61.3745 200.226 61.4654 200.117 61.5287C200.009 61.5919 199.885 61.6253 199.759 61.6254V61.6254Z" fill="#111111"/>
<path d="M198.222 58.6597C198.146 58.6596 198.073 58.6353 198.011 58.5903C197.95 58.5453 197.905 58.482 197.882 58.4096C197.859 58.3371 197.86 58.2593 197.885 58.1873C197.909 58.1154 197.956 58.0531 198.018 58.0096C199.053 57.287 208.189 50.9641 210.132 51.0422C210.179 51.0443 210.225 51.0557 210.267 51.0756C210.31 51.0955 210.348 51.1236 210.379 51.1582C210.411 51.1928 210.435 51.2334 210.451 51.2775C210.467 51.3216 210.474 51.3684 210.472 51.4153C210.467 51.5094 210.425 51.5977 210.355 51.6613C210.285 51.7249 210.194 51.7588 210.1 51.7558C210.091 51.7552 210.082 51.7552 210.072 51.7552C208.726 51.7552 202.232 55.9379 198.426 58.5951C198.366 58.637 198.295 58.6595 198.222 58.6597V58.6597Z" fill="#111111"/>
<path d="M209.089 53.1128C209.076 52.5796 209.248 52.0583 209.574 51.6367C209.672 51.5221 209.793 51.4284 209.928 51.3612C210.063 51.294 210.211 51.2546 210.361 51.2453L210.591 51.2417C210.664 51.2501 210.733 51.2713 210.805 51.2866C210.945 51.3137 211.08 51.3612 211.206 51.4275C211.454 51.5411 211.689 51.6822 211.905 51.8484C212.102 52.0227 212.31 52.1813 212.499 52.3719C212.877 52.7577 213.189 53.2029 213.422 53.6897C213.869 54.6694 213.995 55.7653 213.784 56.8213C213.688 57.3465 213.484 57.8462 213.186 58.2889C213.033 58.5188 212.823 58.7045 212.576 58.8278C212.453 58.8901 212.313 58.9097 212.177 58.8835C212.042 58.8573 211.919 58.7867 211.828 58.6829C211.926 58.7467 212.042 58.7783 212.159 58.7733C212.276 58.7683 212.388 58.7269 212.48 58.6548C212.658 58.5084 212.797 58.3207 212.886 58.1081C213.079 57.6748 213.197 57.2115 213.233 56.7384C213.325 55.7986 213.167 54.8512 212.776 53.9919C212.582 53.5694 212.324 53.1795 212.011 52.8359C211.858 52.6595 211.676 52.5009 211.509 52.3305C211.336 52.1809 211.151 52.0448 210.957 51.9233C210.797 51.7921 210.598 51.7175 210.392 51.7113C210.185 51.705 209.982 51.7673 209.815 51.8886C209.464 52.2214 209.213 52.6452 209.089 53.1128Z" fill="#111111"/>
<path d="M200.424 66.3049C200.97 66.2443 201.511 66.1422 202.042 65.9996C202.286 65.9317 202.522 65.8393 202.747 65.7238C202.989 65.6137 203.215 65.4587 203.51 65.3087C203.462 65.6318 203.314 65.9315 203.086 66.1655C202.858 66.4113 202.568 66.5904 202.247 66.6834C201.931 66.7761 201.597 66.7919 201.274 66.7295C200.955 66.6753 200.659 66.5276 200.424 66.3049V66.3049Z" fill="#111111"/>
<path d="M198.222 56.1773C198.196 55.6879 198.356 55.2069 198.669 54.8303C198.981 54.4423 199.391 54.1459 199.857 53.9723C200.308 53.8061 200.788 53.7293 201.268 53.7463C201.501 53.7637 201.733 53.7936 201.963 53.8358C202.188 53.8939 202.41 53.9672 202.626 54.0553C202.404 54.1123 202.18 54.156 201.953 54.1864C201.735 54.2264 201.521 54.274 201.309 54.302C200.902 54.382 200.502 54.4944 200.113 54.6383C199.324 54.9174 198.656 55.4612 198.222 56.1773V56.1773Z" fill="#111111"/>
<path d="M201.214 59.2292C201.422 59.222 201.619 59.1342 201.764 58.9844C201.908 58.8345 201.989 58.6342 201.989 58.4258C201.989 58.2175 201.908 58.0172 201.764 57.8673C201.619 57.7175 201.422 57.6297 201.214 57.6225C201.006 57.6297 200.809 57.7175 200.664 57.8673C200.519 58.0172 200.439 58.2175 200.439 58.4258C200.439 58.6342 200.519 58.8345 200.664 58.9844C200.809 59.1342 201.006 59.222 201.214 59.2292V59.2292Z" fill="#111111"/>
<path d="M217.392 79.5924C216.576 78.9118 215.65 78.3754 214.654 78.0062C213.671 77.6374 212.652 77.3763 211.613 77.2275C210.568 77.0703 209.514 76.9834 208.457 76.9675L206.856 76.975C206.321 76.9994 205.784 77.0261 205.237 77.0216C205.757 76.8697 206.287 76.7491 206.819 76.6263C207.355 76.5448 207.895 76.4625 208.439 76.4106C209.534 76.3226 210.636 76.3601 211.723 76.5224C212.819 76.683 213.884 77.0125 214.88 77.4991C215.883 77.9689 216.748 78.6898 217.392 79.5924V79.5924Z" fill="#111111"/>
<path d="M177.362 108.889C177.667 107.877 178.072 106.898 178.571 105.967C179.058 105.024 179.628 104.127 180.275 103.287C180.917 102.431 181.668 101.663 182.508 101.001C183.34 100.322 184.325 99.8561 185.378 99.645C184.456 100.106 183.61 100.707 182.87 101.425C182.131 102.134 181.452 102.903 180.839 103.723C179.573 105.345 178.49 107.111 177.362 108.889Z" fill="#111111"/>
<path d="M202.626 119.869C202.947 119.951 203.281 119.968 203.609 119.919C203.934 119.883 204.254 119.81 204.563 119.702L205.019 119.522C205.169 119.458 205.308 119.369 205.453 119.295C205.74 119.14 206.015 118.963 206.275 118.765C207.319 117.971 208.248 117.037 209.037 115.988C209.419 115.453 209.807 114.921 210.172 114.374C210.514 113.811 210.882 113.264 211.204 112.688L212.16 110.953L213.031 109.17C214.183 106.774 215.309 104.351 216.5 101.968L218.282 98.3894C218.899 97.2084 219.495 96.0168 220.131 94.8462C219.639 96.0891 219.106 97.3111 218.596 98.5438L216.994 102.206C215.92 104.646 214.817 107.064 213.675 109.477C212.561 111.929 211.146 114.232 209.462 116.332C208.597 117.375 207.589 118.292 206.469 119.054C206.183 119.237 205.883 119.398 205.572 119.535C205.415 119.6 205.265 119.679 205.104 119.734L204.617 119.882C203.967 120.08 203.273 120.075 202.626 119.869V119.869Z" fill="#111111"/>
<path d="M201.967 103.773C201.924 103.773 201.882 103.765 201.842 103.75L198.649 102.55C198.561 102.516 198.489 102.449 198.451 102.363C198.412 102.277 198.409 102.179 198.442 102.091C198.475 102.002 198.542 101.931 198.628 101.891C198.713 101.852 198.811 101.849 198.9 101.881L202.092 103.082C202.171 103.111 202.236 103.167 202.277 103.24C202.318 103.313 202.333 103.397 202.318 103.48C202.303 103.562 202.26 103.636 202.195 103.69C202.131 103.744 202.051 103.773 201.967 103.773V103.773Z" fill="#111111"/>
<path d="M175.746 102.884C174.978 103.124 174.164 103.177 173.372 103.04C172.568 102.894 171.797 102.6 171.1 102.173C170.409 101.751 169.772 101.245 169.205 100.665C168.637 100.08 168.132 99.4368 167.7 98.7451L168.425 99.0466C166.952 99.4249 165.433 99.5893 163.913 99.5346C163.136 99.5222 162.365 99.3913 161.627 99.1462C161.233 99.0124 160.884 98.7715 160.619 98.4504C160.481 98.2855 160.376 98.0958 160.31 97.8913C160.261 97.6757 160.261 97.4519 160.309 97.2362C160.416 96.8418 160.625 96.4823 160.914 96.1935C161.17 95.9077 161.452 95.6455 161.755 95.4103C162.343 94.9373 162.961 94.5038 163.606 94.1126C164.876 93.3258 166.2 92.6291 167.567 92.0276C168.255 91.7451 168.9 91.4154 169.691 91.1724C170.461 90.9374 171.261 90.8123 172.067 90.801C172.863 90.7976 173.655 90.9041 174.422 91.1176C175.18 91.3072 175.917 91.5734 176.622 91.9121C177.994 92.5836 179.266 93.4438 180.401 94.4678C181.53 95.4568 182.533 96.5825 183.386 97.8189C183.396 97.8332 183.4 97.8506 183.398 97.8679C183.396 97.8851 183.388 97.9011 183.375 97.9127C183.362 97.9244 183.345 97.931 183.328 97.9312C183.311 97.9315 183.294 97.9254 183.281 97.9141L183.277 97.9112C181.134 95.9679 178.694 94.382 176.048 93.2139C175.411 92.942 174.748 92.7348 174.069 92.5954C173.413 92.4183 172.738 92.3254 172.059 92.3191C171.389 92.2981 170.719 92.3687 170.068 92.5288C169.438 92.6812 168.743 92.981 168.056 93.224C166.692 93.7451 165.317 94.2403 163.985 94.8241C163.325 95.1189 162.687 95.4591 162.074 95.8424C161.78 96.038 161.504 96.2605 161.251 96.5069C161.008 96.7316 160.829 97.0164 160.731 97.3325C160.692 97.4793 160.694 97.634 160.736 97.7799C160.778 97.9257 160.86 98.0574 160.971 98.1606C161.187 98.4044 161.475 98.5719 161.794 98.6382C162.482 98.7782 163.188 98.7968 163.883 98.6933C165.298 98.4722 166.702 98.1778 168.087 97.8112C168.224 97.7794 168.368 97.7914 168.498 97.8454C168.628 97.8995 168.738 97.993 168.813 98.1128C169.188 98.7254 169.616 99.304 170.091 99.8419C170.563 100.392 171.089 100.892 171.662 101.335C172.232 101.777 172.865 102.13 173.541 102.38C174.24 102.632 174.979 102.755 175.721 102.743C175.741 102.742 175.759 102.75 175.773 102.763C175.787 102.776 175.795 102.794 175.795 102.813C175.795 102.829 175.791 102.844 175.782 102.856C175.773 102.869 175.76 102.878 175.746 102.884V102.884Z" fill="#111111"/>
<path d="M187.808 153.106L189.41 157.024C189.417 157.042 189.419 157.061 189.416 157.081C189.412 157.1 189.403 157.117 189.39 157.131C189.376 157.146 189.359 157.155 189.34 157.16C189.321 157.164 189.301 157.163 189.283 157.157L189.277 157.154C188.473 156.84 187.631 156.635 186.773 156.543C185.919 156.471 185.06 156.536 184.226 156.733C182.569 157.201 181.064 158.096 179.862 159.329C178.644 160.556 177.593 161.938 176.736 163.439C175.855 164.928 175.115 166.497 174.524 168.123L174.523 168.127C174.503 168.182 174.466 168.23 174.418 168.265C174.37 168.299 174.313 168.318 174.254 168.318C174.195 168.319 174.137 168.302 174.088 168.269C174.039 168.236 174.002 168.188 173.98 168.133L170.87 160.089L167.812 152.025L168.38 151.887L169.474 163.039C169.828 166.757 170.213 170.472 170.6 174.187C170.603 174.212 170.598 174.236 170.585 174.258C169.745 175.582 168.473 176.574 166.986 177.067C165.529 177.57 164.006 177.855 162.466 177.913C160.934 177.986 159.398 177.951 157.871 177.806C156.342 177.669 154.823 177.441 153.321 177.124C153.285 177.116 153.253 177.098 153.228 177.071C153.203 177.045 153.186 177.011 153.18 176.975L153.18 176.97C152.306 171.33 151.572 165.672 150.979 159.995C150.402 154.318 149.962 148.622 149.814 142.907C149.803 141.477 149.789 140.047 149.81 138.617L149.881 136.47L149.921 135.397L150.009 134.325L150.19 132.18L150.514 130.044C150.627 129.33 150.783 128.624 150.982 127.929C151.073 127.579 151.153 127.226 151.254 126.879L151.635 125.859L152.021 124.841C152.181 124.515 152.357 124.196 152.525 123.873C152.698 123.553 152.855 123.224 153.043 122.913L153.671 122.017C154.093 121.422 154.564 120.864 155.08 120.348C155.339 120.091 155.612 119.849 155.898 119.623C156.168 119.377 156.457 119.154 156.764 118.957L157.682 118.362L158.66 117.875C158.989 117.719 159.326 117.583 159.671 117.468C160.01 117.336 160.357 117.227 160.711 117.144C162.117 116.758 163.579 116.619 165.033 116.731L164.799 116.864C165.103 116.208 165.48 115.588 165.922 115.015C166.375 114.455 166.888 113.945 167.45 113.494C168.591 112.626 169.875 111.965 171.244 111.542C172.601 111.123 173.999 110.855 175.414 110.744C176.823 110.621 178.239 110.625 179.647 110.757C179.656 110.758 179.665 110.763 179.671 110.77C179.677 110.777 179.68 110.787 179.679 110.796C179.678 110.805 179.673 110.814 179.665 110.82C179.658 110.826 179.649 110.829 179.639 110.828C178.237 110.738 176.829 110.774 175.434 110.938C174.041 111.088 172.67 111.392 171.344 111.843C170.023 112.277 168.786 112.938 167.691 113.796C167.16 114.235 166.678 114.73 166.253 115.273C165.841 115.824 165.492 116.419 165.212 117.047C165.193 117.089 165.162 117.124 165.122 117.148C165.083 117.172 165.037 117.183 164.991 117.181L164.979 117.18C162.173 117.022 159.397 117.817 157.1 119.436C154.859 121.119 153.185 123.448 152.304 126.11L151.938 127.094C151.842 127.43 151.766 127.774 151.678 128.113C151.486 128.789 151.336 129.476 151.228 130.171L150.916 132.263L150.744 134.38L150.659 135.438L150.623 136.502L150.558 138.63C150.539 140.049 150.564 141.471 150.568 142.892C150.673 148.578 151.082 154.263 151.606 159.934C152.12 165.606 152.767 171.266 153.549 176.913L153.407 176.76C154.889 177.097 156.389 177.346 157.9 177.507C159.411 177.678 160.933 177.729 162.452 177.661C163.969 177.612 165.47 177.341 166.908 176.855C168.351 176.393 169.583 175.431 170.382 174.142L170.368 174.212C169.957 170.5 169.543 166.788 169.099 163.079L167.794 151.951C167.786 151.879 167.804 151.808 167.845 151.749C167.886 151.69 167.946 151.648 168.016 151.631C168.085 151.613 168.159 151.622 168.222 151.655C168.286 151.688 168.335 151.743 168.361 151.81L168.362 151.813L171.469 159.859L174.52 167.926L173.977 167.936C174.592 166.277 175.361 164.679 176.273 163.162C177.173 161.634 178.275 160.235 179.55 159.002C180.826 157.743 182.41 156.841 184.144 156.388C185.017 156.197 185.916 156.154 186.803 156.26C187.681 156.381 188.539 156.619 189.354 156.967L189.221 157.098L187.742 153.132C187.738 153.123 187.739 153.113 187.743 153.105C187.746 153.096 187.753 153.089 187.762 153.086C187.771 153.083 187.781 153.083 187.789 153.086C187.798 153.09 187.805 153.097 187.808 153.106H187.808Z" fill="#111111"/>
<path d="M168.087 151.919L168.722 157.803L164.792 135.487L169.086 154.525L168.087 151.919Z" fill="#111111"/>
<path d="M197.203 120.49C189.272 120.49 166.065 117.455 164.959 117.31C164.913 117.304 164.868 117.289 164.827 117.265C164.787 117.242 164.751 117.211 164.722 117.174C164.694 117.136 164.673 117.094 164.66 117.049C164.648 117.003 164.645 116.956 164.651 116.909C164.657 116.863 164.672 116.818 164.696 116.777C164.719 116.736 164.751 116.701 164.788 116.672C164.825 116.644 164.868 116.623 164.913 116.611C164.958 116.599 165.006 116.596 165.052 116.602C165.356 116.641 195.485 120.579 199.237 119.638C199.282 119.627 199.33 119.624 199.376 119.631C199.423 119.638 199.467 119.653 199.507 119.677C199.548 119.701 199.583 119.733 199.611 119.771C199.639 119.809 199.659 119.851 199.671 119.897C199.682 119.943 199.685 119.99 199.678 120.036C199.671 120.083 199.655 120.128 199.631 120.168C199.607 120.208 199.575 120.243 199.537 120.271C199.499 120.299 199.456 120.319 199.411 120.33C198.683 120.462 197.942 120.515 197.203 120.49V120.49Z" fill="#111111"/>
<path d="M251.287 81.3058C251.287 81.3058 225.608 75.3103 219.275 105.989C212.941 136.663 211.326 134.436 211.326 134.436C199.769 151.208 177.228 140.92 172.113 138.28C171.532 137.964 170.869 137.834 170.212 137.904C169.555 137.975 168.935 138.245 168.435 138.676C167.061 139.937 167.274 141.973 167.274 141.973L167.371 144.281C167.389 144.652 167.486 145.016 167.657 145.347C167.827 145.677 168.067 145.967 168.36 146.197C176.693 152.825 191.527 154.2 204.953 153.498C205.723 153.458 206.493 153.412 207.252 153.354C218.855 152.543 229.034 150.264 232.459 148.665C240.161 145.063 242.385 146.605 254.368 114.896C266.357 83.1929 251.287 81.3058 251.287 81.3058ZM256.397 89.758L256.391 89.7523C253.023 87.9153 249.147 87.2361 245.356 87.819C241.632 88.4462 238.373 90.6269 235.879 93.4289C234.621 94.8459 233.501 96.3794 232.534 98.0089C231.544 99.6438 230.665 101.343 229.902 103.095C228.396 106.634 227.138 110.273 226.137 113.987C225.649 115.851 225.137 117.721 224.7 119.608C224.47 120.552 224.2 121.484 223.959 122.422C223.718 123.36 223.459 124.292 223.195 125.224C222.218 128.988 221.007 132.688 219.568 136.3C219.206 137.204 218.769 138.078 218.35 138.958C217.878 139.821 217.447 140.696 216.913 141.519C215.904 143.216 214.698 144.789 213.321 146.202C211.939 147.648 210.236 148.746 208.349 149.407C207.954 149.536 207.548 149.632 207.137 149.695C206.448 149.803 205.748 149.817 205.056 149.735C204.185 149.628 203.347 149.338 202.596 148.884C202.59 148.88 202.584 148.874 202.58 148.868C202.575 148.862 202.572 148.855 202.57 148.847C202.569 148.84 202.569 148.832 202.57 148.824C202.572 148.817 202.575 148.81 202.579 148.803C202.586 148.792 202.597 148.783 202.609 148.779C202.622 148.774 202.636 148.775 202.648 148.78L202.654 148.786C203.428 149.142 204.267 149.338 205.119 149.361C205.217 149.367 205.315 149.373 205.413 149.373C205.964 149.366 206.514 149.299 207.051 149.171C207.425 149.083 207.793 148.971 208.154 148.838C209.889 148.106 211.436 146.993 212.683 145.581C213.96 144.175 215.085 142.638 216.039 140.995C216.545 140.184 216.976 139.327 217.436 138.492C217.844 137.624 218.315 136.789 218.694 135.909C220.335 132.419 221.718 128.813 222.833 125.121C223.407 123.274 223.85 121.392 224.304 119.516C224.741 117.629 225.103 115.736 225.528 113.838C226.319 110.021 227.45 106.284 228.907 102.669C230.346 98.9961 232.396 95.5935 234.971 92.6061C236.305 91.1208 237.864 89.8549 239.591 88.8547C241.329 87.8591 243.241 87.2049 245.224 86.9273C249.172 86.4797 253.15 87.4458 256.454 89.6544C256.46 89.6585 256.466 89.6639 256.47 89.6702C256.475 89.6765 256.478 89.6836 256.48 89.6911C256.481 89.6986 256.481 89.7063 256.48 89.7139C256.478 89.7214 256.476 89.7286 256.471 89.735C256.463 89.7467 256.452 89.7554 256.438 89.7596C256.424 89.7638 256.41 89.7632 256.397 89.758H256.397Z" fill="#111111"/>
<path d="M231.159 193.082C231.147 193.673 230.96 194.247 230.622 194.732C230.29 195.209 229.89 195.635 229.433 195.994C228.524 196.708 227.533 197.311 226.481 197.788C224.381 198.747 222.191 199.494 219.943 200.018C215.452 201.084 210.843 201.564 206.229 201.445C201.631 201.325 197.054 200.776 192.558 199.806C190.303 199.349 188.093 198.691 185.954 197.839C184.87 197.405 183.842 196.841 182.895 196.158C182.404 195.802 181.972 195.371 181.614 194.881C181.229 194.358 181.008 193.732 180.98 193.082C180.98 192.424 181.175 191.781 181.539 191.234C181.881 190.716 182.3 190.255 182.782 189.866C183.708 189.117 184.732 188.499 185.825 188.028C187.96 187.094 190.187 186.39 192.47 185.928C196.995 184.984 201.607 184.523 206.229 184.553C210.848 184.531 215.453 185.059 219.947 186.126C222.195 186.657 224.385 187.407 226.486 188.366C227.539 188.845 228.53 189.448 229.438 190.165C229.895 190.525 230.295 190.952 230.626 191.43C230.963 191.916 231.148 192.491 231.159 193.082V193.082ZM231.016 193.082C230.996 191.943 230.188 190.997 229.306 190.33C228.393 189.661 227.39 189.122 226.328 188.73C224.202 187.944 222.001 187.38 219.759 187.046C215.281 186.371 210.757 186.047 206.229 186.076C201.706 186.055 197.191 186.446 192.74 187.244C190.532 187.647 188.368 188.257 186.276 189.068C185.254 189.469 184.285 189.993 183.39 190.628C182.533 191.256 181.796 192.106 181.761 193.082C181.731 194.062 182.438 194.991 183.277 195.678C184.15 196.38 185.116 196.958 186.147 197.395C188.236 198.288 190.417 198.944 192.651 199.352C194.887 199.772 197.148 200.04 199.42 200.154C201.689 200.293 203.962 200.306 206.229 200.256C210.76 200.188 215.282 199.815 219.763 199.14C222.005 198.8 224.206 198.232 226.333 197.446C227.396 197.053 228.398 196.513 229.311 195.841C230.193 195.173 230.999 194.222 231.016 193.082Z" fill="#111111"/>
<path d="M169.188 175.717C169.563 176.403 169.841 177.139 170.012 177.903C170.21 178.657 170.362 179.42 170.493 180.187C170.747 181.72 170.955 183.261 171.099 184.807C171.166 185.588 171.242 186.336 171.279 187.144C171.298 187.959 171.16 188.771 170.871 189.534C170.726 189.919 170.535 190.285 170.303 190.624C170.068 190.952 169.812 191.264 169.535 191.557C168.982 192.142 168.345 192.64 167.645 193.034C166.251 193.797 164.71 194.252 163.125 194.368C162.341 194.437 161.552 194.418 160.772 194.313C160.381 194.265 159.993 194.185 159.615 194.072C159.239 193.956 158.878 193.824 158.512 193.692C155.583 192.626 152.92 191.005 150.039 189.899C147.178 188.757 144.225 187.795 141.389 186.502C139.941 185.881 138.566 185.102 137.288 184.181C136.643 183.698 136.061 183.135 135.556 182.507C135.267 182.153 135.08 181.727 135.016 181.274C134.983 181.041 134.988 180.805 135.032 180.574C135.083 180.35 135.162 180.135 135.267 179.931C135.707 179.197 136.357 178.612 137.133 178.251C137.861 177.888 138.645 177.649 139.452 177.544C139.852 177.49 140.255 177.464 140.658 177.466C141.058 177.482 141.471 177.513 141.838 177.542C142.591 177.606 143.36 177.606 144.127 177.595C147.201 177.533 150.285 177.235 153.359 176.907C153.368 176.906 153.378 176.908 153.385 176.914C153.393 176.92 153.398 176.928 153.399 176.938C153.4 176.947 153.397 176.956 153.392 176.963C153.387 176.97 153.379 176.976 153.37 176.977C150.322 177.562 147.241 177.955 144.145 178.153C143.366 178.186 142.586 178.208 141.796 178.164C141.391 178.142 141.031 178.128 140.659 178.121C140.289 178.131 139.919 178.165 139.554 178.224C138.828 178.341 138.125 178.569 137.469 178.902C136.836 179.202 136.305 179.682 135.943 180.282C135.795 180.562 135.736 180.88 135.774 181.194C135.812 181.508 135.945 181.802 136.156 182.038C136.624 182.616 137.157 183.137 137.744 183.592C138.965 184.5 140.282 185.271 141.671 185.892C144.451 187.207 147.359 188.262 150.193 189.539C151.612 190.167 152.991 190.883 154.37 191.584C155.728 192.317 157.141 192.944 158.595 193.459C159.305 193.74 160.049 193.929 160.807 194.021C161.565 194.089 162.329 194.073 163.084 193.973C164.59 193.794 166.041 193.3 167.343 192.522C167.982 192.138 168.564 191.666 169.072 191.121C169.589 190.597 170.001 189.981 170.289 189.303C170.561 188.618 170.698 187.887 170.693 187.15C170.671 186.41 170.607 185.615 170.553 184.853C170.434 183.313 170.321 181.772 170.123 180.242C169.998 178.707 169.663 177.197 169.127 175.753L169.125 175.75C169.121 175.741 169.121 175.732 169.124 175.724C169.127 175.715 169.133 175.708 169.141 175.704C169.149 175.7 169.158 175.699 169.167 175.701C169.176 175.703 169.183 175.709 169.188 175.717L169.188 175.717Z" fill="#111111"/>
<path d="M156.172 177.449C156.243 178.274 156.363 179.094 156.533 179.905C156.688 180.703 156.923 181.485 157.233 182.237C157.507 182.96 157.981 183.589 158.598 184.053C158.897 184.253 159.241 184.378 159.599 184.415C159.97 184.444 160.343 184.405 160.701 184.301C161.458 184.075 162.174 183.726 162.817 183.267C163.485 182.829 164.082 182.291 164.586 181.672C165.618 180.398 166.209 178.823 166.27 177.185C166.483 178.892 166.04 180.616 165.03 182.008C163.998 183.417 162.546 184.461 160.883 184.99C160.441 185.112 159.98 185.151 159.523 185.108C159.053 185.055 158.604 184.884 158.218 184.609C157.511 184.055 156.987 183.3 156.718 182.442C156.198 180.832 156.013 179.133 156.172 177.449V177.449Z" fill="#111111"/>
<path d="M143.863 181.955C143.668 181.503 143.602 181.006 143.672 180.518C143.731 180.017 143.911 179.537 144.196 179.12C144.479 178.703 144.858 178.36 145.301 178.12C145.514 178.001 145.74 177.906 145.975 177.836C146.209 177.777 146.448 177.739 146.688 177.723C146.503 177.889 146.309 178.008 146.131 178.15C145.96 178.302 145.772 178.418 145.621 178.576C145.543 178.652 145.464 178.724 145.383 178.793L145.17 179.029C145.027 179.181 144.899 179.346 144.786 179.521C144.309 180.258 143.995 181.087 143.863 181.955V181.955Z" fill="#111111"/>
<path d="M147.715 181.955C147.517 181.511 147.455 181.018 147.537 180.539C147.609 180.057 147.771 179.593 148.017 179.172C148.264 178.76 148.577 178.391 148.944 178.081C149.126 177.93 149.318 177.792 149.519 177.667C149.726 177.553 149.942 177.454 150.163 177.371C150.035 177.565 149.897 177.752 149.75 177.931L149.348 178.464C149.091 178.808 148.852 179.165 148.632 179.534C148.183 180.279 147.872 181.099 147.715 181.955V181.955Z" fill="#111111"/>
<path d="M154.427 195.395C153.092 194.96 151.803 194.39 150.582 193.695C148.5 192.503 144.862 190.453 143.834 190.053C140.596 188.782 136.752 187.468 135.367 185.34C133.007 181.713 135.366 179.839 135.366 179.839C136.113 183.83 140.782 186.068 147.458 188.639C154.135 191.21 154.962 192.424 159.527 193.909C161.953 194.702 167.452 194.231 170.042 190.439C170.226 190.169 170.384 189.882 170.512 189.582L170.987 185.855C174.491 199.768 159.563 197.059 154.427 195.395Z" fill="#111111"/>
<path d="M175.432 184.711C174.719 184.478 174.097 184.026 173.654 183.419C173.212 182.813 172.971 182.083 172.965 181.332C172.901 180.255 173.182 179.186 173.768 178.281C174.353 177.376 175.212 176.681 176.219 176.299C179.834 174.775 181.546 170.349 182.19 168.158C182.73 166.296 183.564 164.532 184.661 162.934C186.461 160.337 189.286 157.739 192.732 159.595C193.926 160.277 194.833 161.369 195.283 162.67C196.146 164.987 197.53 167.276 193.785 172.374C193.177 173.19 192.521 173.967 191.82 174.703C190.735 175.876 189.884 177.247 189.316 178.742C188.795 180.198 183.703 187.345 175.432 184.711Z" fill="#111111"/>
<path d="M176.115 163.973C176.476 165.822 176.474 167.723 176.107 169.57C175.762 171.43 175.121 173.223 174.208 174.88C173.753 175.695 173.252 176.484 172.708 177.243C172.467 177.612 172.276 178.012 172.14 178.432C172.022 178.859 171.973 179.302 171.995 179.745C171.994 180.657 172.157 181.561 172.476 182.415C172.616 182.851 172.867 183.243 173.205 183.552C173.542 183.861 173.955 184.076 174.401 184.177C173.928 184.138 173.48 183.951 173.12 183.642C172.765 183.324 172.479 182.937 172.278 182.504C171.88 181.641 171.651 180.709 171.604 179.76C171.561 179.275 171.589 178.787 171.686 178.31C171.798 177.834 171.976 177.376 172.215 176.95C172.704 176.116 173.188 175.383 173.599 174.555C174.446 172.937 175.088 171.22 175.511 169.444C175.956 167.656 176.16 165.816 176.115 163.973V163.973Z" fill="#111111"/>
<path d="M187.789 156.569C188.129 156.591 188.461 156.674 188.772 156.813C189.078 156.942 189.368 157.108 189.635 157.307C189.906 157.51 190.146 157.751 190.348 158.024C190.566 158.299 190.7 158.632 190.735 158.982C190.454 158.768 190.203 158.598 189.953 158.417L189.205 157.877C188.682 157.5 188.206 157.061 187.789 156.569V156.569Z" fill="#111111"/>
<path d="M178.579 109.856C178.58 109.867 178.579 109.878 178.576 109.889C178.572 109.899 178.567 109.909 178.56 109.917C178.553 109.926 178.545 109.933 178.535 109.938C178.525 109.944 178.515 109.947 178.504 109.948L155.567 113.17L133.152 116.22L133.301 140.903L133.371 153.51L133.405 166.116C133.406 166.325 133.331 166.528 133.195 166.686C133.059 166.845 132.87 166.949 132.664 166.979H132.658L102.192 171.444L71.7081 175.8H71.7023C71.5369 175.823 71.3682 175.795 71.2195 175.719L50.2592 165.253L29.3277 154.729H29.3219C29.2242 154.68 29.1422 154.605 29.0853 154.511C29.0283 154.417 28.9988 154.31 29 154.2L29.3219 128.032C29.4426 119.304 29.4541 110.581 29.5287 101.858C29.5293 101.792 29.5543 101.728 29.5988 101.68C29.6434 101.631 29.7044 101.6 29.7702 101.593L46.8223 99.7868L47.5292 99.7121L47.6844 99.6948C47.5925 99.9134 47.5005 100.132 47.4143 100.356L46.9142 100.408L30.0633 102.1C30.0691 110.748 30.0115 119.39 30.0633 128.032L30.1783 153.838L50.9202 163.918L71.7196 174.102L101.933 169.643L131.664 165.362L131.698 153.51L131.773 140.903L131.928 115.69V115.685C131.928 115.537 131.982 115.395 132.079 115.285C132.177 115.175 132.311 115.104 132.457 115.086L155.463 112.388L178.487 109.781C178.498 109.78 178.509 109.781 178.519 109.784C178.53 109.787 178.54 109.793 178.548 109.8C178.557 109.806 178.564 109.815 178.569 109.825C178.574 109.834 178.577 109.845 178.579 109.856V109.856Z" fill="#111111"/>
<path d="M48.3223 99.6257C48.4027 99.8329 48.489 100.04 48.5694 100.241C48.2591 100.27 47.9488 100.305 47.6384 100.333C47.7591 100.109 47.8798 99.8848 47.9947 99.6603L48.3223 99.6257Z" fill="#111111"/>
<path d="M48.7592 99.5796C49.2706 99.5279 49.7822 99.476 50.2936 99.4186C50.2017 99.6429 50.1097 99.8731 50.0178 100.097C49.6959 100.126 49.3741 100.161 49.0523 100.195C48.9546 99.9882 48.8568 99.7868 48.7592 99.5796Z" fill="#111111"/>
<path d="M50.8222 99.6372L50.9713 99.9992C50.868 100.011 50.7648 100.022 50.6673 100.034C50.7189 99.9014 50.7705 99.7693 50.8222 99.6372Z" fill="#111111"/>
<path d="M52.7938 99.1481H52.8511L52.5925 99.8444C52.2363 99.8788 51.8799 99.9134 51.5294 99.9479L51.2936 99.3093C51.7937 99.2575 52.2937 99.1999 52.7938 99.1481Z" fill="#111111"/>
<path d="M53.1614 99.4358L53.2819 99.7747C53.2016 99.7862 53.1154 99.7919 53.0352 99.7977L53.1614 99.4358Z" fill="#111111"/>
<path d="M55.334 99.0503L55.0984 99.6027L53.6501 99.7409L53.4489 99.1368C54.0754 99.1194 54.7075 99.0906 55.334 99.0503Z" fill="#111111"/>
<path d="M55.5067 99.108L55.6852 99.5461C55.5643 99.5576 55.4434 99.5691 55.3224 99.5805L55.5067 99.108Z" fill="#111111"/>
<path d="M201.016 93.7972C201.011 93.8183 200.998 93.8367 200.98 93.8484C200.962 93.8602 200.939 93.8645 200.918 93.8604L186.355 90.7823C181.527 89.7581 176.705 88.7205 171.889 87.6695L154.204 89.6544L136.451 91.5589L118.692 93.4577L100.927 95.2587C95.0017 95.8627 89.0762 96.4151 83.1509 96.9733L65.3687 98.6361C62.633 98.8894 59.8992 99.1464 57.1673 99.4072C56.7248 99.4473 56.2824 99.4876 55.8398 99.5337L55.6559 99.0273C56.1846 98.9872 56.7134 98.9411 57.2479 98.872C56.9318 98.8318 56.6099 98.7973 56.2937 98.7627C56.6271 98.7281 56.9548 98.688 57.2823 98.6534C59.9491 98.3542 62.6139 98.0531 65.2768 97.75L83.0243 95.7535C88.9383 95.0803 94.8523 94.4128 100.772 93.803L118.537 91.933L136.307 90.1666L154.078 88.4059L171.854 86.7316H171.866C171.912 86.7295 171.958 86.7333 172.004 86.7431C176.837 87.8708 181.665 89.0197 186.487 90.1896L200.953 93.6936C200.964 93.6959 200.974 93.7005 200.984 93.707C200.993 93.7136 201.001 93.722 201.007 93.7317C201.013 93.7414 201.016 93.7522 201.018 93.7635C201.02 93.7748 201.019 93.7863 201.016 93.7972V93.7972Z" fill="#111111"/>
<path d="M80.2369 149.171V169.344L125.433 163.515V143.976L80.2369 149.171ZM105.916 157.79C102.582 157.79 102.588 152.612 105.916 152.612C109.249 152.612 109.243 157.79 105.916 157.79V157.79Z" fill="#111111"/>
<path d="M80.2369 125.379V145.552L125.433 139.724V120.184L80.2369 125.379ZM105.916 133.999C102.582 133.999 102.588 128.82 105.916 128.82C109.249 128.82 109.243 133.999 105.916 133.999V133.999Z" fill="#111111"/>
<path d="M180.256 94.9819L180.263 94.9814C181.212 94.7385 182.168 94.5392 183.12 94.3172C184.075 94.1106 185.03 93.9079 185.988 93.7191C186.039 93.709 186.091 93.7148 186.139 93.7358L186.152 93.7417C188.16 94.6271 190.148 95.5532 192.128 96.4969C194.106 97.4462 196.075 98.4133 198.025 99.4202L198.041 99.4283C198.099 99.4582 198.142 99.51 198.162 99.5721C198.182 99.6343 198.176 99.7018 198.147 99.7598C198.127 99.7965 198.099 99.8278 198.065 99.8509C198.031 99.874 197.991 99.8882 197.95 99.8922C197.132 99.9663 196.315 100.051 195.494 100.108C194.674 100.168 193.855 100.24 193.032 100.281C193.838 100.109 194.648 99.9697 195.456 99.8176C196.264 99.6633 197.076 99.5358 197.886 99.3981L197.811 99.87C195.8 98.9917 193.808 98.0735 191.824 97.1375C189.843 96.1959 187.87 95.2366 185.917 94.2369L186.081 94.2595C185.115 94.4017 184.147 94.5296 183.178 94.654C182.206 94.7628 181.239 94.8945 180.264 94.9824H180.263L180.256 94.9819Z" fill="#111111"/>
<path d="M176.098 102.494L176.091 102.495L171.3 103.263C169.703 103.524 168.101 103.742 166.502 103.983C164.902 104.213 163.304 104.465 161.702 104.678L156.896 105.331C156.844 105.338 156.792 105.332 156.743 105.316C154.812 104.65 152.872 104.007 150.95 103.315L145.172 101.27C145.134 101.256 145.098 101.235 145.067 101.208C145.036 101.18 145.011 101.147 144.993 101.11C144.975 101.073 144.965 101.033 144.962 100.992C144.96 100.951 144.966 100.909 144.979 100.87C144.998 100.817 145.03 100.771 145.073 100.734C145.116 100.698 145.167 100.674 145.223 100.664C147.81 100.222 150.408 99.8457 153.001 99.4393C155.595 99.0352 158.195 98.6698 160.797 98.3168C158.225 98.8494 155.652 99.3694 153.071 99.8508C150.491 100.33 147.915 100.839 145.328 101.283L145.378 100.677L151.178 102.659C153.114 103.31 155.034 104.009 156.962 104.686L156.81 104.671L161.622 104.069C163.226 103.865 164.835 103.698 166.441 103.51C168.048 103.333 169.652 103.133 171.262 102.975C172.871 102.811 174.479 102.636 176.091 102.494H176.091L176.098 102.494Z" fill="#111111"/>
<path d="M157.43 92.284C155.701 92.7871 153.962 93.2458 152.227 93.7236C151.792 93.8388 151.361 93.9693 150.922 94.0675L149.603 94.3435L146.969 94.9137L145.652 95.1989C145.174 95.3289 144.674 95.3589 144.183 95.2871C143.663 95.2073 143.179 94.9717 142.795 94.6114C142.601 94.4153 142.452 94.1792 142.358 93.9195C142.264 93.6598 142.227 93.3827 142.251 93.1075C142.36 92.1183 142.811 91.1982 143.525 90.5057C143.867 90.1647 144.254 89.8725 144.675 89.6372C144.883 89.5217 145.097 89.4179 145.316 89.3264C145.516 89.2408 145.714 89.1494 145.909 89.0519C147.487 88.3203 148.815 87.1413 149.73 85.6609C150.16 84.9186 150.445 84.1013 150.569 83.2525C150.682 82.4188 150.683 81.4928 150.728 80.6002L151.167 69.8174L151.175 69.9082C151.132 69.7893 151.072 69.6774 150.996 69.5761C150.908 69.4554 150.808 69.3443 150.697 69.2443C150.454 69.0443 150.193 68.8677 149.916 68.717C149.325 68.4051 148.693 68.179 148.039 68.0456C147.363 67.9143 146.679 67.8315 145.992 67.7979C145.3 67.7592 144.605 67.7636 143.906 67.7752C144.596 67.6804 145.29 67.5759 145.992 67.5443C146.699 67.5041 147.407 67.5148 148.112 67.5762C148.837 67.6461 149.549 67.8201 150.225 68.0927C150.579 68.2415 150.902 68.4522 151.182 68.715C151.501 68.9935 151.74 69.3529 151.872 69.7555C151.879 69.7777 151.882 69.8008 151.881 69.824L151.88 69.8465L151.441 80.6299C151.393 81.5327 151.4 82.4108 151.274 83.3609C151.136 84.2974 150.822 85.199 150.348 86.0181C149.363 87.6207 147.93 88.8982 146.226 89.6919C146.019 89.7953 145.809 89.8923 145.596 89.983C145.4 90.0644 145.21 90.157 145.024 90.2601C144.66 90.4632 144.325 90.7155 144.03 91.0098C143.441 91.5801 143.064 92.3348 142.963 93.1488C142.944 93.3228 142.965 93.4988 143.023 93.6639C143.08 93.8291 143.174 93.9792 143.297 94.1036C143.577 94.3591 143.926 94.5259 144.3 94.5826C144.702 94.6399 145.111 94.6121 145.501 94.5008L146.818 94.2157L149.453 93.6455L150.768 93.3515C151.207 93.2596 151.654 93.2 152.097 93.125C153.875 92.8425 155.648 92.5412 157.43 92.284Z" fill="#111111"/>
<path d="M146.52 60.0686C147.285 60.9374 147.991 61.8581 148.928 62.75L138.911 75.1722C138.738 63.3484 130.526 62.75 130.526 62.75L144.026 57.6061C144.495 57.9791 144.942 58.3787 145.365 58.8028C145.767 59.2113 146.141 59.6371 146.52 60.0686Z" fill="#111111"/>
<path d="M153.21 62.75H148.928C148.868 62.1126 148.695 61.491 148.417 60.9146C148.15 60.3359 147.804 59.7975 147.388 59.3149C146.967 58.8215 146.466 58.4032 145.905 58.0779C145.337 57.7438 144.685 57.5801 144.026 57.6061L145.934 54.0042L153.21 62.75Z" fill="#111111"/>
<path d="M138.912 75.1736C137.633 74.7789 136.44 74.1457 135.396 73.3075C134.327 72.48 133.395 71.489 132.635 70.371C132.437 70.0959 132.259 69.8077 132.1 69.5084C131.941 69.2094 131.757 68.9243 131.62 68.6144C131.337 68.0008 131.105 67.3648 130.926 66.7128C130.556 65.426 130.419 64.0829 130.524 62.7478C130.863 63.9952 131.28 65.2202 131.773 66.4156C132.256 67.5792 132.862 68.6873 133.582 69.7208C134.288 70.7678 135.094 71.7443 135.987 72.6367C136.899 73.5523 137.877 74.4002 138.912 75.1736V75.1736Z" fill="#111111"/>
<path d="M135.403 71.1888C139.534 71.1888 139.541 64.7617 135.403 64.7617C131.272 64.7617 131.265 71.1888 135.403 71.1888Z" fill="#111111"/>
<path d="M105.422 97.4166L115.984 95.5851C119.581 94.9721 123.224 94.3429 126.858 93.8721L126.87 93.8705C126.924 93.8634 126.979 93.8735 127.026 93.8995L131.252 96.1802C132.657 96.9481 134.075 97.6883 135.493 98.4308C136.905 99.1834 138.34 99.8927 139.766 100.62C141.19 101.348 142.633 102.042 144.066 102.756C144.102 102.774 144.132 102.803 144.151 102.839C144.169 102.874 144.177 102.915 144.171 102.956C144.165 102.996 144.147 103.033 144.119 103.062C144.091 103.092 144.055 103.111 144.015 103.119L144.008 103.12C140.403 103.773 136.795 104.41 133.181 105.009C129.569 105.618 125.958 106.23 122.337 106.784L122.333 106.785C122.254 106.797 122.173 106.783 122.102 106.745C119.249 105.212 116.422 103.61 113.625 102.038C110.848 100.453 108.114 98.9019 105.422 97.4166ZM105.493 97.4287C108.408 98.9411 111.281 100.388 114.11 101.801C116.92 103.227 119.7 104.623 122.453 106.088L122.219 106.048C125.831 105.44 129.452 104.889 133.074 104.336C136.693 103.772 140.318 103.247 143.946 102.737L143.888 103.101C142.475 102.35 141.071 101.581 139.65 100.846C138.229 100.109 136.818 99.354 135.384 98.6426C133.956 97.9215 132.528 97.1977 131.087 96.5017L126.774 94.3908L126.942 94.4182C123.428 95.0398 119.924 95.5031 116.374 95.9827L110.992 96.6869L105.493 97.4287Z" fill="#111111"/>
<path d="M118.041 99.6724C118.816 99.4997 119.599 99.3666 120.388 99.2735C121.135 99.3926 121.885 99.4875 122.634 99.5957L127.128 100.226L131.621 100.857L133.868 101.172C134.587 101.492 135.307 101.806 136.016 102.195C135.228 102.373 134.449 102.477 133.67 102.587L131.423 102.271L126.929 101.641L122.436 101.01C121.686 100.908 120.939 100.793 120.188 100.702C119.455 100.395 118.738 100.052 118.041 99.6724V99.6724Z" fill="#111111"/>
<path d="M59.6559 101.41L70.2174 99.5784C73.8148 98.9654 77.4578 98.3362 81.0919 97.8653L81.1036 97.8638C81.1574 97.8567 81.212 97.8668 81.2597 97.8927L85.4853 100.173C86.89 100.941 88.3088 101.682 89.7263 102.424C91.1388 103.177 92.5735 103.886 93.9991 104.613C95.4239 105.342 96.8663 106.036 98.2991 106.749C98.3354 106.767 98.3651 106.796 98.384 106.832C98.4029 106.868 98.41 106.909 98.4044 106.949C98.3988 106.989 98.3807 107.026 98.3527 107.056C98.3247 107.085 98.2882 107.105 98.2484 107.112L98.2411 107.113C94.636 107.766 91.0284 108.403 87.4148 109.002C83.8028 109.611 80.1911 110.223 76.5703 110.777L76.5668 110.778C76.4875 110.79 76.4064 110.776 76.3358 110.738C73.4822 109.205 70.6559 107.603 67.8587 106.032C65.0813 104.446 62.3479 102.895 59.6559 101.41ZM59.7264 101.422C62.6411 102.934 65.5143 104.382 68.3436 105.794C71.153 107.22 73.9335 108.616 76.6866 110.081L76.4523 110.042C80.0645 109.433 83.6859 108.882 87.3068 108.329C90.9263 107.766 94.5517 107.24 98.1797 106.73L98.1217 107.094C96.7083 106.344 95.3046 105.574 93.8832 104.839C92.4627 104.102 91.0513 103.347 89.6177 102.636C88.1891 101.915 86.7619 101.191 85.3203 100.495L81.0076 98.3841L81.1751 98.4115C77.6618 99.0331 74.1574 99.4963 70.6073 99.9759L65.2254 100.68L59.7264 101.422Z" fill="#111111"/>
<path d="M85.7789 100.495C87.0738 100.23 88.3709 99.9806 89.6703 99.7459C90.9709 99.5194 92.268 99.2704 93.5716 99.0624C96.1776 98.6406 98.7793 98.1905 101.397 97.8483L101.411 97.8466C101.468 97.8391 101.526 97.8498 101.576 97.8774L105.788 100.185C107.191 100.955 108.61 101.695 110.031 102.431C111.459 103.154 112.887 103.876 114.33 104.57L118.648 106.67C118.701 106.696 118.745 106.738 118.773 106.791C118.8 106.843 118.811 106.903 118.803 106.961C118.795 107.02 118.768 107.075 118.727 107.117C118.686 107.16 118.633 107.189 118.575 107.199L118.563 107.201L113.149 108.139C111.344 108.449 109.538 108.755 107.729 109.042C105.92 109.324 104.11 109.606 102.296 109.861C100.483 110.119 98.6717 110.391 96.8542 110.624L96.8417 110.625C96.7984 110.631 96.7544 110.622 96.7163 110.6C95.1726 109.726 93.6368 108.836 92.1091 107.932C92.1012 107.927 92.0954 107.92 92.0929 107.911C92.0905 107.902 92.0915 107.892 92.0958 107.884C92.1001 107.876 92.1074 107.87 92.1161 107.867C92.1248 107.864 92.1343 107.865 92.1426 107.869C93.7453 108.633 95.3386 109.414 96.9226 110.213L96.7848 110.19C98.5837 109.842 100.389 109.533 102.192 109.21C103.995 108.884 105.802 108.586 107.609 108.287C109.416 107.993 111.227 107.718 113.038 107.447L118.474 106.643L118.389 107.174L114.169 104.882C112.766 104.112 111.348 103.371 109.929 102.629C108.504 101.902 107.077 101.177 105.634 100.484L101.308 98.3992L101.486 98.4283C98.885 98.8837 96.2676 99.2309 93.6545 99.6066C92.3484 99.7973 91.0361 99.9471 89.7271 100.119C88.4173 100.285 87.1048 100.434 85.7897 100.566C85.7806 100.567 85.7715 100.564 85.7643 100.559C85.757 100.553 85.7522 100.545 85.7508 100.536C85.7495 100.527 85.7516 100.517 85.7568 100.51C85.762 100.502 85.77 100.497 85.7789 100.495L85.7789 100.495Z" fill="#111111"/>
<path d="M173.935 65.9432C173.636 66.7892 173.297 67.6177 172.958 68.4462L171.607 70.7247L169.015 75.1091H168.015L168.17 74.8501L170.866 70.2874L172.216 68.0031C172.779 67.3127 173.337 66.6165 173.935 65.9432Z" fill="#111111"/>
<path d="M167.624 68.8085L167.302 71.6279L166.906 75.109H166.038L166.446 71.53L166.762 68.7107C166.998 67.7844 167.228 66.858 167.515 65.9431C167.584 66.9041 167.607 67.8534 167.624 68.8085Z" fill="#111111"/>
<path d="M164.067 75.109H164.613L164.308 72.9743L164.061 71.2597L163.682 68.567C163.423 67.6924 163.17 66.8121 162.865 65.9432C162.825 66.697 162.814 67.445 162.819 68.193V68.6935L162.929 69.4358L163.21 71.3805L163.745 75.109H164.067Z" fill="#111111"/>
<path d="M162.245 75.1091H161.377L160.837 71.3806L160.452 68.6935C160.446 67.7788 160.446 66.8639 160.498 65.9432C160.802 66.8122 161.055 67.6924 161.314 68.567L161.693 71.2599L162.061 73.826L162.245 75.1091Z" fill="#111111"/>
<path d="M162.929 68.9295V69.4358L162.923 71.5762V75.1091H162.061V68.9295C162.187 68.0492 162.314 67.1688 162.492 66.2827C162.618 66.9215 162.728 67.5601 162.819 68.193C162.86 68.4404 162.894 68.6821 162.929 68.9295Z" fill="#111111"/>
<path d="M165.584 69.3724L165.285 72.0019L164.934 75.109H164.067L164.308 72.9744L164.429 71.9041L164.722 69.2746C164.946 68.4116 165.17 67.5485 165.446 66.697C165.526 67.5888 165.555 68.4807 165.584 69.3724Z" fill="#111111"/>
<path d="M159.584 78.6302V81.7373C159.733 81.72 159.883 81.7085 160.032 81.6912L161.325 78.7856C160.745 78.7452 160.164 78.6993 159.584 78.6302ZM161.486 78.8374L160.101 81.6855C160.934 81.5991 161.773 81.5417 162.607 81.5071L161.486 78.8374ZM161.67 78.8086L162.854 81.3633L163.796 78.895C163.09 78.8835 162.377 78.8489 161.67 78.8086L161.67 78.8086ZM164.095 79.1424L163.124 81.4898C163.739 81.4668 164.348 81.4553 164.963 81.4497L164.095 79.1424ZM165.319 78.9179C165.021 78.9122 164.716 78.9064 164.417 78.9064L165.297 81.0756L166.044 78.9064C165.802 78.9121 165.561 78.9121 165.319 78.9179L165.319 78.9179ZM166.429 79.4645L165.676 81.4497C166.159 81.4553 166.641 81.4612 167.124 81.4783C166.883 80.8051 166.653 80.1377 166.429 79.4645V79.4645ZM166.831 78.895C167.078 79.5797 167.314 80.2644 167.544 80.949C167.854 80.2413 168.159 79.5394 168.475 78.8374C167.929 78.866 167.383 78.8835 166.831 78.895L166.831 78.895ZM168.797 79.1597C168.509 79.9421 168.211 80.719 167.912 81.5014C168.573 81.5244 169.233 81.5647 169.889 81.6222C169.509 80.8051 169.153 79.9881 168.797 79.1596L168.797 79.1597ZM159.584 75.1091V78.6303C161.488 78.4224 163.404 78.3264 165.32 78.3426C165.67 78.3426 166.021 78.3484 166.371 78.3541C166.422 78.3397 166.476 78.3397 166.526 78.3541C167.262 78.3656 167.992 78.3944 168.722 78.4346C168.741 78.4281 168.76 78.4243 168.779 78.4232C168.809 78.4234 168.838 78.4292 168.866 78.4405C169.596 78.4864 170.325 78.544 171.055 78.6303V75.109L159.584 75.1091ZM160.923 77.681C160.699 77.6736 160.487 77.5794 160.331 77.4184C160.176 77.2573 160.089 77.042 160.089 76.8179C160.089 76.5938 160.176 76.3785 160.331 76.2175C160.487 76.0564 160.699 75.9623 160.923 75.9549C161.146 75.9627 161.358 76.0571 161.513 76.218C161.668 76.379 161.755 76.5941 161.755 76.8179C161.755 77.0417 161.668 77.2567 161.513 77.4177C161.358 77.5787 161.146 77.673 160.923 77.6809L160.923 77.681ZM164.026 77.681C163.803 77.6736 163.591 77.5794 163.435 77.4184C163.279 77.2573 163.192 77.042 163.192 76.8179C163.192 76.5938 163.279 76.3785 163.435 76.2175C163.591 76.0564 163.803 75.9623 164.026 75.9549C164.25 75.9627 164.461 76.057 164.617 76.218C164.772 76.379 164.859 76.5941 164.859 76.8179C164.859 77.0417 164.772 77.2567 164.617 77.4177C164.461 77.5787 164.25 77.673 164.026 77.6809L164.026 77.681ZM167.027 77.5775C166.803 77.5701 166.591 77.4759 166.435 77.3148C166.28 77.1538 166.193 76.9385 166.193 76.7144C166.193 76.4903 166.28 76.275 166.435 76.114C166.591 75.9529 166.803 75.8587 167.027 75.8513C167.25 75.8592 167.462 75.9535 167.617 76.1145C167.772 76.2755 167.859 76.4906 167.859 76.7144C167.859 76.9381 167.772 77.1532 167.617 77.3142C167.462 77.4752 167.25 77.5695 167.027 77.5774L167.027 77.5775ZM169.975 77.681C169.751 77.6736 169.539 77.5794 169.383 77.4184C169.228 77.2573 169.141 77.042 169.141 76.8179C169.141 76.5938 169.228 76.3785 169.383 76.2175C169.539 76.0564 169.751 75.9623 169.975 75.9549C170.198 75.9627 170.41 76.0571 170.565 76.218C170.72 76.379 170.807 76.5941 170.807 76.8179C170.807 77.0417 170.72 77.2567 170.565 77.4177C170.41 77.5787 170.198 77.673 169.975 77.6809L169.975 77.681ZM169.05 78.803C169.371 79.7408 169.682 80.6787 169.969 81.6282C170.331 81.6626 170.693 81.6914 171.055 81.7375V78.6304C170.389 78.7051 169.722 78.7625 169.05 78.8028L169.05 78.803ZM161.486 78.8375L160.101 81.6856C160.934 81.5993 161.773 81.5418 162.607 81.5072L161.486 78.8375ZM161.67 78.8088L162.854 81.3634L163.797 78.8952C163.09 78.8835 162.377 78.8489 161.67 78.8086L161.67 78.8088ZM164.095 79.1425L163.124 81.49C163.739 81.467 164.348 81.4554 164.963 81.4498L164.095 79.1425ZM165.32 78.9181C165.021 78.9123 164.716 78.9065 164.417 78.9065L165.297 81.0757L166.044 78.9065C165.802 78.9121 165.561 78.9121 165.319 78.9179L165.32 78.9181ZM166.429 79.4647L165.676 81.4498C166.159 81.4554 166.641 81.4613 167.124 81.4785C166.883 80.8051 166.653 80.1377 166.429 79.4645L166.429 79.4647ZM166.831 78.8952C167.078 79.5799 167.314 80.2645 167.544 80.9492C167.854 80.2415 168.159 79.5395 168.475 78.8376C167.929 78.866 167.383 78.8835 166.831 78.895L166.831 78.8952ZM168.797 79.1598C168.509 79.9423 168.211 80.7191 167.912 81.5015C168.573 81.5245 169.233 81.5649 169.889 81.6224C169.509 80.8051 169.153 79.9881 168.797 79.1596L168.797 79.1598ZM161.486 78.8376L160.101 81.6857C160.934 81.5993 161.773 81.5419 162.607 81.5073L161.486 78.8376ZM161.67 78.8088L162.854 81.3635L163.797 78.8952C163.09 78.8835 162.377 78.8489 161.67 78.8086L161.67 78.8088ZM164.095 79.1426L163.124 81.49C163.739 81.467 164.348 81.4555 164.963 81.4499L164.095 79.1426ZM165.32 78.9181C165.021 78.9124 164.716 78.9066 164.417 78.9066L165.297 81.0758L166.044 78.9066C165.802 78.9121 165.561 78.9121 165.319 78.9179L165.32 78.9181ZM166.429 79.4647L165.676 81.4499C166.159 81.4555 166.641 81.4614 167.124 81.4786C166.883 80.8051 166.653 80.1377 166.429 79.4645L166.429 79.4647ZM166.831 78.8953C167.078 79.5799 167.314 80.2646 167.544 80.9493C167.854 80.2415 168.159 79.5396 168.475 78.8377C167.929 78.866 167.383 78.8835 166.831 78.895L166.831 78.8953ZM168.797 79.1599C168.509 79.9424 168.211 80.7192 167.912 81.5016C168.573 81.5246 169.234 81.565 169.889 81.6224C169.509 80.8051 169.153 79.9881 168.797 79.1596L168.797 79.1599ZM159.584 85.1035V85.8169C159.584 87.3399 160.188 88.8004 161.264 89.8773C162.339 90.9542 163.798 91.5592 165.32 91.5592C166.841 91.5592 168.3 90.9542 169.375 89.8773C170.451 88.8004 171.055 87.3399 171.055 85.8169V85.1035C167.241 85.4871 163.398 85.4871 159.584 85.1035ZM167.664 81.9792C167.628 82.0039 167.586 82.0194 167.542 82.0244C167.498 82.0294 167.453 82.0238 167.412 82.008C167.4 82.001 167.388 81.9933 167.377 81.985C166.693 82.008 166.004 82.0195 165.32 82.0253C163.404 82.0357 161.489 81.9397 159.584 81.7376V85.1035C163.398 84.7199 167.241 84.7199 171.055 85.1035V81.7373C169.923 81.8696 168.797 81.9386 167.664 81.9789L167.664 81.9792ZM161.182 84.3095C160.958 84.3021 160.746 84.2079 160.59 84.0469C160.435 83.8858 160.348 83.6705 160.348 83.4464C160.348 83.2223 160.435 83.007 160.59 82.846C160.746 82.6849 160.958 82.5908 161.182 82.5834C161.405 82.5917 161.616 82.6863 161.771 82.8473C161.925 83.0082 162.012 83.2229 162.012 83.4464C162.012 83.6698 161.925 83.8845 161.77 84.0454C161.616 84.2063 161.404 84.3009 161.181 84.3092L161.182 84.3095ZM163.82 84.2577C163.596 84.2502 163.384 84.1561 163.228 83.995C163.073 83.834 162.986 83.6187 162.986 83.3946C162.986 83.1705 163.073 82.9552 163.228 82.7942C163.384 82.6331 163.596 82.5389 163.82 82.5315C164.043 82.5399 164.254 82.6345 164.409 82.7954C164.563 82.9563 164.65 83.1711 164.65 83.3945C164.65 83.6179 164.563 83.8327 164.408 83.9936C164.254 84.1545 164.043 84.249 163.819 84.2574L163.82 84.2577ZM166.716 84.2577C166.493 84.2502 166.28 84.1561 166.125 83.995C165.969 83.834 165.882 83.6187 165.882 83.3946C165.882 83.1705 165.969 82.9552 166.125 82.7942C166.28 82.6331 166.493 82.5389 166.716 82.5315C166.939 82.5399 167.15 82.6345 167.305 82.7954C167.46 82.9563 167.547 83.1711 167.547 83.3945C167.546 83.6179 167.46 83.8327 167.305 83.9936C167.15 84.1545 166.939 84.249 166.716 84.2574L166.716 84.2577ZM169.613 84.1541C169.389 84.1467 169.177 84.0525 169.021 83.8915C168.866 83.7305 168.779 83.5151 168.779 83.2911C168.779 83.067 168.866 82.8517 169.021 82.6906C169.177 82.5296 169.389 82.4354 169.613 82.428C169.836 82.4364 170.047 82.5309 170.202 82.6919C170.357 82.8528 170.443 83.0675 170.443 83.291C170.443 83.5144 170.357 83.7291 170.202 83.89C170.047 84.051 169.836 84.1455 169.613 84.1539L169.613 84.1541ZM169.889 81.6224C169.509 80.8054 169.153 79.9884 168.797 79.1599C168.509 79.9423 168.211 80.7192 167.912 81.5016C168.573 81.5243 169.233 81.5647 169.889 81.6221L169.889 81.6224ZM168.475 78.8377C167.929 78.8663 167.383 78.8837 166.831 78.8952C167.078 79.5799 167.314 80.2646 167.544 80.9492C167.854 80.2413 168.159 79.5393 168.475 78.8374L168.475 78.8377ZM167.124 81.4785C166.883 80.8054 166.653 80.138 166.429 79.4647L165.676 81.4499C166.159 81.4552 166.641 81.4611 167.124 81.4783L167.124 81.4785ZM166.044 78.9066C165.802 78.9124 165.561 78.9124 165.32 78.9181C165.021 78.9124 164.716 78.9066 164.417 78.9066L165.297 81.0758L166.044 78.9066ZM164.963 81.4499L164.095 79.1426L163.124 81.49C163.739 81.4668 164.348 81.4552 164.963 81.4496L164.963 81.4499ZM163.797 78.8952C163.09 78.8837 162.377 78.8491 161.67 78.8088L162.854 81.3634L163.797 78.8952ZM161.486 78.8376L160.101 81.6857C160.934 81.5993 161.774 81.5419 162.607 81.5073L161.486 78.8376ZM168.797 79.1598C168.509 79.9423 168.211 80.7191 167.912 81.5015C168.573 81.5245 169.233 81.5649 169.889 81.6224C169.509 80.8051 169.153 79.9881 168.797 79.1596L168.797 79.1598ZM166.831 78.8952C167.078 79.5799 167.314 80.2645 167.544 80.9492C167.854 80.2415 168.159 79.5395 168.475 78.8376C167.929 78.866 167.383 78.8835 166.831 78.895L166.831 78.8952ZM166.429 79.4647L165.676 81.4498C166.159 81.4554 166.641 81.4613 167.124 81.4785C166.883 80.8051 166.653 80.1377 166.429 79.4645L166.429 79.4647ZM165.32 78.9181C165.021 78.9123 164.716 78.9065 164.417 78.9065L165.297 81.0757L166.044 78.9065C165.802 78.9121 165.561 78.9121 165.319 78.9179L165.32 78.9181ZM164.095 79.1425L163.124 81.49C163.739 81.467 164.348 81.4554 164.963 81.4498L164.095 79.1425ZM161.67 78.8088L162.854 81.3634L163.797 78.8952C163.09 78.8835 162.377 78.8489 161.67 78.8086L161.67 78.8088ZM161.486 78.8375L160.101 81.6856C160.934 81.5993 161.773 81.5418 162.607 81.5072L161.486 78.8375ZM168.797 79.1598C168.509 79.9422 168.211 80.7191 167.912 81.5015C168.573 81.5245 169.233 81.5648 169.889 81.6223C169.509 80.8051 169.153 79.9881 168.797 79.1596L168.797 79.1598ZM166.831 78.8951C167.078 79.5798 167.314 80.2644 167.544 80.9491C167.854 80.2414 168.159 79.5394 168.475 78.8375C167.929 78.866 167.383 78.8835 166.831 78.895L166.831 78.8951ZM166.429 79.4646L165.676 81.4497C166.159 81.4554 166.641 81.4613 167.124 81.4784C166.883 80.8051 166.653 80.1377 166.429 79.4645L166.429 79.4646ZM165.32 78.918C165.021 78.9122 164.716 78.9065 164.417 78.9065L165.297 81.0756L166.044 78.9065C165.802 78.9121 165.561 78.9121 165.319 78.9179L165.32 78.918ZM164.095 79.1425L163.124 81.4899C163.739 81.4669 164.348 81.4553 164.963 81.4497L164.095 79.1425ZM161.67 78.8087L162.854 81.3633L163.797 78.8951C163.09 78.8835 162.377 78.8489 161.67 78.8086L161.67 78.8087ZM161.486 78.8375L160.101 81.6856C160.934 81.5992 161.773 81.5417 162.607 81.5072L161.486 78.8375Z" fill="#111111"/>
<path d="M66.2243 173.232C66.331 174.653 66.3856 176.074 66.4606 177.495C66.5389 178.915 66.5743 180.336 66.6255 181.757C66.6578 183.178 66.7101 184.598 66.7257 186.019C66.7439 187.44 66.7803 188.861 66.7805 190.282L66.3714 189.745L70.3708 190.825L70.085 190.821L74.0703 189.875L73.6499 190.41C73.6846 187.773 73.7327 185.136 73.8161 182.499C73.8663 181.181 73.9033 179.863 73.978 178.544C74.0467 177.226 74.1009 175.907 74.2001 174.589C74.2993 175.907 74.3535 177.226 74.4222 178.544C74.4969 179.863 74.5339 181.181 74.5841 182.499C74.6675 185.136 74.7156 187.773 74.7503 190.41C74.7519 190.532 74.7122 190.651 74.6378 190.748C74.5633 190.845 74.4584 190.914 74.34 190.943L74.3297 190.946L70.3546 191.933C70.2605 191.956 70.1621 191.955 70.0687 191.929L66.0776 190.819C65.9603 190.786 65.8569 190.716 65.783 190.619C65.7091 190.522 65.6689 190.404 65.6683 190.282C65.6686 188.861 65.7049 187.44 65.7231 186.019C65.7387 184.598 65.7911 183.178 65.8233 181.757C65.8745 180.336 65.9099 178.915 65.9882 177.495C66.0633 176.074 66.1178 174.653 66.2243 173.232Z" fill="#111111"/>
<path d="M70.2122 174.522C70.494 177.331 70.5596 180.14 70.5724 182.95C70.5637 185.759 70.5007 188.568 70.2198 191.377C69.9364 188.568 69.8708 185.759 69.8596 182.95C69.8699 180.141 69.933 177.332 70.2122 174.522Z" fill="#111111"/>
<path d="M29.7042 154.257C29.8169 155.678 29.8717 157.098 29.9521 158.519C30.0247 159.94 30.0744 161.361 30.1176 162.782C30.1999 165.623 30.2563 168.465 30.2652 171.306L29.8524 170.765C31.1865 171.122 32.5209 171.477 33.8489 171.856L33.5662 171.852C34.8954 171.539 36.2214 171.214 37.5552 170.921L37.1514 171.435C37.1742 170.295 37.1806 169.155 37.2172 168.015C37.2524 166.875 37.2715 165.735 37.3212 164.595C37.3611 163.455 37.4086 162.315 37.4754 161.175C37.5363 160.035 37.5899 158.895 37.68 157.756C37.7699 158.895 37.8235 160.035 37.8846 161.175C37.9512 162.315 37.9986 163.455 38.0386 164.595C38.0883 165.735 38.1074 166.875 38.1426 168.015C38.1792 169.155 38.1855 170.295 38.2086 171.435C38.2109 171.55 38.1745 171.663 38.1052 171.755C38.0359 171.847 37.9377 171.914 37.8264 171.943L37.8045 171.949C36.4848 172.3 35.1575 172.62 33.833 172.952C33.7441 172.974 33.6509 172.974 33.5621 172.951L33.5501 172.948C32.2148 172.596 30.8857 172.221 29.5561 171.848L29.5512 171.847C29.4336 171.813 29.3301 171.743 29.2564 171.645C29.1828 171.548 29.143 171.428 29.1433 171.306C29.1522 168.465 29.2085 165.623 29.2909 162.781C29.3341 161.361 29.3838 159.94 29.4564 158.519C29.5367 157.098 29.5915 155.677 29.7042 154.257Z" fill="#111111"/>
<path d="M33.6921 155.547C33.9738 158.356 34.0395 161.165 34.0523 163.974C34.0434 166.783 33.9804 169.592 33.6995 172.402C33.4161 169.593 33.3507 166.783 33.3394 163.974C33.3496 161.165 33.4129 158.356 33.6921 155.547Z" fill="#111111"/>
<path d="M124.717 167.148C124.814 168.411 124.868 169.674 124.934 170.937C125.006 172.2 125.046 173.463 125.093 174.726C125.177 177.252 125.227 179.778 125.261 182.305L124.961 181.819L128.568 183.602L128.162 183.562C129.571 183.161 130.989 182.797 132.403 182.412L131.993 182.95C131.994 181.556 132.028 180.162 132.047 178.768C132.062 177.374 132.114 175.98 132.147 174.587C132.197 173.193 132.234 171.799 132.312 170.405C132.388 169.011 132.442 167.617 132.55 166.224C132.657 167.617 132.712 169.011 132.787 170.405C132.865 171.799 132.902 173.193 132.952 174.587C132.985 175.98 133.037 177.374 133.052 178.768C133.072 180.162 133.106 181.556 133.107 182.95C133.106 183.072 133.066 183.19 132.992 183.287C132.918 183.384 132.814 183.455 132.697 183.487C131.285 183.877 129.879 184.288 128.463 184.661L128.454 184.664C128.321 184.699 128.18 184.683 128.057 184.621L124.474 182.791L124.464 182.786C124.376 182.741 124.302 182.672 124.251 182.587C124.199 182.502 124.173 182.404 124.174 182.305C124.208 179.778 124.258 177.252 124.342 174.726C124.389 173.463 124.429 172.2 124.501 170.937C124.567 169.674 124.621 168.411 124.717 167.148Z" fill="#111111"/>
<path d="M128.633 166.682C128.86 169.592 128.871 172.499 128.829 175.404C128.766 178.308 128.648 181.212 128.313 184.112C128.084 181.202 128.073 178.296 128.117 175.39C128.182 172.486 128.3 169.582 128.633 166.682Z" fill="#111111"/>
<path d="M171.062 137.716C170.492 137.683 169.933 137.55 169.409 137.323C167.842 136.688 166.442 135.701 165.318 134.437C165.84 134.638 166.348 134.875 166.838 135.148C167.327 135.403 167.796 135.686 168.269 135.962C168.733 136.251 169.201 136.529 169.659 136.828C170.124 137.118 170.575 137.423 171.062 137.716Z" fill="#111111"/>
<path d="M53.5695 70.1435C54.0347 70.9078 54.5905 71.613 55.2248 72.2437C54.5822 72.2658 53.9442 72.1274 53.3685 71.8408C52.9526 71.6262 52.6014 71.3045 52.3512 70.9087C52.1072 70.5075 51.9725 70.0492 51.9604 69.5796C51.9487 68.937 52.0988 68.3018 52.3971 67.7327C52.6871 68.5816 53.0809 69.3913 53.5695 70.1435Z" fill="#111111"/>
<path d="M55.6674 70.3967C55.6788 71.04 55.5265 71.6756 55.2248 72.2436C54.9348 71.3947 54.541 70.5849 54.0524 69.8328C53.5858 69.0695 53.0302 68.3644 52.3971 67.7326C53.0386 67.7097 53.6754 67.8503 54.2478 68.1411C54.6638 68.3552 55.0164 68.6746 55.2707 69.0676C55.5199 69.4668 55.6569 69.926 55.6674 70.3967V70.3967Z" fill="#111111"/>
<path d="M52.0351 75.6326C52.5004 76.3984 53.0583 77.1038 53.6961 77.7328C53.0534 77.7557 52.4152 77.6172 51.8396 77.3299C51.4222 77.1154 51.0691 76.7938 50.8166 76.3979C50.5727 75.9965 50.438 75.5383 50.4258 75.0687C50.4141 74.4261 50.5643 73.7909 50.8626 73.2218C51.155 74.0697 51.5487 74.8792 52.0351 75.6326V75.6326Z" fill="#111111"/>
<path d="M54.1328 75.8857C54.144 76.5282 53.9939 77.1633 53.6962 77.7327C53.4012 76.8858 53.0077 76.0766 52.5237 75.3218C52.0551 74.5584 51.4975 73.8534 50.8627 73.2218C51.5042 73.1981 52.1412 73.3387 52.7133 73.6303C53.1333 73.8403 53.4877 74.1617 53.738 74.5593C53.9883 74.957 54.1249 75.4157 54.1329 75.8857L54.1328 75.8857Z" fill="#111111"/>
<path d="M50.3052 81.6739C50.7719 82.4387 51.3296 83.1439 51.9661 83.7741C51.3226 83.7983 50.6836 83.6577 50.1097 83.3655C49.6914 83.1549 49.3379 82.8348 49.0868 82.4392C48.8428 82.0379 48.708 81.5797 48.6959 81.1101C48.6836 80.4674 48.8338 79.8321 49.1327 79.2631C49.4251 80.1111 49.8188 80.9205 50.3052 81.6739V81.6739Z" fill="#111111"/>
<path d="M52.4029 81.9214C52.4147 82.5659 52.2644 83.203 51.966 83.7742C51.6717 82.926 51.2761 82.1165 50.7879 81.3633C50.3213 80.6 49.7657 79.895 49.1326 79.2633C49.7742 79.2396 50.4111 79.3802 50.9832 79.6718C51.3993 79.8857 51.752 80.2052 52.0063 80.5982C52.2546 80.9957 52.3916 81.4527 52.4029 81.9214V81.9214Z" fill="#111111"/>
<path d="M49.4603 88.1066C49.9273 88.8729 50.485 89.58 51.1212 90.2126C50.4778 90.2368 49.8388 90.0962 49.2648 89.8041C48.8478 89.5908 48.4962 89.2686 48.2473 88.8715C47.9984 88.4743 47.8614 88.0172 47.851 87.5485C47.8415 86.9061 47.9916 86.2715 48.2878 85.7015C48.5827 86.5467 48.9762 87.354 49.4603 88.1066V88.1066Z" fill="#111111"/>
<path d="M51.558 88.3598C51.5728 89.0046 51.4224 89.6425 51.1212 90.2127C50.5146 88.5211 49.5478 86.9819 48.2878 85.7017C48.9294 85.678 49.5663 85.8186 50.1385 86.1102C50.5568 86.3208 50.9103 86.641 51.1615 87.0366C51.4131 87.4326 51.5503 87.8906 51.558 88.3598V88.3598Z" fill="#111111"/>
<path d="M49.208 92.0382C49.8497 92.0164 50.4866 92.1567 51.0599 92.446C51.4772 92.6595 51.8303 92.9801 52.0834 93.3749C52.3319 93.7725 52.4687 94.2298 52.4795 94.6986C52.4916 95.3426 52.3402 95.979 52.0394 96.5484C51.3965 96.5728 50.758 96.4334 50.1836 96.1431C49.7663 95.93 49.4141 95.6082 49.1641 95.2116C48.9185 94.8121 48.7832 94.3544 48.7721 93.8854C48.7602 93.2428 48.9102 92.6075 49.208 92.0382V92.0382Z" fill="#111111"/>
<path d="M57.4145 71.8351C56.6455 72.1985 55.904 72.6177 55.1961 73.0894C55.2946 72.478 55.5197 71.894 55.857 71.3748C56.0893 71.0237 56.408 70.7383 56.7824 70.5462C57.146 70.3679 57.5514 70.2923 57.9548 70.3276C58.5482 70.387 59.1315 70.5223 59.6905 70.7304L57.4145 71.8351Z" fill="#111111"/>
<path d="M59.3686 72.6406C59.1271 73.0673 58.7642 73.4122 58.3261 73.6315C57.888 73.8508 57.3946 73.9345 56.9088 73.8719C56.2741 73.7832 55.6789 73.5113 55.1961 73.0895C55.6296 73.0504 56.0575 72.9636 56.472 72.8305C56.8829 72.6992 57.2843 72.5396 57.6732 72.3529C58.0627 72.1607 58.434 71.9334 58.7824 71.6739C59.1396 71.4169 59.4473 71.0972 59.6905 70.7303C59.8279 71.3849 59.7129 72.0674 59.3686 72.6406Z" fill="#111111"/>
<path d="M56.518 77.0136C55.5696 77.3587 54.6041 77.6637 53.6329 78.0722C53.9115 77.4545 54.3055 76.896 54.7938 76.4267C55.1512 76.0896 55.5737 75.8292 56.0352 75.6614C56.4727 75.5028 56.9391 75.44 57.403 75.4772C58.043 75.5415 58.6771 75.655 59.2998 75.8167C58.4103 76.2984 57.4793 76.699 56.518 77.0136V77.0136Z" fill="#111111"/>
<path d="M58.6502 77.8881C58.2741 78.347 57.7819 78.6964 57.2248 78.8998C56.6678 79.1032 56.0664 79.1532 55.4835 79.0445C54.7835 78.9127 54.1389 78.574 53.6329 78.0721C54.1569 78.0927 54.6815 78.0522 55.1961 77.9513C55.7102 77.8617 56.2158 77.7289 56.7076 77.5543C57.206 77.3831 57.684 77.1574 58.1329 76.8812C58.5915 76.6114 58.9889 76.2488 59.2998 75.8167C59.34 76.1881 59.3031 76.5639 59.1913 76.9204C59.0795 77.2769 58.8953 77.6063 58.6502 77.8881V77.8881Z" fill="#111111"/>
<path d="M55.4374 81.4899C54.4892 81.8351 53.5236 82.1401 52.5523 82.5486C52.8307 81.9294 53.227 81.3704 53.719 80.903C54.0735 80.565 54.4944 80.3044 54.9548 80.1378C55.3923 79.9792 55.8587 79.9165 56.3225 79.9537C56.9625 80.018 57.5966 80.1315 58.2191 80.2932C57.3297 80.7749 56.3987 81.1754 55.4374 81.4899V81.4899Z" fill="#111111"/>
<path d="M57.5697 82.3644C57.1936 82.8233 56.7014 83.1728 56.1443 83.3762C55.5873 83.5796 54.9859 83.6296 54.403 83.5209C53.703 83.3891 53.0584 83.0505 52.5523 82.5486C53.0764 82.5691 53.601 82.5286 54.1157 82.4277C54.6298 82.3381 55.1354 82.2053 55.6271 82.0306C56.1256 81.8594 56.6036 81.6337 57.0525 81.3575C57.5111 81.0878 57.9084 80.7252 58.2192 80.2931C58.2595 80.6645 58.2225 81.0403 58.1108 81.3968C57.999 81.7532 57.8148 82.0827 57.5697 82.3644V82.3644Z" fill="#111111"/>
<path d="M54.5293 86.9732C53.5695 87.4105 52.5638 87.7673 51.558 88.216C51.8393 87.5814 52.2347 87.0041 52.7247 86.5129C53.0778 86.1556 53.4926 85.8653 53.9489 85.6557C54.3682 85.4702 54.8185 85.3648 55.2766 85.345C55.7707 85.2989 56.2764 85.3967 57.1673 85.2759C56.8129 85.6719 56.3954 86.0064 55.9317 86.2655C55.4804 86.5322 55.0119 86.7686 54.5293 86.9732V86.9732Z" fill="#111111"/>
<path d="M57.334 85.9031C57.3407 86.1072 57.3272 86.3114 57.2937 86.5129C57.2129 86.8848 57.0627 87.2381 56.8512 87.5544C56.4804 88.1103 55.9577 88.5477 55.3455 88.8144C54.7773 89.0661 54.1528 89.1634 53.535 89.0965C52.8018 89.0116 52.1119 88.7044 51.558 88.216C52.1101 88.2158 52.6602 88.1482 53.196 88.0147C53.7343 87.8926 54.2597 87.7192 54.765 87.4968C55.2807 87.2765 55.7626 86.9841 56.1961 86.6281C56.6483 86.2854 56.9868 85.8141 57.1673 85.2759C57.2106 85.3769 57.2472 85.4807 57.2766 85.5866C57.3018 85.6909 57.3209 85.7966 57.334 85.9031V85.9031Z" fill="#111111"/>
<path d="M51.535 94.7697C51.5663 94.1365 51.7048 93.5131 51.9446 92.9263C52.1018 92.5394 52.3379 92.1895 52.6376 91.8989C52.9071 91.6526 53.2317 91.4747 53.5842 91.38C54.1405 91.2757 54.6784 91.0898 55.1805 90.8284C55.264 90.8904 55.3434 90.9577 55.4184 91.0298C55.4857 91.1061 55.5484 91.1863 55.6064 91.27C55.7038 91.4372 55.7798 91.6161 55.8326 91.8024C55.9176 92.1512 55.9246 92.5145 55.8531 92.8663C55.7379 93.4722 55.4288 94.0241 54.9726 94.4386C54.5612 94.8191 54.0442 95.0656 53.4899 95.1455C52.8147 95.2383 52.1278 95.1063 51.535 94.7697V94.7697Z" fill="#111111"/>
<path d="M57.0927 66.605C56.7583 67.5252 56.5307 68.4808 56.4145 69.4531C55.9974 68.9247 55.7206 68.2992 55.6098 67.6349C55.5289 67.1319 55.5703 66.6168 55.7305 66.1332C55.8972 65.6506 56.1817 65.2175 56.5582 64.8731C57.0558 64.421 57.6583 64.1006 58.311 63.9409C57.8054 64.7799 57.3967 65.6736 57.0927 66.605Z" fill="#111111"/>
<path d="M58.995 67.2609C58.8252 67.7416 58.5388 68.1726 58.1616 68.5153C57.6675 68.9703 57.0665 69.2928 56.4146 69.4531C56.9156 68.6118 57.3241 67.7186 57.6329 66.7892C57.9667 65.8687 58.1942 64.9131 58.3111 63.9409C58.7295 64.4692 59.0082 65.0946 59.1215 65.7592C59.2034 66.2626 59.1599 66.7784 58.995 67.2609V67.2609Z" fill="#111111"/>
<path d="M49.2081 92.0382C49.8436 92.6695 50.4006 93.3753 50.8669 94.1404C51.3543 94.8922 51.7481 95.7009 52.0393 96.5485C51.4029 95.9181 50.8458 95.2121 50.3806 94.4463C49.8942 93.6939 49.5005 92.8853 49.2081 92.0382V92.0382Z" fill="white"/>
<path d="M51.535 94.7696C52.2349 94.1241 52.9544 93.5702 53.6107 92.9571C53.943 92.6638 54.2508 92.3437 54.531 92.0002C54.8224 91.6561 55.0431 91.2578 55.1805 90.8282C55.2609 91.3184 55.1637 91.8213 54.9064 92.246C54.6703 92.6726 54.3637 93.0561 53.9997 93.3802C53.6469 93.7016 53.2596 93.983 52.8451 94.2192C52.4354 94.4614 51.9946 94.6465 51.535 94.7696V94.7696Z" fill="white"/>
<path d="M48.4946 99.0387C48.5867 99.2171 48.6728 99.4013 48.7591 99.5796C48.8568 99.7868 48.9546 99.9882 49.0522 100.195C49.2245 100.558 49.397 100.914 49.5637 101.277C49.7131 100.88 49.8683 100.489 50.0177 100.098C50.1096 99.8732 50.2017 99.643 50.2936 99.4186C50.3281 99.3208 50.3684 99.2287 50.4085 99.1309C49.7706 99.1136 49.1326 99.0848 48.4946 99.0387ZM50.9717 99.9997L50.8224 99.6371C50.7706 99.7695 50.7189 99.9018 50.6672 100.034C50.443 100.604 50.2188 101.173 49.9832 101.737C50.5464 101.714 51.1098 101.697 51.673 101.691L50.9717 99.9997ZM52.7937 99.148C52.5177 99.148 52.2418 99.1539 51.9603 99.1595C51.7188 99.1539 51.4775 99.1539 51.2304 99.148L51.2936 99.3093L51.5293 99.9479L52.0407 101.312L52.5925 99.8444L52.8511 99.1481L52.7937 99.148ZM53.2821 99.7752L53.1614 99.4357L53.035 99.7983L52.3855 101.697C52.9201 101.703 53.4545 101.714 53.9947 101.737L53.2821 99.7752ZM53.4488 99.1366L53.65 99.7408L54.2533 101.565L55.0983 99.6026L55.3339 99.0502C54.7075 99.0906 54.0753 99.1194 53.4488 99.1366H53.4488ZM55.6845 99.5452L55.5063 99.1079L55.3224 99.5796L54.4775 101.76C55.2017 101.801 55.9316 101.864 56.6615 101.967L55.6845 99.5452ZM48.4946 99.0388C48.5866 99.2172 48.6727 99.4013 48.7591 99.5796C48.8567 99.7868 48.9545 99.9882 49.0522 100.195C49.2245 100.558 49.3969 100.914 49.5636 101.277C49.713 100.88 49.8682 100.489 50.0177 100.098C50.1096 99.8732 50.2016 99.643 50.2935 99.4186C50.328 99.3209 50.3683 99.2287 50.4085 99.1309C49.7706 99.1136 49.1326 99.0848 48.4946 99.0387L48.4946 99.0388ZM50.9716 99.9997L50.8224 99.6372C50.7706 99.7695 50.7189 99.9018 50.6672 100.034C50.443 100.604 50.2187 101.173 49.9831 101.737C50.5464 101.714 51.1097 101.697 51.6729 101.691L50.9716 99.9997ZM52.7936 99.1481C52.5176 99.1481 52.2418 99.1539 51.9603 99.1596C51.7188 99.1539 51.4775 99.1539 51.2304 99.1481L51.2935 99.3093L51.5292 99.9479L52.0407 101.312L52.5924 99.8444L52.851 99.1481L52.7936 99.1481ZM53.2821 99.7753L53.1614 99.4357L53.0349 99.7983L52.3854 101.697C52.92 101.703 53.4545 101.714 53.9946 101.737L53.2821 99.7753ZM53.4487 99.1367L53.6499 99.7408L54.2533 101.565L55.0983 99.6026L55.3339 99.0502C54.7075 99.0906 54.0753 99.1194 53.4488 99.1366L53.4487 99.1367ZM55.6845 99.5452L55.5063 99.1079L55.3223 99.5796L54.4775 101.76C55.2017 101.801 55.9316 101.864 56.6615 101.967L55.6845 99.5452ZM48.1901 99.2919C48.1268 99.4129 48.0579 99.5394 47.9946 99.6602L48.3222 99.6257C48.2763 99.5163 48.2362 99.4013 48.1901 99.2919L48.1901 99.2919ZM48.4945 99.0388C48.5866 99.2172 48.6727 99.4013 48.759 99.5796C48.8567 99.7868 48.9545 99.9882 49.0521 100.195C49.374 100.161 49.6958 100.126 50.0176 100.098C50.1095 99.8732 50.2016 99.643 50.2935 99.4186C50.328 99.3209 50.3683 99.2287 50.4085 99.1309C49.7706 99.1136 49.1326 99.0848 48.4946 99.0387L48.4945 99.0388ZM50.8224 99.6372C50.7706 99.7695 50.7189 99.9018 50.6672 100.034C50.7648 100.023 50.8682 100.011 50.9717 99.9997L50.8224 99.6372ZM51.9603 99.1596C51.7188 99.154 51.4775 99.154 51.2304 99.1481L51.2935 99.3093C51.7936 99.2575 52.2936 99.1999 52.7936 99.1481C52.5177 99.148 52.2419 99.1539 51.9604 99.1595L51.9603 99.1596ZM45.4026 90.6787L46.6785 98.8719C47.1613 98.8087 47.644 98.7626 48.121 98.7224C48.1431 98.7064 48.1688 98.6959 48.1958 98.6919C48.2228 98.6879 48.2504 98.6905 48.2762 98.6994L48.2877 98.7109C49.1038 98.6533 49.9142 98.613 50.7246 98.5957C50.7847 98.5786 50.8484 98.5786 50.9085 98.5957C51.259 98.5901 51.6097 98.5842 51.9603 98.5842C53.4086 98.5901 54.8511 98.6245 56.2936 98.7626C56.6097 98.7972 56.9316 98.8317 57.2478 98.8719L57.2821 98.6533L58.5179 90.6787L45.4026 90.6787ZM47.4314 98.3944C47.2082 98.3863 46.9968 98.2918 46.8418 98.1308C46.6868 97.9698 46.6002 97.755 46.6002 97.5314C46.6002 97.3078 46.6868 97.0929 46.8418 96.9319C46.9968 96.771 47.2082 96.6765 47.4314 96.6683C47.6545 96.6765 47.8658 96.7711 48.0207 96.932C48.1757 97.0929 48.2623 97.3078 48.2623 97.5313C48.2623 97.7548 48.1757 97.9697 48.0208 98.1306C47.8658 98.2916 47.6546 98.3861 47.4315 98.3944L47.4314 98.3944ZM50.535 98.3944C50.3118 98.3863 50.1005 98.2918 49.9454 98.1308C49.7904 97.9698 49.7038 97.755 49.7038 97.5314C49.7038 97.3078 49.7904 97.0929 49.9454 96.9319C50.1005 96.771 50.3118 96.6765 50.535 96.6683C50.7583 96.6763 50.9697 96.7708 51.1248 96.9317C51.28 97.0927 51.3666 97.3076 51.3667 97.5313C51.3667 97.755 51.28 97.9699 51.1249 98.1309C50.9698 98.2919 50.7583 98.3863 50.5351 98.3944L50.535 98.3944ZM53.5349 98.2909C53.3117 98.2827 53.1004 98.1882 52.9454 98.0273C52.7903 97.8663 52.7037 97.6514 52.7037 97.4278C52.7037 97.2042 52.7903 96.9894 52.9454 96.8284C53.1004 96.6674 53.3117 96.5729 53.5349 96.5648C53.758 96.573 53.9693 96.6675 54.1243 96.8285C54.2792 96.9894 54.3658 97.2042 54.3658 97.4278C54.3658 97.6513 54.2793 97.8661 54.1243 98.0271C53.9694 98.1881 53.7581 98.2826 53.535 98.2909L53.5349 98.2909ZM56.4833 98.3944C56.2601 98.3863 56.0488 98.2918 55.8938 98.1308C55.7388 97.9698 55.6521 97.755 55.6521 97.5314C55.6521 97.3078 55.7388 97.0929 55.8938 96.9319C56.0488 96.771 56.2601 96.6765 56.4833 96.6683C56.7065 96.6765 56.9177 96.7711 57.0727 96.932C57.2276 97.0929 57.3142 97.3078 57.3142 97.5313C57.3142 97.7548 57.2277 97.9697 57.0727 98.1306C56.9178 98.2916 56.7065 98.3861 56.4834 98.3944L56.4833 98.3944ZM55.6845 99.5452L55.5063 99.1079L55.3224 99.5796L54.4775 101.76C55.2017 101.801 55.9316 101.864 56.6615 101.967L55.6845 99.5452ZM53.4487 99.1366L53.65 99.7408L54.2533 101.565L55.0983 99.6026L55.3339 99.0502C54.7075 99.0906 54.0753 99.1194 53.4488 99.1366H53.4487ZM53.2821 99.7752L53.1614 99.4357L53.0349 99.7983L52.3854 101.697C52.92 101.703 53.4545 101.714 53.9947 101.737L53.2821 99.7752ZM52.7936 99.148C52.5177 99.148 52.2418 99.1539 51.9603 99.1595C51.7188 99.1539 51.4775 99.1539 51.2304 99.148L51.2935 99.3093L51.5293 99.9479L52.0407 101.312L52.5924 99.8444L52.8511 99.1481L52.7936 99.148ZM50.9717 99.9997L50.8224 99.6371C50.7706 99.7695 50.7189 99.9018 50.6672 100.034C50.443 100.604 50.2188 101.173 49.9832 101.737C50.5464 101.714 51.1097 101.697 51.673 101.691L50.9717 99.9997ZM48.4946 99.0387C48.5866 99.2171 48.6728 99.4013 48.7591 99.5796C48.8567 99.7868 48.9545 99.9882 49.0522 100.195C49.2245 100.558 49.3969 100.914 49.5636 101.277C49.7131 100.88 49.8682 100.489 50.0177 100.098C50.1096 99.8732 50.2016 99.643 50.2935 99.4186C50.3281 99.3208 50.3683 99.2287 50.4085 99.1309C49.7706 99.1136 49.1326 99.0848 48.4946 99.0387H48.4946ZM55.6846 99.5451L55.5064 99.1079L55.3224 99.5796L54.4776 101.76C55.2017 101.801 55.9316 101.864 56.6615 101.967L55.6846 99.5451ZM53.4488 99.1366L53.65 99.7408L54.2534 101.565L55.0983 99.6025L55.3339 99.0502C54.7075 99.0906 54.0753 99.1194 53.4488 99.1366L53.4488 99.1366ZM53.2821 99.7752L53.1614 99.4357L53.035 99.7983L52.3855 101.697C52.9201 101.703 53.4545 101.714 53.9947 101.737L53.2821 99.7752ZM52.7937 99.148C52.5177 99.148 52.2418 99.1539 51.9603 99.1595C51.7189 99.1539 51.4775 99.1539 51.2304 99.148L51.2936 99.3093L51.5293 99.9479L52.0408 101.312L52.5925 99.8444L52.8511 99.148L52.7937 99.148ZM50.9717 99.9997L50.8224 99.6371C50.7707 99.7695 50.7189 99.9018 50.6672 100.034C50.443 100.604 50.2188 101.173 49.9832 101.737C50.5464 101.714 51.1098 101.697 51.673 101.691L50.9717 99.9997ZM48.4946 99.0387C48.5867 99.2171 48.6728 99.4013 48.7591 99.5795C48.8568 99.7867 48.9546 99.9882 49.0522 100.195C49.2245 100.558 49.397 100.914 49.5637 101.277C49.7131 100.88 49.8683 100.489 50.0177 100.097C50.1096 99.8732 50.2017 99.6429 50.2936 99.4186C50.3281 99.3208 50.3684 99.2287 50.4085 99.1309C49.7706 99.1136 49.1326 99.0848 48.4946 99.0387L48.4946 99.0387ZM52.7937 99.148C52.2936 99.1998 51.7937 99.2574 51.2936 99.3093L51.5294 99.9479C51.8799 99.9133 52.2363 99.8787 52.5925 99.8443L52.8511 99.148H52.7937ZM53.1615 99.4357L53.035 99.7983C53.1155 99.7925 53.2017 99.7867 53.2821 99.7752L53.1615 99.4357ZM53.4489 99.1366L53.6501 99.7408L55.0984 99.6025L55.334 99.0502C54.7075 99.0906 54.0753 99.1194 53.4488 99.1366L53.4489 99.1366ZM55.5064 99.1079L55.3225 99.5796C55.4431 99.5682 55.5639 99.5567 55.6846 99.5451L55.5064 99.1079ZM55.6558 99.0272L55.8398 99.5336L56.719 101.967V101.973C56.7346 101.972 56.7502 101.974 56.765 101.979L57.1673 99.407L57.2479 98.8718C56.7134 98.941 56.1845 98.987 55.6558 99.0272L55.6558 99.0272ZM56.7134 101.985C56.7134 101.99 56.7134 102.002 56.7019 102.002C56.6957 102.005 56.6888 102.005 56.6825 102.003C56.6761 102.001 56.6708 101.996 56.6674 101.99C55.1059 102.183 53.5337 102.275 51.9604 102.267C51.219 102.261 50.4776 102.244 49.7361 102.209C49.6994 102.236 49.6561 102.253 49.6107 102.258C49.5653 102.263 49.5193 102.256 49.4775 102.238C49.4532 102.224 49.4301 102.209 49.4085 102.192C48.6613 102.146 47.9085 102.082 47.1613 101.979L47.5464 104.453H56.38L56.765 101.979C56.7476 101.978 56.7302 101.98 56.7134 101.985L56.7134 101.985ZM49.3912 104.234C49.1675 104.227 48.9555 104.133 48.7998 103.972C48.6442 103.811 48.5572 103.595 48.5572 103.371C48.5572 103.147 48.6442 102.932 48.7998 102.771C48.9555 102.61 49.1675 102.516 49.3912 102.508C49.6149 102.516 49.827 102.61 49.9826 102.771C50.1383 102.932 50.2253 103.147 50.2253 103.371C50.2253 103.595 50.1383 103.811 49.9826 103.972C49.827 104.133 49.6149 104.227 49.3912 104.234V104.234ZM52.2879 104.234C52.0642 104.227 51.8521 104.133 51.6964 103.972C51.5408 103.811 51.4538 103.595 51.4538 103.371C51.4538 103.147 51.5408 102.932 51.6964 102.771C51.8521 102.61 52.0642 102.516 52.2879 102.508C52.5116 102.516 52.7236 102.61 52.8793 102.771C53.0349 102.932 53.1219 103.147 53.1219 103.371C53.1219 103.595 53.0349 103.811 52.8793 103.972C52.7236 104.133 52.5116 104.227 52.2879 104.234V104.234ZM55.1845 104.131C54.9608 104.123 54.7487 104.029 54.5931 103.868C54.4374 103.707 54.3504 103.492 54.3504 103.268C54.3504 103.044 54.4374 102.828 54.5931 102.667C54.7487 102.506 54.9608 102.412 55.1845 102.405C55.4082 102.412 55.6203 102.506 55.7759 102.667C55.9315 102.828 56.0185 103.044 56.0185 103.268C56.0186 103.492 55.9316 103.707 55.7759 103.868C55.6203 104.029 55.4082 104.123 55.1845 104.131H55.1845ZM55.6846 99.5451L55.5064 99.1078L55.3224 99.5795L54.4776 101.76C55.2017 101.801 55.9316 101.864 56.6615 101.967L55.6846 99.5451ZM53.4488 99.1366L53.65 99.7408L54.2534 101.565L55.0983 99.6025L55.3339 99.0502C54.7075 99.0906 54.0753 99.1194 53.4488 99.1366L53.4488 99.1366ZM53.2821 99.7752L53.1614 99.4357L53.035 99.7982L52.3855 101.697C52.9201 101.703 53.4545 101.714 53.9947 101.737L53.2821 99.7752ZM52.7937 99.148C52.5177 99.148 52.2418 99.1539 51.9603 99.1595C51.7189 99.1539 51.4775 99.1539 51.2304 99.148L51.2936 99.3092L51.5293 99.9478L52.0407 101.312L52.5925 99.8443L52.8511 99.148L52.7937 99.148ZM50.9717 99.9997L50.8224 99.6371C50.7706 99.7695 50.7189 99.9018 50.6672 100.034C50.443 100.604 50.2188 101.173 49.9832 101.737C50.5464 101.714 51.1098 101.697 51.673 101.691L50.9717 99.9997ZM48.4946 99.0387C48.5867 99.2171 48.6728 99.4013 48.7591 99.5795C48.8568 99.7867 48.9546 99.9882 49.0522 100.195C49.2245 100.558 49.397 100.914 49.5637 101.277C49.7131 100.88 49.8683 100.489 50.0177 100.097C50.1096 99.8731 50.2017 99.6429 50.2936 99.4186C50.3281 99.3208 50.3684 99.2286 50.4085 99.1309C49.7706 99.1136 49.1326 99.0848 48.4946 99.0387L48.4946 99.0387ZM48.5694 100.241C48.489 100.04 48.4027 99.8328 48.3223 99.6256C48.2763 99.5163 48.2362 99.4013 48.1901 99.2918C48.1269 99.4128 48.058 99.5393 47.9947 99.6602C47.8797 99.8846 47.7591 100.109 47.6384 100.333C47.4602 100.673 47.2763 101.012 47.0867 101.352C47.0844 101.354 47.0816 101.356 47.0786 101.357C47.0756 101.358 47.0724 101.358 47.0693 101.357L47.1613 101.979C47.8395 101.881 48.5235 101.824 49.2016 101.777C48.9947 101.266 48.782 100.753 48.5694 100.241L48.5694 100.241ZM49.0522 100.195C49.2245 100.558 49.397 100.914 49.5637 101.277C49.7131 100.88 49.8683 100.489 50.0177 100.097C49.6958 100.126 49.3741 100.161 49.0522 100.195L49.0522 100.195ZM50.9717 99.9997C50.8683 100.011 50.7649 100.023 50.6673 100.034C50.443 100.604 50.2188 101.173 49.9832 101.737C50.5465 101.714 51.1098 101.697 51.673 101.691L50.9717 99.9997ZM51.5293 99.9478L52.0408 101.312L52.5925 99.8443C52.2362 99.8788 51.8798 99.9133 51.5293 99.9479L51.5293 99.9478ZM53.2822 99.7752C53.2018 99.7867 53.1155 99.7925 53.0351 99.7982L52.3856 101.697C52.9201 101.703 53.4546 101.714 53.9948 101.737L53.2822 99.7752ZM53.6501 99.7408L54.2534 101.565L55.0984 99.6026L53.6501 99.7408ZM55.6846 99.5451C55.5639 99.5566 55.4432 99.5681 55.3224 99.5795L54.4776 101.76C55.2017 101.801 55.9316 101.864 56.6615 101.967L55.6846 99.5451ZM46.6785 98.8719L46.8222 99.7868L46.9141 100.408L47.0522 101.277C47.1729 100.966 47.2935 100.661 47.4142 100.356C47.5003 100.132 47.5924 99.9133 47.6843 99.6947C47.7762 99.4646 47.8683 99.2344 47.9659 99.0042C47.5349 98.9698 47.1096 98.9237 46.6785 98.8719Z" fill="#111111"/>
<path d="M52.7579 97.5635C52.2782 97.1316 51.923 96.5788 51.7293 95.9628C51.6389 95.6556 51.5218 95.3513 51.4529 95.0373L51.2584 94.0906C51.0997 92.8157 51.0513 91.5295 51.1136 90.2462C51.1362 88.9608 51.3281 87.6943 51.4769 86.4226C51.7096 85.167 51.8889 83.8972 52.1934 82.6578C52.4791 81.4133 52.7648 80.1692 53.1258 78.9462C53.4737 77.7193 53.8077 76.4892 54.2364 75.2884C54.6509 74.0837 55.0228 72.8658 55.4838 71.6787C55.9502 70.4933 56.3929 69.3008 56.8788 68.125C56.2027 70.5813 55.4199 72.9962 54.7617 75.4473L54.2497 77.2789L53.7784 79.1203C53.6262 79.7348 53.4424 80.3419 53.3056 80.9597L52.8897 82.8114C52.5737 84.0386 52.3958 85.2898 52.1419 86.5285C51.9556 87.7757 51.7596 89.024 51.6589 90.2797C51.5349 91.5324 51.5164 92.7934 51.6036 94.0492L51.7153 94.9839C51.7566 95.2954 51.8452 95.5958 51.9082 95.9047C52.0516 96.5189 52.3434 97.0885 52.7579 97.5635Z" fill="#111111"/>
<path d="M47.0645 101.342L47.0527 101.277L47.0351 101.33C47.0292 101.341 47.0351 101.353 47.0468 101.365C47.0585 101.371 47.0645 101.365 47.0702 101.359L47.0645 101.342Z" fill="#FCFCFC"/>
<path d="M67.4019 102.449C69.2867 101.929 71.1987 101.515 73.1293 101.207C75.0557 100.874 76.9992 100.649 78.9508 100.533C77.0663 101.053 75.1542 101.468 73.2233 101.775C71.2968 102.107 69.3533 102.332 67.4019 102.449V102.449Z" fill="#111111"/>
<path d="M90.2139 102.197C92.0986 101.677 94.0107 101.263 95.9414 100.955C97.8677 100.622 99.8112 100.396 101.763 100.281C99.8782 100.801 97.9661 101.216 96.0352 101.522C94.1087 101.855 92.1653 102.08 90.2139 102.197V102.197Z" fill="#111111"/>
<path d="M113.605 98.1383C115.49 97.6188 117.402 97.2043 119.333 96.8966C121.259 96.563 123.203 96.3379 125.154 96.2222C123.27 96.7429 121.358 97.1575 119.427 97.4638C117.5 97.7961 115.557 98.0212 113.605 98.1383V98.1383Z" fill="#111111"/>
<path d="M211.288 134.496C210.088 133.681 209.031 132.673 208.159 131.512C207.266 130.374 206.46 129.169 205.75 127.908C205.036 126.651 204.39 125.358 203.795 124.043C203.199 122.725 202.644 121.401 202.148 120.027L202.694 120.368C199.813 120.742 196.886 120.488 194.112 119.625C192.734 119.22 191.386 118.718 190.081 118.12C188.774 117.539 187.502 116.883 186.271 116.156C183.817 114.711 181.484 113.07 179.294 111.248C177.105 109.437 175.034 107.486 173.095 105.409L173.086 105.399C173.017 105.324 172.98 105.227 172.981 105.125C172.982 105.024 173.022 104.927 173.092 104.854C173.929 103.987 174.795 103.182 175.693 102.399C176.587 101.613 177.53 100.884 178.493 100.184C179.456 99.4748 180.481 98.8548 181.555 98.3313C182.63 97.7581 183.819 97.43 185.036 97.3705C185.059 97.3705 185.083 97.3744 185.105 97.3819C186.247 97.7775 187.398 98.1443 188.544 98.5267L191.985 99.663C194.276 100.431 196.582 101.153 198.884 101.89L198.441 102.13L201.46 89.4785C202.478 85.2642 203.514 81.0548 204.57 76.8503L204.556 76.9167C204.63 76.5555 204.743 76.2036 204.894 75.8674C205.026 75.5534 205.181 75.2605 205.336 74.9667C205.66 74.3999 206.022 73.8561 206.42 73.3393C207.202 72.3247 208.074 71.3825 209.025 70.5244C210.902 68.8335 212.943 67.3347 215.118 66.0505C216.205 65.3963 217.333 64.8103 218.493 64.2958C219.657 63.7917 220.852 63.3595 222.07 63.0014C224.506 62.2788 227.032 61.9028 229.573 61.8842C232.111 61.8576 234.639 62.1966 237.08 62.8907C238.303 63.2402 239.493 63.6961 240.636 64.2529C240.919 64.4009 241.194 64.5648 241.472 64.72L241.888 64.9562L242.284 65.2275C242.546 65.4109 242.815 65.5849 243.071 65.776L243.807 66.3931C245.733 68.092 247.1 70.3343 247.73 72.8256C248.278 75.2761 248.348 77.8094 247.936 80.2863C247.934 80.2956 247.931 80.3046 247.926 80.3126C247.922 80.3206 247.915 80.3277 247.908 80.3332C247.9 80.3388 247.892 80.3429 247.882 80.3451C247.873 80.3474 247.864 80.3479 247.855 80.3465C247.837 80.3436 247.821 80.3341 247.809 80.3199C247.798 80.3057 247.793 80.2878 247.794 80.2698C248.033 77.8231 247.82 75.3533 247.164 72.9842C246.464 70.6698 245.091 68.6167 243.22 67.0864L242.511 66.5393C242.265 66.3709 242.006 66.2186 241.755 66.0575L241.375 65.8188L240.975 65.6139C240.707 65.4791 240.445 65.3358 240.174 65.2079C239.077 64.7126 237.94 64.3112 236.775 64.008C234.434 63.4053 232.017 63.1429 229.601 63.2289C228.396 63.2659 227.195 63.3881 226.007 63.5947C224.818 63.7889 223.643 64.0632 222.49 64.4156C221.338 64.7693 220.208 65.1929 219.107 65.6842C218.01 66.1843 216.941 66.7431 215.904 67.358C213.817 68.5966 211.848 70.024 210.021 71.6223C209.122 72.4101 208.295 73.2773 207.551 74.2133C207.187 74.6718 206.855 75.1548 206.557 75.6589C206.421 75.911 206.281 76.1626 206.17 76.419C206.065 76.6468 205.981 76.8836 205.917 77.1264L205.904 77.1932C204.804 81.3864 203.687 85.5751 202.551 89.7591L199.107 102.302L199.104 102.312C199.093 102.355 199.072 102.396 199.045 102.431C199.018 102.466 198.984 102.495 198.945 102.517C198.906 102.539 198.864 102.554 198.819 102.559C198.775 102.565 198.73 102.561 198.688 102.55L198.664 102.542C196.387 101.736 194.113 100.916 191.824 100.141L188.397 98.9639C187.253 98.5752 186.115 98.1706 184.966 97.795L185.036 97.8063C183.888 97.8764 182.769 98.1984 181.76 98.7494C180.722 99.2815 179.737 99.9096 178.817 100.625C177.885 101.333 176.993 102.093 176.146 102.9C175.297 103.703 174.466 104.541 173.697 105.405L173.693 104.85C175.68 106.816 177.79 108.652 180.011 110.349C182.208 112.064 184.514 113.634 186.915 115.049C188.116 115.747 189.339 116.404 190.598 116.978C191.847 117.565 193.138 118.062 194.459 118.464C197.066 119.325 199.824 119.633 202.557 119.37L202.577 119.368C202.691 119.356 202.806 119.384 202.901 119.446C202.997 119.509 203.069 119.602 203.104 119.712C203.53 121.051 204.034 122.393 204.57 123.707C205.108 125.024 205.696 126.321 206.351 127.582C206.978 128.857 207.698 130.084 208.507 131.252C209.299 132.431 210.264 133.485 211.368 134.378C211.384 134.389 211.394 134.406 211.397 134.425C211.4 134.444 211.395 134.463 211.384 134.478C211.373 134.492 211.357 134.502 211.34 134.506C211.322 134.509 211.304 134.506 211.288 134.496Z" fill="#111111"/>
</svg>
