<svg width="289" height="230" viewBox="0 0 289 230" fill="none" xmlns="http://www.w3.org/2000/svg">
<path opacity="0.5" fill-rule="evenodd" clip-rule="evenodd" d="M135.87 38.0001C161.24 38.0601 171.023 69.3969 188.081 88.2384C207.953 110.188 242.367 124.458 240.958 154.077C239.412 186.583 212.005 213.969 181.566 225.212C153.763 235.481 123.504 223.417 99.1849 206.44C79.5131 192.708 70.7765 169.478 67.5906 145.648C64.8125 124.867 72.1297 105.679 83.3495 87.9905C96.9803 66.5005 110.481 37.94 135.87 38.0001Z" fill="white"/>
<path d="M164.851 72.4394C164.851 72.4394 163.113 71.4049 161.491 73.244C161.491 73.244 158.593 69.1609 146.309 72.6968C146.309 72.6968 147.932 75.7728 149.09 75.7728C150.249 75.7728 146.889 81.0603 143.76 80.8304C143.76 80.8304 138.429 88.5316 142.485 96.003C146.483 103.367 149.355 105.706 153.32 100.929C153.441 100.781 153.577 100.645 153.725 100.523C154.865 99.5899 159.914 95.7116 161.703 98.6035C162.084 99.2459 162.194 100.012 162.007 100.734C161.19 104.127 157.371 116.622 146.309 111.635C146.309 111.635 133.418 106.841 136.459 95.482C136.784 94.3267 137.255 93.2169 137.862 92.1793C138.447 91.1193 138.807 89.952 138.921 88.749C139.035 87.546 138.9 86.3325 138.525 85.183C138.058 83.5443 137.007 82.1298 135.567 81.2034C134.171 80.3395 132.33 79.9532 130.935 82.3689C130.358 83.3739 130.054 84.5102 130.053 85.6667C130.05 86.7253 130.248 88.0236 131.128 88.6466L130.052 90.7156C129.468 89.5354 128.72 88.4419 127.831 87.4666C126.342 85.9707 125.385 84.034 125.106 81.9501C124.712 78.6444 125.186 73.7086 129.158 67.9566C129.158 67.9566 134.488 57.3818 144.455 57.6117C154.421 57.8415 162.997 60.4852 164.851 72.4394Z" fill="#111111"/>
<path d="M148.163 86.2329C149.894 85.8402 151.673 85.6948 153.446 85.8012C154.339 85.8452 155.225 85.9785 156.091 86.1991C156.974 86.3872 157.795 86.7943 158.478 87.3824C157.69 87.0197 156.849 86.7848 155.987 86.6866C155.135 86.5652 154.275 86.4768 153.408 86.4383C151.675 86.3317 149.933 86.3235 148.163 86.2329Z" fill="#111111"/>
<path d="M164.851 86.0688C164.217 86.2599 163.631 86.5805 163.129 87.0098C162.892 87.2044 162.698 87.4465 162.561 87.7203C162.424 87.9942 162.347 88.2935 162.334 88.599C162.381 89.2256 162.546 89.8379 162.822 90.4036L163.58 92.2515C164.145 93.5018 164.474 94.8446 164.549 96.2128C164.548 96.5734 164.481 96.9307 164.352 97.2677C164.214 97.6088 163.987 97.9077 163.695 98.1343C163.102 98.5049 162.401 98.6699 161.703 98.6036C162.358 98.5484 162.981 98.3012 163.493 97.8937C163.703 97.6713 163.862 97.4059 163.957 97.1162C164.053 96.8265 164.084 96.5195 164.047 96.2169C163.997 95.5769 163.866 94.9456 163.657 94.3381C163.462 93.7158 163.229 93.0991 162.981 92.4848C162.743 91.8659 162.485 91.2505 162.254 90.6168C162.143 90.2968 162.03 89.9778 161.943 89.6403C161.835 89.2916 161.798 88.9248 161.835 88.5617C161.874 88.2006 161.992 87.8524 162.182 87.542C162.372 87.2316 162.629 86.9667 162.934 86.766C163.508 86.3854 164.165 86.1464 164.851 86.0688V86.0688Z" fill="#111111"/>
<path d="M164.852 72.4395C165.069 73.7279 165.23 75.0232 165.336 76.3254C165.457 77.6256 165.531 78.9296 165.56 80.2375C165.58 81.5453 165.56 82.8554 165.457 84.1665C165.397 85.5029 165.096 86.8179 164.569 88.0492C164.561 88.0645 164.551 88.0786 164.54 88.0912C164.133 88.5255 163.751 88.9822 163.396 89.4591C163.22 89.698 163.063 89.9504 162.927 90.2139C162.776 90.4706 162.716 90.7698 162.756 91.0643C162.663 90.768 162.679 90.4485 162.803 90.1634C162.91 89.8758 163.039 89.5972 163.191 89.3302C163.493 88.7979 163.843 88.2934 164.236 87.8227L164.207 87.8645C164.432 87.2764 164.581 86.6628 164.652 86.0379C164.753 85.4075 164.793 84.7639 164.841 84.1224C164.918 82.8347 164.931 81.5394 164.939 80.2432C164.939 77.649 164.881 75.0501 164.852 72.4395Z" fill="#111111"/>
<path d="M157.898 94.9686C157.776 95.2181 157.677 95.4782 157.603 95.7457C157.527 95.9928 157.511 96.254 157.555 96.5085C157.591 96.7607 157.702 96.9965 157.874 97.1857C158.056 97.3945 158.258 97.5852 158.477 97.7549C158.337 97.7136 158.199 97.6646 158.064 97.608C157.933 97.5364 157.809 97.4519 157.695 97.3557C157.456 97.1503 157.295 96.8702 157.238 96.5615C157.197 96.2559 157.243 95.945 157.371 95.6639C157.49 95.3947 157.67 95.1566 157.898 94.9686V94.9686Z" fill="#111111"/>
<path d="M131.128 88.6466C131.529 89.1459 131.849 89.7043 132.076 90.3016C132.198 90.6065 132.286 90.9236 132.339 91.2474C132.368 91.4171 132.379 91.5892 132.373 91.7611L132.37 91.8935L132.378 91.9653C132.375 92.012 132.385 92.0586 132.407 92.0998C132.507 92.3101 132.682 92.4755 132.899 92.5632C133.157 92.6937 133.428 92.7956 133.708 92.867C134.303 93.0262 134.915 93.1143 135.532 93.1294C134.923 93.3661 134.263 93.4444 133.615 93.3568C133.277 93.3227 132.946 93.2385 132.633 93.1071C132.449 93.0363 132.28 92.93 132.138 92.7944C131.995 92.6587 131.881 92.4965 131.802 92.3169C131.761 92.2158 131.74 92.1073 131.742 91.9981L131.74 91.8368L131.745 91.736C131.752 91.597 131.749 91.4576 131.736 91.319C131.71 91.0245 131.664 90.7321 131.597 90.444C131.466 89.8535 131.293 89.2597 131.128 88.6466Z" fill="#111111"/>
<path d="M130.053 90.7156C129.794 91.6453 129.429 92.5427 128.966 93.3904C128.512 94.2507 127.964 95.0588 127.332 95.8002C126.7 96.5557 125.95 97.206 125.111 97.7266C124.269 98.2441 123.306 98.5346 122.317 98.5694C123.222 98.2996 124.073 97.8744 124.83 97.313C125.571 96.7476 126.246 96.1014 126.842 95.3866C127.454 94.6727 128.02 93.9211 128.536 93.1363C129.055 92.3478 129.571 91.5483 130.053 90.7156Z" fill="#111111"/>
<path d="M138.545 117.612C139.277 117.294 139.969 116.892 140.608 116.415C141.242 115.945 141.843 115.434 142.407 114.885C142.989 114.352 143.511 113.756 144.053 113.172L144.842 112.269C145.099 111.961 145.356 111.65 145.638 111.352C145.477 111.725 145.289 112.085 145.102 112.448C144.89 112.793 144.682 113.145 144.449 113.48C143.979 114.151 143.445 114.776 142.853 115.345C142.259 115.919 141.597 116.418 140.88 116.832C140.169 117.26 139.372 117.526 138.545 117.612V117.612Z" fill="#111111"/>
<path d="M126.951 95.5929C126.374 94.7453 125.661 93.9975 124.839 93.3796C124.668 93.2298 124.461 93.1263 124.238 93.0794C124.015 93.0324 123.783 93.0435 123.566 93.1116C123.181 93.3706 122.905 93.7598 122.79 94.2063C122.631 94.6823 122.517 95.1716 122.449 95.6683C122.414 95.9153 122.384 96.1723 122.361 96.4099C122.363 96.6361 122.383 96.9019 122.406 97.1491C122.505 98.1627 122.695 99.1657 122.972 100.146C123.482 102.142 124.274 104.056 125.325 105.831C126.39 107.605 127.664 109.248 129.12 110.724C129.85 111.456 130.609 112.161 131.379 112.849C132.179 113.503 132.943 114.206 133.776 114.807C134.178 115.129 134.621 115.39 135.04 115.684C135.484 115.938 135.91 116.225 136.373 116.44C137.267 116.922 138.217 117.292 139.203 117.54C141.172 118.058 143.264 117.841 145.081 116.928C146.907 115.962 148.441 114.53 149.525 112.781C149.529 112.774 149.536 112.768 149.544 112.765C149.552 112.763 149.561 112.764 149.569 112.767C149.576 112.772 149.581 112.778 149.584 112.786C149.586 112.794 149.586 112.803 149.583 112.81C148.64 114.709 147.157 116.294 145.318 117.369C144.377 117.898 143.341 118.243 142.267 118.384C141.19 118.51 140.099 118.441 139.047 118.18C138.002 117.934 136.997 117.547 136.059 117.028C135.58 116.793 135.145 116.487 134.691 116.214C134.264 115.903 133.813 115.622 133.409 115.284C132.561 114.652 131.818 113.915 131.033 113.221C130.633 112.884 130.294 112.48 129.927 112.109C129.572 111.724 129.189 111.367 128.861 110.96C127.488 109.387 126.243 107.71 125.134 105.944C124.005 104.179 123.106 102.279 122.458 100.29C122.142 99.2835 121.936 98.2463 121.842 97.1963C121.825 96.9272 121.809 96.6762 121.815 96.3844C121.845 96.1078 121.883 95.8506 121.926 95.586C122.011 95.058 122.145 94.5389 122.327 94.0354C122.408 93.7575 122.545 93.4985 122.729 93.2735C122.912 93.0485 123.139 92.8621 123.396 92.725C123.685 92.6126 124.005 92.6062 124.299 92.7068C124.565 92.7974 124.814 92.9327 125.035 93.1067C125.845 93.7912 126.514 94.6241 127.006 95.5598C127.008 95.5635 127.009 95.5675 127.01 95.5717C127.01 95.5758 127.01 95.58 127.009 95.5841C127.008 95.5881 127.006 95.5919 127.003 95.5952C127.001 95.5985 126.997 95.6013 126.994 95.6034C126.986 95.607 126.978 95.608 126.97 95.606C126.962 95.6041 126.955 95.5995 126.951 95.5929V95.5929Z" fill="#111111"/>
<path d="M97.1167 104.279C97.9607 104.516 98.7266 104.971 99.337 105.596C99.966 106.211 100.469 106.941 100.818 107.745C101.169 108.545 101.365 109.403 101.399 110.275C101.416 110.704 101.394 111.133 101.333 111.558C101.259 111.98 101.147 112.394 100.997 112.796C100.847 112.38 100.779 111.979 100.669 111.588C100.55 111.198 100.479 110.811 100.347 110.44C100.138 109.705 99.8801 108.983 99.5768 108.28C99.2726 107.581 98.9168 106.905 98.5125 106.258C98.089 105.57 97.6228 104.909 97.1167 104.279V104.279Z" fill="#111111"/>
<path d="M100.07 120.371C100.331 123.352 100.458 126.332 100.538 129.311C100.627 132.291 100.636 135.27 100.63 138.249C100.599 141.228 100.551 144.207 100.424 147.185C100.306 150.164 100.139 153.142 99.838 156.119C99.5755 153.138 99.4475 150.158 99.3677 147.178C99.2794 144.199 99.2698 141.22 99.2773 138.241C99.3101 135.262 99.3583 132.283 99.4856 129.305C99.6044 126.326 99.7703 123.348 100.07 120.371Z" fill="#111111"/>
<path d="M162.047 100.679C164.526 102.218 166.96 103.821 169.348 105.487C170.544 106.319 171.729 107.166 172.905 108.029L174.655 109.354C174.962 109.583 175.251 109.834 175.52 110.105L175.936 110.536L176.286 110.976C177.193 112.136 178.02 113.355 178.762 114.625C179.51 115.877 180.238 117.136 180.945 118.404C182.344 120.952 183.784 123.471 185.266 125.961C186.008 127.207 186.763 128.445 187.533 129.675L188.684 131.519C189.025 132.122 189.431 132.686 189.893 133.203C190.384 133.681 190.968 134.154 191.476 134.748C192.078 135.369 192.441 136.181 192.5 137.041C192.455 137.923 192.067 138.754 191.419 139.359C191.142 139.636 190.851 139.9 190.547 140.148C190.274 140.365 190.009 140.594 189.75 140.83C189.229 141.305 188.75 141.803 188.263 142.34C187.766 142.883 187.252 143.411 186.731 143.933C185.678 144.975 184.561 145.951 183.384 146.855C182.185 147.776 180.88 148.552 179.495 149.167C178.769 149.471 178.007 149.681 177.226 149.79C176.406 149.91 175.569 149.838 174.783 149.579C174.658 149.541 174.551 149.459 174.483 149.348L174.479 149.341C173.97 148.506 173.414 147.673 172.851 146.858C172.289 146.04 171.7 145.241 171.085 144.462C170.467 143.688 169.807 142.949 169.107 142.248C168.434 141.527 167.609 140.961 166.69 140.59L166.685 140.588C166.669 140.583 166.656 140.571 166.648 140.556C166.64 140.541 166.638 140.524 166.643 140.507C166.647 140.491 166.658 140.477 166.672 140.468C166.687 140.459 166.704 140.456 166.721 140.459C167.724 140.716 168.652 141.205 169.428 141.886C170.224 142.524 170.969 143.222 171.659 143.973C173.044 145.46 174.316 147.047 175.466 148.72L175.162 148.482C176.451 148.743 177.792 148.55 178.953 147.935C180.22 147.336 181.411 146.59 182.502 145.713C183.631 144.843 184.712 143.911 185.737 142.923C186.256 142.431 186.77 141.931 187.266 141.415C187.77 140.89 188.312 140.354 188.88 139.865C189.165 139.619 189.457 139.38 189.758 139.152C190.032 138.926 190.291 138.733 190.52 138.502C190.963 138.123 191.253 137.598 191.335 137.023C191.3 136.427 191.06 135.86 190.656 135.418C190.241 134.888 189.717 134.409 189.209 133.833C189.075 133.683 188.949 133.525 188.833 133.361L188.54 132.868L188.012 131.907L186.979 129.99C186.298 128.709 185.603 127.437 184.892 126.175C183.468 123.651 181.967 121.169 180.34 118.769C178.728 116.372 177.092 113.945 175.345 111.731L175.015 111.321L174.671 110.972C174.435 110.721 174.178 110.49 173.905 110.28L172.203 108.939L168.766 106.263C166.471 104.481 164.204 102.656 161.967 100.788C161.954 100.777 161.945 100.762 161.943 100.745C161.941 100.728 161.946 100.711 161.956 100.697C161.966 100.683 161.981 100.674 161.998 100.67C162.015 100.667 162.032 100.67 162.047 100.679V100.679Z" fill="#111111"/>
<path d="M171.109 122.363C169.924 126.781 168.805 131.209 167.87 135.654C167.39 137.858 167.054 140.09 166.865 142.337C166.801 143.417 166.795 144.61 166.699 145.766C166.606 146.945 166.407 148.114 166.105 149.257C165.393 151.519 164.253 153.625 162.746 155.462C162.05 156.383 161.312 157.274 160.621 158.169C160.288 158.614 159.951 159.055 159.653 159.53C159.333 159.989 159.043 160.472 158.755 160.956C157.622 162.921 156.608 164.952 155.72 167.038C154.783 169.116 153.975 171.251 153.185 173.399C154.191 168.908 155.751 164.558 157.832 160.447C158.369 159.408 158.984 158.41 159.672 157.462C160.355 156.526 161.054 155.633 161.713 154.709C163.099 152.98 164.147 151.009 164.801 148.898C165.092 147.834 165.286 146.748 165.383 145.651C165.49 144.532 165.487 143.439 165.59 142.242C165.832 139.942 166.251 137.662 166.844 135.425C167.98 130.984 169.405 126.621 171.109 122.363V122.363Z" fill="#111111"/>
<path d="M222.184 182.18C221.915 182.18 221.656 182.074 221.466 181.886C221.275 181.697 221.168 181.441 221.168 181.174C221.168 180.906 221.274 180.65 221.465 180.461C221.655 180.272 221.913 180.166 222.183 180.166L245.822 180.135H245.823C245.956 180.135 246.088 180.161 246.212 180.211C246.335 180.262 246.447 180.336 246.541 180.429C246.635 180.523 246.71 180.634 246.761 180.756C246.813 180.878 246.839 181.009 246.839 181.141C246.839 181.274 246.813 181.405 246.762 181.527C246.711 181.649 246.636 181.76 246.542 181.854C246.448 181.947 246.336 182.022 246.213 182.072C246.09 182.123 245.958 182.149 245.824 182.149L222.185 182.18H222.184Z" fill="#111111"/>
<path d="M71.8058 181.512L42 181.791L42.0192 183.805L71.8249 183.526L71.8058 181.512Z" fill="#111111"/>
<path d="M154.421 90.5241C154.672 90.5155 154.909 90.4108 155.083 90.2321C155.257 90.0534 155.354 89.8147 155.354 89.5662C155.354 89.3177 155.257 89.079 155.083 88.9003C154.909 88.7216 154.672 88.6169 154.421 88.6083C154.171 88.6169 153.934 88.7216 153.76 88.9003C153.586 89.079 153.489 89.3177 153.489 89.5662C153.489 89.8147 153.586 90.0534 153.76 90.2321C153.934 90.4108 154.171 90.5155 154.421 90.5241V90.5241Z" fill="#111111"/>
<path d="M179.98 189.823C183.394 192.13 187.234 193.743 191.28 194.569C193.289 194.953 195.337 195.098 197.38 195.002C199.419 194.893 201.439 194.553 203.4 193.989C207.317 192.806 211.012 190.995 214.339 188.628C215.174 188.07 215.964 187.446 216.7 186.764C217.434 186.072 218.127 185.338 218.772 184.564C220.064 183.016 221.181 181.334 222.105 179.546L222.04 179.817L222.04 179.811L222.04 179.796C222.042 179.707 222.063 179.62 222.104 179.54C222.902 177.986 223.554 176.362 224.052 174.69C224.546 173.009 224.866 171.283 225.005 169.538L225.008 169.501L225.012 169.478C225.022 169.443 225.01 169.46 225.022 169.522L225.016 169.416C225.294 165.884 224.793 162.334 223.548 159.013C222.277 155.697 220.309 152.688 217.774 150.186C215.268 147.726 212.291 145.79 209.019 144.49C205.746 143.191 202.244 142.556 198.72 142.622C195.196 142.688 191.72 143.453 188.499 144.874C185.278 146.294 182.377 148.341 179.967 150.892C177.55 153.453 175.669 156.464 174.432 159.75C173.2 163.079 172.627 166.613 172.746 170.158C172.746 170.167 172.745 170.176 172.741 170.184C172.738 170.193 172.733 170.2 172.727 170.207C172.721 170.214 172.713 170.219 172.705 170.223C172.697 170.226 172.688 170.228 172.678 170.229C172.661 170.229 172.644 170.222 172.631 170.211C172.617 170.199 172.609 170.183 172.607 170.166C172.176 166.571 172.522 162.926 173.623 159.475C174.732 155.987 176.574 152.771 179.026 150.04C181.485 147.288 184.5 145.078 187.875 143.555C191.256 142.035 194.926 141.249 198.639 141.248C202.327 141.212 205.982 141.946 209.366 143.403C212.749 144.86 215.786 147.007 218.278 149.704C220.745 152.366 222.67 155.478 223.945 158.866C225.217 162.26 225.832 165.863 225.757 169.483L225.751 169.378C225.766 169.459 225.765 169.543 225.747 169.623L225.754 169.563C225.705 171.378 225.465 173.183 225.038 174.948C224.617 176.721 224 178.442 223.199 180.081L223.263 179.811L223.263 179.817C223.264 179.907 223.244 179.996 223.204 180.077L223.198 180.089C222.261 181.979 221.089 183.745 219.71 185.346C219.023 186.148 218.289 186.907 217.511 187.621C216.718 188.326 215.874 188.972 214.985 189.554C211.538 191.955 207.702 193.754 203.643 194.871C199.565 195.969 195.28 196.073 191.153 195.174C187.081 194.21 183.251 192.428 179.901 189.936C179.887 189.926 179.877 189.91 179.874 189.892C179.871 189.874 179.875 189.856 179.885 189.841C179.895 189.826 179.911 189.816 179.929 189.813C179.947 189.809 179.965 189.813 179.98 189.823L179.98 189.823Z" fill="#111111"/>
<path d="M185.952 145.458C185.766 145.952 185.61 146.453 185.453 146.951C185.299 147.45 185.148 147.949 185.012 148.452C184.862 148.949 184.74 149.455 184.62 149.962L184.228 151.468L184.248 151.342C184.247 151.399 184.235 151.455 184.215 151.509C184.191 151.574 184.153 151.634 184.105 151.684C184.056 151.735 183.998 151.775 183.933 151.803C183.869 151.831 183.799 151.845 183.729 151.846L184.222 151.474C183.937 152.932 183.585 154.367 183.285 155.816C183.01 157.271 182.733 158.726 182.502 160.191C182.26 161.655 182.021 163.12 181.819 164.597C181.588 166.07 181.371 167.55 181.112 169.033C180.976 167.534 180.932 166.029 180.978 164.525C181.003 163.019 181.107 161.516 181.289 160.021C181.478 158.528 181.707 157.035 182.038 155.563C182.189 154.824 182.391 154.094 182.599 153.368C182.808 152.642 183.001 151.912 183.227 151.193L183.721 150.821C183.652 150.821 183.585 150.836 183.522 150.863C183.459 150.89 183.402 150.93 183.355 150.979C183.308 151.028 183.271 151.086 183.247 151.15C183.227 151.202 183.217 151.256 183.215 151.312L183.235 151.185C183.609 150.192 183.954 149.195 184.398 148.229C184.829 147.26 185.35 146.333 185.952 145.458V145.458Z" fill="#111111"/>
<path d="M212.229 145.458C213.152 147.033 213.914 148.696 214.504 150.421C214.832 151.275 215.064 152.156 215.347 153.025C215.598 153.902 215.807 154.789 216.037 155.673C216.84 159.233 217.356 162.85 217.58 166.49C217.811 170.123 217.814 173.767 217.589 177.4C217.476 179.214 217.271 181.021 217.096 182.826C216.815 184.622 216.572 186.42 216.249 188.204C216.279 186.386 216.396 184.583 216.461 182.777L216.574 177.364C216.565 176.463 216.56 175.562 216.567 174.662L216.572 173.312L216.523 171.963L216.451 169.266L216.283 166.575C216.068 162.988 215.655 159.415 215.047 155.873L214.524 153.229C214.315 152.356 214.146 151.469 213.898 150.605C213.478 148.849 212.92 147.128 212.229 145.458V145.458Z" fill="#111111"/>
<path d="M198.497 180.932C198.915 180.515 199.271 180.04 199.553 179.522C199.546 180.126 199.532 180.724 199.519 181.328C199.431 185.692 199.262 190.057 199.011 194.421C198.761 190.057 198.591 185.692 198.503 181.328C198.503 181.194 198.497 181.066 198.497 180.932Z" fill="#111111"/>
<path d="M198.679 176.614C198.679 176.614 199.126 176.084 199.614 175.385C199.607 176.064 199.6 176.749 199.587 177.427C199.352 177.09 199.042 176.811 198.679 176.614V176.614Z" fill="#111111"/>
<path d="M199.661 167.583V168.872L199.641 172.035C199.213 172.07 198.79 172.153 198.382 172.283C198.375 171.142 198.368 170.007 198.361 168.872V167.583C198.388 159.062 198.51 150.548 199.011 142.027C199.505 150.548 199.634 159.062 199.661 167.583Z" fill="#111111"/>
<path d="M175.001 157.313C178.762 155.655 182.699 154.42 186.737 153.632C190.781 152.812 194.895 152.378 199.022 152.338C201.087 152.277 203.149 152.441 205.21 152.555C206.236 152.668 207.258 152.816 208.282 152.945C208.792 153.017 209.306 153.069 209.814 153.156L211.328 153.478C215.366 154.283 219.291 155.57 223.016 157.313C222.027 157.033 221.046 156.743 220.073 156.442L218.612 155.997C218.124 155.856 217.618 155.771 217.122 155.655L214.152 154.97C213.155 154.781 212.148 154.637 211.149 154.469L209.648 154.226C209.146 154.16 208.64 154.12 208.136 154.066C207.127 153.97 206.12 153.854 205.111 153.772C203.086 153.698 201.064 153.545 199.037 153.627C194.978 153.661 190.927 153.993 186.917 154.618L183.911 155.135C182.917 155.343 181.915 155.529 180.922 155.757C178.927 156.177 176.96 156.714 175.001 157.313Z" fill="#111111"/>
<path d="M198.409 183.107L204.635 182.311C206.695 182.022 208.75 181.716 210.792 181.349C212.838 181.001 214.874 180.589 216.907 180.157C217.914 179.906 218.93 179.679 219.952 179.456L220.722 179.299L221.479 179.103C221.986 178.975 222.498 178.856 223.017 178.743C222.551 178.982 222.079 179.214 221.601 179.44C221.127 179.672 220.642 179.879 220.146 180.059C219.16 180.427 218.169 180.79 217.168 181.13C215.152 181.757 213.098 182.254 211.018 182.619C206.86 183.379 202.614 183.544 198.409 183.107Z" fill="#111111"/>
<path d="M172.602 168.228C173.936 168.147 175.269 168.08 176.603 168.026C176.239 168.123 175.882 168.242 175.533 168.382C174.552 168.335 173.577 168.281 172.602 168.228Z" fill="#111111"/>
<path d="M225.42 168.228C221.02 168.476 216.619 168.644 212.219 168.731C208.029 168.825 203.845 168.859 199.661 168.872H198.361C197.833 168.872 197.312 168.866 196.784 168.866C196.838 168.308 196.56 167.939 195.775 167.899C195.084 167.88 194.408 168.103 193.866 168.53C193.744 168.624 193.609 168.725 193.453 168.839C189.344 168.812 185.237 168.733 181.132 168.604C181.115 168.459 181.07 168.319 180.998 168.192C180.925 168.065 180.828 167.954 180.712 167.865C186.595 167.664 192.478 167.603 198.361 167.583H199.661C203.845 167.596 208.029 167.63 212.219 167.724C216.619 167.805 221.02 167.972 225.42 168.228Z" fill="#111111"/>
<path d="M183.732 151.327C183.732 151.328 183.732 151.329 183.731 151.329C183.731 151.33 183.73 151.331 183.73 151.332C183.729 151.332 183.728 151.333 183.728 151.333C183.727 151.333 183.726 151.334 183.725 151.334C183.098 152.507 182.61 153.749 182.269 155.033C182.263 155.047 182.263 155.067 182.256 155.08C181.748 157.021 181.999 157.377 181.328 159.29C180.949 160.372 180.611 160.996 180.8 161.889C180.981 162.451 181.209 162.997 181.484 163.521C181.565 163.689 181.647 163.87 181.741 164.071C182.208 165.092 182.324 165.334 182.222 165.643C182.093 166.019 181.796 166.066 181.247 166.395C181.054 166.507 180.87 166.635 180.699 166.777C180.374 167.02 180.074 167.294 179.805 167.597C177.776 167.575 175.777 168.092 174.017 169.094C173.597 169.329 173.144 169.564 172.656 169.812H172.649C172.629 169.524 172.622 169.235 172.609 168.946C172.602 168.704 172.602 168.469 172.602 168.228C172.597 164.459 173.415 160.735 174.999 157.31L175.005 157.303H175.012C175.649 155.915 176.41 154.587 177.287 153.335C180.232 150.488 183.407 149.01 184.463 149.017C184.577 149.007 184.691 149.04 184.781 149.111C185.018 149.346 184.449 149.991 183.732 151.327Z" fill="#111111"/>
<path d="M225.42 168.228C225.42 168.449 225.42 168.671 225.407 168.892C225.407 169.08 225.393 169.262 225.386 169.45C225.386 169.483 225.38 169.517 225.38 169.55C225.378 169.746 225.367 169.941 225.346 170.135C225.107 173.49 224.213 176.767 222.712 179.784C222.693 179.795 222.673 179.804 222.651 179.81V179.817C222.474 179.901 222.284 179.955 222.089 179.978C221.862 180.001 221.632 179.976 221.415 179.904C221.198 179.833 220.998 179.716 220.83 179.562C220.823 179.555 220.817 179.542 220.803 179.535C220.255 178.938 220.695 178.105 220.519 176.856C220.37 175.822 219.822 175.09 218.732 173.633C218.257 172.964 217.727 172.335 217.147 171.753C216.748 171.37 216.376 171.135 216.112 171.243C215.78 171.39 215.678 172.089 215.8 172.599C215.983 173.364 216.606 173.431 216.741 174.049C216.924 174.862 216.091 175.802 215.38 176.232C214.984 176.496 214.524 176.655 214.047 176.691C213.57 176.728 213.092 176.641 212.659 176.44C211.684 175.876 211.711 174.674 211.19 174.674C210.777 174.68 210.411 175.432 210.35 176.023C210.303 176.393 210.366 176.768 210.534 177.102C210.702 177.435 210.965 177.712 211.291 177.897C211.962 178.179 212.395 177.595 213.18 177.897C213.415 177.973 213.626 178.11 213.791 178.292C213.956 178.475 214.07 178.698 214.121 178.938C214.155 179.575 213.275 180.072 212.131 180.703C210.824 181.422 210.418 181.388 208.881 182.161C208.732 182.234 208.597 182.302 208.468 182.369C207.868 182.643 207.304 182.99 206.79 183.403C205.733 184.262 205.835 184.645 204.799 185.484C204.123 186.107 203.291 186.538 202.389 186.733C201.57 186.868 201.401 186.619 199.979 186.525C199.657 186.502 199.334 186.495 199.011 186.505C198.389 186.513 197.767 186.554 197.149 186.626C196.426 186.697 195.709 186.82 195.003 186.995C198.632 185.162 199.113 182.389 197.603 181.731C197.603 181.731 201.895 178.501 198.679 176.614C198.679 176.614 203.879 170.477 198.009 172.397C197.521 172.563 197.057 172.791 196.628 173.076C196.445 173.19 196.235 173.331 195.998 173.479L195.301 171.719V171.713C196.675 169.859 197.596 167.986 195.775 167.899C195.084 167.88 194.408 168.103 193.866 168.53C193.446 168.845 192.844 169.289 192.085 169.799L190.549 168.228C190.198 167.661 189.982 167.023 189.919 166.361C189.891 165.631 190.016 164.903 190.287 164.223C190.557 163.544 190.967 162.927 191.49 162.413C192.455 161.399 193.689 160.677 195.051 160.331C196.119 159.921 197.272 159.779 198.409 159.915C198.598 159.948 198.801 159.989 199.011 160.043C199.674 160.197 200.358 160.425 200.71 160.539C201.309 160.809 201.946 160.985 202.599 161.063C203.452 161.103 203.689 160.848 204.061 161.063C204.528 161.318 204.454 161.855 204.799 163.138C205.144 164.407 205.429 165.481 206.16 165.737C206.708 165.925 207.006 165.481 207.629 165.737C208.035 165.904 208.035 166.146 208.672 166.777C209.233 167.328 209.518 167.603 209.931 167.711C210.324 167.8 210.736 167.768 211.111 167.619C211.486 167.47 211.806 167.212 212.029 166.878C212.111 166.737 212.26 166.442 212.131 165.22C211.975 163.675 211.901 162.903 211.4 162.413C210.791 161.815 210.317 162.252 208.881 161.788C207.236 161.258 207.358 160.519 205.53 159.814C204.305 159.344 203.98 159.566 203.019 158.982C202.24 158.512 201.252 157.639 201.441 157.108C201.651 156.544 203.005 156.981 203.54 156.175C203.96 155.55 203.378 154.939 203.851 154.093C204.129 153.61 204.704 153.147 205.111 153.267C205.557 153.395 205.388 154.113 205.95 155.033C206.47 155.82 207.247 156.405 208.15 156.692C208.834 156.94 209.68 157.249 210.35 156.799C210.946 156.403 211.278 155.497 210.98 155.033C210.594 154.436 209.423 154.946 209.091 154.409C209.037 154.28 209.009 154.142 209.01 154.002C209.011 153.862 209.041 153.724 209.098 153.596C209.185 153.299 209.346 153.028 209.564 152.806C209.782 152.585 210.053 152.42 210.35 152.327C210.696 152.274 211.048 152.401 213.079 154.093C213.187 154.187 213.295 154.275 213.39 154.355L213.397 154.362C214.473 155.268 214.67 155.47 215.069 155.45C215.202 155.441 215.332 155.412 215.455 155.362C215.669 155.273 215.866 155.148 216.037 154.993C216.516 154.53 216.898 153.978 217.161 153.368C217.506 152.576 217.371 152.254 217.581 152.119C218.068 151.81 219.808 152.844 221.636 154.704C222.148 155.545 222.609 156.415 223.017 157.31C224.345 160.17 225.139 163.246 225.359 166.388C225.38 166.69 225.393 166.999 225.407 167.308C225.413 167.61 225.42 167.919 225.42 168.228Z" fill="#111111"/>
<path d="M148.163 30C148.542 31.5274 148.833 33.0749 149.036 34.635C149.259 36.1849 149.404 37.7406 149.533 39.2974C149.638 40.8561 149.725 42.416 149.733 43.9816C149.764 45.5544 149.704 47.1276 149.554 48.6936C149.174 47.1665 148.882 45.619 148.68 44.0588C148.456 42.5088 148.312 40.9531 148.184 39.3962C148.082 37.8374 147.994 36.2775 147.986 34.7118C147.956 33.1391 148.015 31.566 148.163 30V30Z" fill="#111111"/>
<path d="M157.925 49.9828C158.286 48.3906 158.735 46.8192 159.269 45.2755C159.779 43.7314 160.363 42.2167 160.961 40.7076C161.583 39.2079 162.22 37.7145 162.931 36.2503C163.624 34.7701 164.399 33.3291 165.253 31.9337C164.893 33.5264 164.445 35.0981 163.911 36.6417C163.4 38.1857 162.816 39.7005 162.216 41.2089C161.593 42.708 160.956 44.2014 160.245 45.6655C159.551 47.1454 158.777 48.5866 157.925 49.9828Z" fill="#111111"/>
<path d="M133.33 33.5452C134.168 34.7999 134.93 36.1026 135.613 37.4466C136.312 38.7737 136.939 40.1321 137.551 41.4965C138.141 42.871 138.714 44.2522 139.216 45.6645C139.741 47.0766 140.18 48.5186 140.532 49.9827C139.692 48.7289 138.929 47.4264 138.247 46.0822C137.548 44.7549 136.921 43.3965 136.31 42.0314C135.723 40.6563 135.149 39.2751 134.648 37.8626C134.123 36.4505 133.683 35.0089 133.33 33.5452V33.5452Z" fill="#111111"/>
<path d="M70.2795 142.708C69.6739 142.555 69.0574 142.448 68.4354 142.388C68.141 142.351 67.842 142.38 67.5609 142.475C67.2946 142.57 67.3786 142.86 67.5259 143.112C67.8697 143.616 68.2812 144.071 68.7492 144.464C69.2055 144.881 69.6893 145.277 70.1808 145.649C70.225 145.683 70.254 145.732 70.2614 145.787C70.2688 145.842 70.254 145.897 70.2203 145.941C70.1975 145.969 70.1677 145.992 70.1337 146.006C70.0997 146.02 70.0626 146.025 70.026 146.021C68.7452 145.88 67.5385 145.354 66.5677 144.513C66.0756 144.092 65.6672 143.583 65.3634 143.013C65.203 142.717 65.0885 142.399 65.0238 142.069C64.9863 141.877 64.9902 141.68 65.0354 141.49C65.0687 141.368 65.1293 141.255 65.2128 141.16C65.2387 141.113 65.2629 141.098 65.3015 141.025C65.8664 140.006 66.3484 138.852 66.839 137.746L68.2795 134.381C68.7625 133.257 69.2517 132.146 69.6659 131.008C70.0921 129.87 70.438 128.717 70.8386 127.554L72.0133 124.075C72.4128 122.918 72.9022 121.793 73.3418 120.651C75.1013 116.078 77.3543 111.707 80.0616 107.614C81.4285 105.56 83.0421 103.679 84.8668 102.011C85.0972 101.804 85.3217 101.59 85.5573 101.388L86.2957 100.818C86.7854 100.432 87.2984 100.076 87.8318 99.7521C88.9027 99.058 90.0865 98.5526 91.3309 98.2581L91.2615 98.2745C93.3772 97.6495 95.5595 97.2732 97.7637 97.1535C99.9438 96.9776 102.127 96.9216 104.307 96.9195C106.487 96.9204 108.665 96.9624 110.842 97.0456C113.018 97.1477 115.189 97.2774 117.363 97.4533L117.135 97.5302C117.976 96.6756 118.751 95.7599 119.455 94.7906L120.542 93.3287C120.889 92.7941 121.345 92.3372 121.881 91.9872C122.994 91.3586 124.302 91.1624 125.552 91.4366C126.774 91.654 127.937 92.1172 128.971 92.7978C128.975 92.8005 128.979 92.804 128.981 92.808C128.984 92.8121 128.986 92.8166 128.987 92.8214C128.988 92.8262 128.988 92.8312 128.987 92.836C128.986 92.8408 128.985 92.8454 128.982 92.8495C128.976 92.8574 128.967 92.8628 128.957 92.8646C128.947 92.8665 128.937 92.8647 128.929 92.8596C127.884 92.2412 126.722 91.8413 125.516 91.6845C124.339 91.4861 123.129 91.7112 122.104 92.3192C121.624 92.656 121.221 93.0893 120.922 93.591L119.878 95.0972C119.185 96.1237 118.404 97.0896 117.545 97.9843C117.518 98.0111 117.485 98.0319 117.449 98.0454C117.413 98.0589 117.375 98.0647 117.337 98.0625L117.316 98.0612C115.154 97.9302 112.983 97.8444 110.815 97.7867C108.646 97.7187 106.478 97.6831 104.31 97.6934C102.143 97.6993 99.9789 97.7877 97.8234 97.9215C95.6809 98.0131 93.5565 98.3523 91.4933 98.9321L91.4476 98.9439L91.4237 98.9486C90.2721 99.2259 89.1715 99.6806 88.1618 100.296C87.6384 100.597 87.134 100.929 86.6516 101.291L85.9198 101.827C85.6853 102.018 85.4609 102.222 85.2307 102.419C84.7618 102.804 84.3157 103.216 83.8948 103.653C83.4761 104.092 83.0298 104.507 82.6326 104.967C81.8551 105.901 81.0416 106.81 80.3587 107.821C77.545 111.818 75.2808 116.17 73.6258 120.76C73.2251 121.912 72.7755 123.046 72.4157 124.21L71.3582 127.709C70.9975 128.866 70.6915 130.069 70.2609 131.22C69.8511 132.382 69.3661 133.514 68.8962 134.639C68.428 135.769 67.9253 136.884 67.427 138.002C66.9116 139.121 66.4423 140.226 65.8079 141.337C65.7559 141.422 65.697 141.502 65.6318 141.577C65.6361 141.614 65.6042 141.589 65.6034 141.65C65.5812 141.758 65.5805 141.869 65.6014 141.977C65.6531 142.248 65.7447 142.509 65.8733 142.753C66.1426 143.266 66.4991 143.73 66.9271 144.123C67.8006 144.925 68.9002 145.443 70.0787 145.607L69.9239 145.979C69.4283 145.58 68.9547 145.166 68.4993 144.725C68.0265 144.289 67.6189 143.788 67.2888 143.238C67.2036 143.083 67.1532 142.912 67.141 142.736C67.1413 142.636 67.1727 142.538 67.2311 142.455C67.2895 142.373 67.3719 142.31 67.4673 142.276C67.786 142.18 68.1233 142.16 68.4513 142.218C69.0771 142.31 69.6949 142.45 70.2992 142.636C70.3039 142.637 70.3084 142.639 70.3122 142.642C70.3161 142.645 70.3193 142.649 70.3217 142.653C70.3241 142.658 70.3256 142.662 70.3262 142.667C70.3267 142.672 70.3263 142.677 70.3249 142.682C70.3221 142.691 70.3158 142.699 70.3074 142.704C70.299 142.708 70.289 142.71 70.2795 142.708Z" fill="#111111"/>
<path d="M199.558 175.347C199.856 174.909 200.122 174.451 200.354 173.976C200.468 173.742 200.559 173.498 200.626 173.246C200.704 173.015 200.708 172.765 200.638 172.531C200.59 172.429 200.514 172.343 200.419 172.283C200.324 172.222 200.214 172.189 200.1 172.188C199.848 172.159 199.593 172.167 199.343 172.212C198.827 172.305 198.32 172.447 197.831 172.637C197.347 172.84 196.888 173.097 196.461 173.402C196.015 173.7 195.559 173.985 195.098 174.263C194.635 174.539 194.167 174.808 193.68 175.053C193.189 175.32 192.664 175.522 192.119 175.653C192.068 175.663 192.016 175.657 191.969 175.636C191.922 175.615 191.883 175.579 191.858 175.534C191.833 175.49 191.823 175.438 191.829 175.388C191.835 175.337 191.858 175.29 191.893 175.252L191.904 175.24C193.033 174.074 194.085 172.838 195.054 171.538L194.994 171.719L194.994 171.713C194.993 171.65 195.012 171.59 195.049 171.539L195.053 171.532C195.354 171.113 195.64 170.685 195.893 170.247C196.149 169.838 196.332 169.389 196.436 168.918C196.5 168.46 196.351 168.321 195.883 168.256C195.424 168.217 194.963 168.31 194.557 168.524C194.344 168.635 194.143 168.767 193.957 168.919C193.746 169.084 193.531 169.239 193.316 169.391C192.882 169.694 192.461 170.013 192.018 170.305C191.136 170.894 190.236 171.454 189.308 171.972C187.452 173.034 185.475 173.872 183.418 174.467C182.37 174.754 181.296 174.934 180.211 175.006C179.105 175.063 177.997 174.954 176.924 174.682C176.843 174.661 176.769 174.62 176.709 174.563C176.648 174.507 176.602 174.436 176.576 174.357C176.55 174.279 176.544 174.195 176.558 174.114C176.572 174.032 176.607 173.956 176.659 173.891L176.667 173.881L179.237 170.688L180.5 169.116C180.554 169.039 180.59 168.951 180.606 168.858C180.621 168.765 180.614 168.67 180.587 168.58C180.563 168.495 180.519 168.417 180.459 168.351C180.423 168.314 180.384 168.28 180.342 168.25C180.307 168.224 180.269 168.202 180.229 168.185C180.129 168.145 180.022 168.128 179.915 168.133C179.782 168.127 179.592 168.129 179.436 168.132C179.109 168.14 178.783 168.164 178.459 168.201C177.808 168.274 177.167 168.414 176.545 168.619C176.234 168.727 175.929 168.82 175.614 168.938C175.313 169.056 175.017 169.191 174.726 169.339L172.913 170.308C172.839 170.348 172.755 170.369 172.671 170.37L172.656 170.37H172.649L172.903 170.31C169.49 172.001 166.045 173.494 162.797 175.356L161.575 176.063C160.291 176.806 158.89 177.33 157.431 177.613C156.463 177.806 155.478 177.901 154.491 177.895C153.49 177.888 152.556 177.771 151.616 177.702L140.31 176.764L129.008 175.78C121.473 175.133 113.937 174.475 106.399 173.902L103.572 173.718C103.099 173.687 102.634 173.671 102.169 173.658C101.889 173.663 101.612 173.599 101.363 173.472C101.126 173.337 100.923 173.152 100.766 172.931C100.248 172.099 99.9095 171.169 99.7732 170.2C99.606 169.267 99.4922 168.326 99.4323 167.381C99.2399 163.621 99.3068 159.854 99.6324 156.103L99.7807 156.319C97.178 155.525 94.5776 154.71 92.0494 153.697C89.5108 152.71 87.0244 151.596 84.6002 150.358C82.177 149.119 79.816 147.763 77.4734 146.402C75.1299 145.055 72.7653 143.704 70.1975 143.01L70.6428 142.675C70.6479 150.104 70.8063 157.533 71.1179 164.961C71.2805 168.671 71.4881 172.38 71.7945 176.076C71.8608 177.002 71.954 177.924 72.0413 178.846C72.1231 179.77 72.22 180.691 72.3322 181.609C72.4393 182.53 72.5223 183.456 72.6937 184.325C72.8599 185.204 73.1062 186.067 73.4295 186.902C74.7692 190.259 77.1986 193.079 80.3338 194.914C81.8881 195.842 83.5675 196.547 85.3218 197.006C86.199 197.238 87.0906 197.412 87.9908 197.528C88.8972 197.639 89.8425 197.712 90.7663 197.806L93.5531 198.071L96.3467 198.251C98.2078 198.395 100.074 198.434 101.938 198.51C103.803 198.594 105.67 198.56 107.536 198.591C109.401 198.546 111.269 198.552 113.132 198.453C120.595 198.151 128.026 197.321 135.37 195.968C139.035 195.293 142.722 194.523 146.431 193.912C150.139 193.289 153.856 192.766 157.575 192.266C165.011 191.256 172.46 190.399 179.898 189.478C183.613 189.006 187.336 188.544 191.01 187.89L192.376 187.616C192.833 187.527 193.257 187.379 193.701 187.265C194.125 187.099 194.545 186.917 194.96 186.728C195.368 186.523 195.761 186.291 196.137 186.033C196.89 185.535 197.508 184.862 197.938 184.073C198.144 183.694 198.236 183.264 198.204 182.834C198.185 182.631 198.114 182.437 197.997 182.271C197.879 182.104 197.72 181.971 197.535 181.883C197.51 181.872 197.488 181.854 197.471 181.833C197.455 181.811 197.444 181.785 197.439 181.758C197.435 181.731 197.437 181.703 197.446 181.677C197.454 181.651 197.47 181.628 197.49 181.609L197.5 181.599C197.906 181.267 198.293 180.913 198.66 180.539C199.016 180.159 199.312 179.727 199.537 179.258C199.653 179.034 199.724 178.79 199.745 178.539C199.765 178.288 199.736 178.036 199.658 177.796C199.452 177.324 199.092 176.934 198.635 176.689C198.625 176.683 198.617 176.675 198.61 176.666C198.603 176.657 198.598 176.646 198.595 176.635C198.592 176.624 198.592 176.612 198.594 176.601C198.595 176.59 198.599 176.579 198.605 176.569L198.612 176.559L199.558 175.347L199.561 175.343C199.572 175.329 199.588 175.32 199.606 175.318C199.623 175.315 199.641 175.32 199.655 175.33C199.67 175.341 199.679 175.357 199.682 175.374C199.684 175.392 199.68 175.409 199.669 175.424L198.746 176.67L198.724 176.54C199.225 176.795 199.625 177.211 199.858 177.719C199.953 177.985 199.994 178.266 199.979 178.548C199.964 178.829 199.894 179.104 199.771 179.359C199.547 179.858 199.247 180.321 198.883 180.732C198.512 181.13 198.119 181.508 197.706 181.863L197.671 181.578C197.913 181.685 198.124 181.853 198.282 182.064C198.439 182.276 198.54 182.525 198.572 182.786C198.626 183.287 198.534 183.793 198.306 184.244C197.866 185.111 197.217 185.856 196.418 186.416C196.03 186.697 195.623 186.951 195.2 187.177C194.771 187.387 194.335 187.589 193.892 187.774C193.433 187.907 192.972 188.077 192.512 188.179L191.129 188.49C187.433 189.213 183.719 189.739 180.007 190.276L157.733 193.375C154.026 193.913 150.324 194.473 146.645 195.132C144.803 195.439 142.973 195.833 141.139 196.186C139.308 196.561 137.467 196.95 135.617 197.291C128.213 198.673 120.719 199.527 113.192 199.849C105.664 200.186 98.1213 199.959 90.6278 199.172C89.6875 199.071 88.7635 198.994 87.8101 198.872C86.8515 198.743 85.9026 198.552 84.9693 198.299C83.0956 197.797 81.3035 197.032 79.6469 196.029C76.279 194.027 73.6796 190.97 72.2594 187.34C71.916 186.436 71.6556 185.503 71.4815 184.553C71.3008 183.594 71.2231 182.665 71.1237 181.739C71.0216 180.81 70.9359 179.88 70.8666 178.95C70.7908 178.02 70.7091 177.091 70.6545 176.161C70.3947 172.441 70.2349 168.719 70.1201 164.998C69.894 157.554 69.8326 150.111 69.936 142.668L69.9361 142.661C69.9366 142.616 69.9462 142.571 69.9643 142.529C69.9824 142.487 70.0085 142.449 70.0413 142.418C70.0741 142.386 70.1129 142.361 70.1554 142.344C70.198 142.327 70.2434 142.319 70.2892 142.32C70.3204 142.32 70.3514 142.325 70.3814 142.333C73.0704 143.102 75.4466 144.514 77.7757 145.893C80.1075 147.283 82.4237 148.68 84.8299 149.92C87.2335 151.162 89.6994 152.282 92.218 153.275C94.7269 154.295 97.311 155.12 99.8987 155.923C99.9443 155.937 99.9838 155.966 100.011 156.005C100.038 156.045 100.05 156.092 100.047 156.139C99.7234 159.866 99.6745 163.612 99.9007 167.346C99.9656 168.273 100.083 169.195 100.253 170.109C100.384 171.001 100.697 171.858 101.171 172.627C101.286 172.79 101.435 172.926 101.609 173.026C101.782 173.112 101.974 173.153 102.168 173.145C102.649 173.155 103.128 173.168 103.599 173.196L106.435 173.354C113.99 173.8 121.535 174.328 129.082 174.854L140.4 175.659L151.711 176.539C152.656 176.604 153.604 176.714 154.495 176.714C155.4 176.714 156.303 176.622 157.19 176.441C158.075 176.259 158.938 175.987 159.765 175.628C160.179 175.449 160.582 175.248 160.973 175.025L162.206 174.323C165.524 172.45 169.034 170.955 172.395 169.315L172.403 169.311C172.48 169.274 172.564 169.255 172.65 169.255H172.656L172.399 169.316L174.221 168.359C174.542 168.197 174.872 168.049 175.211 167.919C175.538 167.798 175.89 167.69 176.229 167.577C176.914 167.358 177.62 167.209 178.336 167.133C178.694 167.094 179.054 167.07 179.414 167.064C179.602 167.062 179.755 167.06 179.965 167.069C180.202 167.071 180.437 167.119 180.656 167.211C180.773 167.262 180.884 167.327 180.987 167.404C181.082 167.475 181.171 167.555 181.252 167.642C181.423 167.831 181.547 168.057 181.614 168.302C181.68 168.541 181.693 168.792 181.65 169.036C181.607 169.281 181.511 169.512 181.367 169.715L180.053 171.334L177.46 174.513L177.203 173.712C178.17 173.962 179.168 174.073 180.167 174.04C181.185 173.988 182.194 173.834 183.18 173.58C185.177 173.035 187.1 172.255 188.909 171.256C189.823 170.764 190.716 170.229 191.588 169.665C192.026 169.387 192.447 169.079 192.878 168.787C193.093 168.64 193.307 168.491 193.512 168.337C193.736 168.161 193.978 168.008 194.233 167.88C194.767 167.612 195.368 167.503 195.964 167.566C196.318 167.59 196.65 167.748 196.89 168.007C196.997 168.151 197.071 168.316 197.108 168.49C197.145 168.665 197.143 168.845 197.104 169.019C196.981 169.57 196.762 170.096 196.455 170.571C196.178 171.027 195.875 171.469 195.549 171.893L195.609 171.713L195.608 171.719L195.608 171.728C195.608 171.791 195.587 171.851 195.548 171.9C194.531 173.197 193.43 174.428 192.254 175.584L192.039 175.171C193.044 174.886 194.003 174.462 194.889 173.911C195.351 173.647 195.81 173.376 196.261 173.091C196.714 172.784 197.2 172.529 197.711 172.329C198.226 172.143 198.759 172.007 199.301 171.924C199.582 171.884 199.866 171.885 200.146 171.927C200.302 171.94 200.452 171.995 200.578 172.087C200.704 172.178 200.803 172.303 200.863 172.446C200.943 172.727 200.933 173.026 200.833 173.301C200.754 173.562 200.651 173.816 200.523 174.057C200.272 174.532 199.986 174.989 199.669 175.423C199.659 175.438 199.643 175.448 199.626 175.451C199.608 175.454 199.59 175.45 199.576 175.44C199.561 175.43 199.551 175.415 199.548 175.397C199.544 175.38 199.548 175.362 199.558 175.347V175.347Z" fill="#111111"/>
<path d="M192.292 175.72C191.27 176.314 190.24 176.861 189.18 177.364C188.131 177.885 187.033 178.3 185.902 178.605C186.985 178.185 188.022 177.66 189 177.036C189.985 176.433 190.948 175.78 191.871 175.101L191.876 175.097C191.957 175.038 192.057 175.013 192.156 175.028C192.255 175.043 192.344 175.096 192.403 175.175C192.463 175.255 192.488 175.355 192.474 175.453C192.459 175.551 192.406 175.639 192.325 175.698C192.315 175.706 192.303 175.714 192.292 175.72V175.72Z" fill="#111111"/>
<path d="M198.903 176.918C197.153 178.099 195.382 179.231 193.565 180.299C192.655 180.83 191.739 181.35 190.791 181.814C190.321 182.053 189.839 182.269 189.347 182.459C189.103 182.561 188.852 182.644 188.595 182.708C188.342 182.781 188.08 182.821 187.816 182.827C188.077 182.806 188.335 182.751 188.582 182.663C188.832 182.585 189.075 182.488 189.31 182.373C189.786 182.155 190.251 181.914 190.703 181.65C191.614 181.134 192.493 180.563 193.364 179.983C195.102 178.817 196.8 177.584 198.458 176.316L198.462 176.313C198.541 176.253 198.641 176.226 198.74 176.239C198.839 176.251 198.929 176.302 198.99 176.381C199.051 176.459 199.078 176.559 199.065 176.657C199.052 176.755 199.001 176.844 198.922 176.905L198.903 176.918Z" fill="#111111"/>
<path d="M197.846 182.02C197.163 182.515 196.446 182.962 195.7 183.358C194.967 183.756 194.21 184.112 193.435 184.422C191.895 185.049 190.285 185.489 188.639 185.73C190.248 185.37 191.806 184.816 193.279 184.082C194.013 183.722 194.725 183.319 195.412 182.877C196.094 182.445 196.746 181.968 197.362 181.447L197.374 181.437C197.412 181.404 197.455 181.38 197.502 181.364C197.549 181.348 197.599 181.342 197.648 181.345C197.698 181.349 197.746 181.362 197.791 181.384C197.835 181.406 197.875 181.436 197.907 181.474C197.94 181.511 197.964 181.554 197.98 181.601C197.996 181.647 198.002 181.697 197.998 181.746C197.995 181.795 197.981 181.843 197.959 181.887C197.937 181.931 197.906 181.97 197.868 182.002C197.861 182.008 197.853 182.014 197.846 182.02Z" fill="#111111"/>
<path d="M179.534 153.952C179.478 153.952 179.423 153.938 179.374 153.912C179.325 153.886 179.283 153.848 179.252 153.802L176.329 149.423C176.304 149.386 176.287 149.345 176.279 149.302C176.27 149.258 176.27 149.214 176.279 149.171C176.288 149.127 176.305 149.086 176.33 149.05C176.355 149.013 176.387 148.982 176.424 148.957C176.461 148.933 176.503 148.916 176.546 148.908C176.59 148.899 176.635 148.899 176.678 148.908C176.722 148.917 176.763 148.934 176.8 148.959C176.837 148.983 176.869 149.015 176.893 149.052L179.816 153.431C179.866 153.505 179.883 153.596 179.866 153.683C179.848 153.77 179.796 153.847 179.721 153.896C179.666 153.933 179.601 153.952 179.534 153.952V153.952Z" fill="#111111"/>
<path d="M194.583 143.007C194.527 143.007 194.472 142.993 194.423 142.967C194.374 142.941 194.332 142.903 194.301 142.857L191.377 138.478C191.353 138.441 191.336 138.4 191.327 138.357C191.319 138.314 191.319 138.269 191.328 138.226C191.337 138.183 191.354 138.141 191.379 138.105C191.404 138.068 191.435 138.037 191.472 138.013C191.51 137.988 191.551 137.971 191.595 137.963C191.638 137.954 191.683 137.955 191.727 137.963C191.77 137.972 191.812 137.989 191.849 138.014C191.886 138.039 191.917 138.07 191.942 138.107L194.865 142.486C194.899 142.537 194.919 142.595 194.921 142.656C194.924 142.717 194.91 142.777 194.882 142.83C194.853 142.884 194.809 142.929 194.757 142.96C194.704 142.991 194.644 143.007 194.583 143.007V143.007Z" fill="#111111"/>
</svg>
