<svg width="290" height="230" viewBox="0 0 290 230" fill="none" xmlns="http://www.w3.org/2000/svg">
<path opacity="0.5" fill-rule="evenodd" clip-rule="evenodd" d="M138.982 40.299C164.672 42.8866 187.983 51.6702 206.497 69.6732C229.359 91.9045 258.167 118.029 250.836 149.068C243.526 180.021 204.811 186.999 175.742 199.886C148.511 211.959 120.104 231.396 92.9979 219.045C65.5271 206.527 59.1273 172.728 51.8356 143.427C44.2714 113.03 31.7375 78.0297 51.9531 54.1069C71.9022 30.4993 108.235 37.202 138.982 40.299Z" fill="white"/>
<path d="M121.688 146.544H115.391C115.378 146.544 115.365 146.542 115.353 146.537C115.341 146.532 115.33 146.525 115.321 146.516C115.312 146.507 115.305 146.496 115.3 146.484C115.295 146.472 115.293 146.459 115.293 146.447V143.608C114.929 143.506 114.543 143.517 114.187 143.64L114.148 143.666C113.695 143.89 113.194 144 112.689 143.986C111.614 143.986 110.773 143.577 110.773 143.055C110.773 142.532 111.614 142.123 112.689 142.123C113.196 142.11 113.698 142.221 114.153 142.446L114.198 142.475C114.552 142.595 114.933 142.605 115.293 142.504V141.777C115.292 141.764 115.295 141.752 115.3 141.74C115.305 141.728 115.312 141.717 115.321 141.708C115.33 141.699 115.341 141.691 115.353 141.686C115.365 141.681 115.378 141.679 115.391 141.679C115.404 141.679 115.416 141.681 115.428 141.686C115.44 141.691 115.451 141.699 115.46 141.708C115.469 141.717 115.476 141.728 115.481 141.74C115.486 141.752 115.489 141.764 115.489 141.777V142.564C115.489 142.582 115.484 142.599 115.475 142.614C115.466 142.629 115.453 142.641 115.438 142.65C115.014 142.803 114.55 142.806 114.124 142.657C114.116 142.654 114.108 142.65 114.101 142.646L114.051 142.612C113.627 142.406 113.16 142.305 112.689 142.318C111.66 142.318 110.969 142.699 110.969 143.055C110.969 143.41 111.66 143.791 112.689 143.791C113.16 143.805 113.627 143.704 114.05 143.496L114.106 143.464C114.535 143.305 115.008 143.304 115.438 143.463C115.454 143.471 115.466 143.484 115.475 143.499C115.484 143.514 115.489 143.531 115.489 143.548V146.349H121.688C121.714 146.349 121.739 146.359 121.758 146.378C121.776 146.396 121.786 146.421 121.786 146.447C121.786 146.473 121.776 146.497 121.758 146.516C121.739 146.534 121.714 146.544 121.688 146.544L121.688 146.544Z" fill="#111111"/>
<path d="M130.202 146.544H123.717C123.691 146.544 123.666 146.534 123.648 146.516C123.629 146.497 123.619 146.473 123.619 146.447C123.619 146.421 123.629 146.396 123.648 146.378C123.666 146.359 123.691 146.349 123.717 146.349H130.104V139.76H125.897C125.871 139.76 125.846 139.75 125.827 139.731C125.809 139.713 125.799 139.688 125.799 139.662C125.799 139.637 125.809 139.612 125.827 139.593C125.846 139.575 125.871 139.565 125.897 139.565H130.202C130.215 139.565 130.228 139.567 130.24 139.572C130.252 139.577 130.262 139.584 130.272 139.593C130.281 139.602 130.288 139.613 130.293 139.625C130.298 139.637 130.3 139.65 130.3 139.662V146.447C130.3 146.459 130.298 146.472 130.293 146.484C130.288 146.496 130.281 146.507 130.272 146.516C130.262 146.525 130.252 146.532 130.24 146.537C130.228 146.542 130.215 146.544 130.202 146.544Z" fill="#111111"/>
<path d="M140.507 143.054C140.507 143.516 141.324 143.887 142.328 143.887C142.816 143.901 143.299 143.797 143.737 143.583L143.795 143.549C144.189 143.412 144.617 143.409 145.013 143.54V146.448H130.2V143.549C129.801 143.407 129.366 143.407 128.967 143.549L128.91 143.583C128.472 143.797 127.988 143.901 127.5 143.887C126.497 143.887 125.679 143.516 125.679 143.054C125.679 142.597 126.497 142.221 127.5 142.221C127.99 142.208 128.475 142.314 128.914 142.531L128.967 142.564C129.366 142.703 129.801 142.703 130.2 142.564V139.665H136.536C137.095 139.451 136.536 139.098 136.536 139.098L136.46 139.07C136.049 138.917 135.791 138.684 135.791 138.427C135.791 137.965 136.603 137.594 137.607 137.594C138.61 137.594 139.427 137.965 139.427 138.427C139.427 138.689 139.164 138.922 138.749 139.074L138.682 139.098C138.682 139.098 138.118 139.451 138.682 139.665H145.013V142.569C144.618 142.703 144.189 142.701 143.795 142.564L143.742 142.531C143.303 142.315 142.817 142.209 142.328 142.221C141.324 142.221 140.507 142.592 140.507 143.054Z" fill="#111111"/>
<path d="M130.2 146.496V153.28H123.84C123.324 153.066 123.868 152.728 123.868 152.728L123.94 152.704C124.351 152.552 124.614 152.318 124.614 152.057C124.614 151.595 123.801 151.223 122.798 151.223C121.794 151.223 120.977 151.595 120.977 152.057C120.977 152.318 121.24 152.547 121.646 152.704L121.723 152.728C121.723 152.728 122.263 153.066 121.756 153.28H115.391V150.381C114.991 150.241 114.554 150.241 114.154 150.381L114.101 150.414C113.663 150.628 113.179 150.733 112.691 150.719C111.683 150.719 110.871 150.347 110.871 149.886C110.871 149.429 111.683 149.053 112.691 149.053C113.182 149.039 113.668 149.147 114.106 149.367L114.154 149.395C114.554 149.535 114.991 149.535 115.391 149.395V146.496H121.723L121.771 146.477C122.224 146.691 121.704 147.015 121.704 147.015L121.637 147.039C121.226 147.191 120.963 147.424 120.963 147.686C120.963 148.148 121.775 148.519 122.779 148.519C123.782 148.519 124.599 148.148 124.599 147.686C124.599 147.425 124.337 147.191 123.93 147.039L123.854 147.015C123.854 147.015 123.324 146.682 123.806 146.468L123.868 146.496H130.2Z" fill="#111111"/>
<path d="M153.446 146.468C152.961 146.682 153.492 147.014 153.492 147.014L153.567 147.04C153.977 147.193 154.237 147.425 154.237 147.686C154.237 148.146 153.423 148.519 152.418 148.519C151.413 148.519 150.599 148.146 150.599 147.686C150.599 147.424 150.862 147.19 151.275 147.038L151.344 147.014C151.344 147.014 151.864 146.691 151.407 146.476L151.362 146.496H145.03V149.397C144.63 149.537 144.194 149.537 143.794 149.397L143.743 149.364C143.304 149.147 142.818 149.04 142.328 149.055C141.323 149.055 140.509 149.428 140.509 149.888C140.509 150.348 141.323 150.721 142.328 150.721C142.816 150.735 143.3 150.63 143.738 150.414L143.794 150.38C144.194 150.24 144.63 150.24 145.03 150.38V153.28H159.84V146.496H153.508L153.446 146.468Z" fill="#111111"/>
<path d="M130.2 160.175H115.391C115.378 160.175 115.366 160.173 115.354 160.168C115.342 160.163 115.331 160.156 115.322 160.147C115.313 160.138 115.306 160.127 115.301 160.115C115.296 160.103 115.293 160.091 115.293 160.078V157.239C114.929 157.137 114.542 157.148 114.185 157.271L114.153 157.294C113.699 157.518 113.198 157.628 112.691 157.614C111.616 157.614 110.773 157.205 110.773 156.684C110.773 156.162 111.616 155.753 112.691 155.753C113.198 155.74 113.7 155.851 114.153 156.075L114.197 156.104C114.551 156.224 114.933 156.234 115.293 156.133V153.294C115.293 153.281 115.296 153.268 115.301 153.257C115.306 153.245 115.313 153.234 115.322 153.225C115.331 153.216 115.342 153.209 115.354 153.204C115.366 153.199 115.378 153.196 115.391 153.196H121.704C121.728 153.186 121.755 153.186 121.78 153.195C121.804 153.204 121.825 153.221 121.837 153.244C121.843 153.255 121.847 153.267 121.848 153.278C121.849 153.29 121.848 153.303 121.844 153.314C121.841 153.326 121.835 153.336 121.827 153.346C121.819 153.355 121.81 153.362 121.799 153.368L121.775 153.378C121.758 153.385 121.741 153.389 121.723 153.392H115.489V156.193C115.489 156.211 115.484 156.228 115.476 156.243C115.467 156.258 115.454 156.27 115.438 156.279C115.014 156.433 114.549 156.435 114.123 156.286C114.114 156.283 114.105 156.279 114.098 156.273L114.05 156.24C113.627 156.035 113.161 155.935 112.691 155.948C111.661 155.948 110.969 156.328 110.969 156.684C110.969 157.039 111.661 157.419 112.691 157.419C113.162 157.433 113.63 157.332 114.053 157.127L114.101 157.096C114.532 156.937 115.006 156.936 115.438 157.093C115.454 157.102 115.467 157.114 115.476 157.129C115.484 157.144 115.489 157.161 115.489 157.179V159.98H130.102V153.392H123.868C123.853 153.391 123.839 153.388 123.825 153.382L123.796 153.367C123.773 153.356 123.755 153.336 123.747 153.311C123.739 153.286 123.741 153.26 123.752 153.236C123.764 153.213 123.784 153.196 123.809 153.187C123.833 153.179 123.86 153.181 123.884 153.193L123.891 153.196H130.2C130.213 153.196 130.225 153.199 130.237 153.204C130.249 153.209 130.26 153.216 130.269 153.225C130.278 153.234 130.285 153.245 130.29 153.257C130.295 153.268 130.298 153.281 130.298 153.294V160.078C130.298 160.091 130.295 160.103 130.29 160.115C130.285 160.127 130.278 160.138 130.269 160.147C130.26 160.156 130.249 160.163 130.237 160.168C130.225 160.173 130.213 160.175 130.2 160.175Z" fill="#111111"/>
<path d="M140.507 156.698C140.507 157.16 141.324 157.536 142.328 157.536C142.816 157.548 143.3 157.442 143.737 157.226L143.795 157.193C144.189 157.056 144.618 157.054 145.013 157.188V160.078H130.2V157.179C129.801 157.039 129.366 157.039 128.967 157.179L128.91 157.212C128.472 157.426 127.988 157.531 127.5 157.517C126.497 157.517 125.679 157.145 125.679 156.684C125.679 156.227 126.497 155.851 127.5 155.851C127.99 155.838 128.475 155.944 128.914 156.16L128.967 156.193C129.366 156.333 129.801 156.333 130.2 156.193V153.294H136.536C137.095 153.08 136.536 152.728 136.536 152.728L136.46 152.704C136.049 152.547 135.791 152.318 135.791 152.056C135.791 151.595 136.603 151.223 137.607 151.223C138.61 151.223 139.427 151.595 139.427 152.056C139.427 152.318 139.164 152.551 138.749 152.704L138.682 152.728C138.682 152.728 138.118 153.08 138.682 153.294H145.013V156.212C144.618 156.346 144.189 156.345 143.795 156.208L143.742 156.179C143.304 155.959 142.818 155.851 142.328 155.865C141.324 155.865 140.507 156.241 140.507 156.698Z" fill="#111111"/>
<path d="M159.841 160.19H145.028C145.015 160.19 145.002 160.187 144.99 160.182C144.978 160.178 144.967 160.17 144.958 160.161C144.949 160.152 144.942 160.141 144.937 160.13C144.932 160.118 144.93 160.105 144.93 160.092V157.238C144.92 157.223 144.916 157.206 144.916 157.188C144.916 157.162 144.926 157.138 144.944 157.119C144.963 157.101 144.987 157.091 145.013 157.091C145.043 157.092 145.072 157.104 145.095 157.122C145.105 157.132 145.112 157.143 145.118 157.155C145.123 157.167 145.126 157.18 145.126 157.193V159.995H159.743V153.406H145.126V156.208C145.126 156.221 145.123 156.234 145.118 156.246C145.112 156.258 145.105 156.269 145.095 156.278C145.072 156.297 145.043 156.308 145.013 156.31C144.996 156.31 144.979 156.305 144.964 156.296C144.949 156.288 144.936 156.275 144.928 156.26C144.919 156.245 144.915 156.228 144.915 156.21C144.916 156.193 144.921 156.176 144.93 156.161V153.308C144.93 153.296 144.932 153.283 144.937 153.271C144.942 153.259 144.949 153.249 144.958 153.239C144.967 153.23 144.978 153.223 144.99 153.218C145.002 153.213 145.015 153.211 145.028 153.211H159.841C159.854 153.211 159.867 153.213 159.879 153.218C159.89 153.223 159.901 153.23 159.91 153.239C159.919 153.249 159.927 153.259 159.932 153.271C159.937 153.283 159.939 153.296 159.939 153.308V160.092C159.939 160.105 159.937 160.118 159.932 160.13C159.927 160.141 159.919 160.152 159.91 160.161C159.901 160.17 159.89 160.178 159.879 160.182C159.867 160.187 159.854 160.19 159.841 160.19V160.19Z" fill="#111111"/>
<path d="M151.326 146.546H145.032C145.02 146.546 145.007 146.544 144.995 146.539C144.983 146.534 144.972 146.527 144.963 146.518C144.954 146.509 144.947 146.498 144.942 146.486C144.937 146.474 144.934 146.461 144.934 146.449V143.611C144.57 143.511 144.184 143.522 143.826 143.642L143.787 143.667C143.334 143.889 142.833 143.998 142.328 143.985C141.252 143.985 140.409 143.576 140.409 143.054C140.409 142.533 141.252 142.124 142.328 142.124C142.834 142.111 143.336 142.222 143.79 142.446L143.847 142.481C144.2 142.595 144.578 142.601 144.934 142.499V139.665C144.934 139.652 144.937 139.639 144.942 139.627C144.947 139.616 144.954 139.605 144.963 139.596C144.972 139.587 144.983 139.579 144.995 139.575C145.007 139.57 145.02 139.567 145.032 139.567H149.538C149.551 139.567 149.564 139.57 149.576 139.574C149.588 139.579 149.599 139.586 149.608 139.596C149.617 139.605 149.625 139.615 149.63 139.627C149.635 139.639 149.637 139.652 149.637 139.665C149.637 139.678 149.635 139.69 149.63 139.702C149.625 139.714 149.617 139.725 149.608 139.734C149.599 139.743 149.588 139.75 149.576 139.755C149.564 139.76 149.551 139.763 149.538 139.762H145.13V142.564C145.13 142.582 145.125 142.599 145.116 142.614C145.107 142.629 145.094 142.642 145.079 142.65C145.069 142.654 145.059 142.658 145.049 142.661C144.632 142.804 144.179 142.802 143.764 142.656L143.69 142.613C143.266 142.407 142.799 142.306 142.328 142.319C141.394 142.319 140.605 142.655 140.605 143.054C140.605 143.453 141.394 143.79 142.328 143.79C142.799 143.803 143.266 143.703 143.69 143.498L143.745 143.465C144.168 143.312 144.631 143.307 145.057 143.452C145.063 143.455 145.07 143.458 145.076 143.462C145.092 143.47 145.106 143.482 145.116 143.498C145.125 143.513 145.13 143.531 145.13 143.549V146.351H151.326C151.339 146.351 151.351 146.353 151.363 146.358C151.375 146.363 151.386 146.37 151.395 146.379C151.405 146.388 151.412 146.399 151.417 146.411C151.422 146.423 151.424 146.436 151.424 146.449C151.424 146.461 151.422 146.474 151.417 146.486C151.412 146.498 151.405 146.509 151.395 146.518C151.386 146.527 151.375 146.534 151.363 146.539C151.351 146.544 151.339 146.546 151.326 146.546V146.546Z" fill="#111111"/>
<path d="M159.47 146.544H153.353C153.327 146.544 153.302 146.534 153.284 146.516C153.265 146.497 153.255 146.472 153.255 146.447C153.255 146.421 153.265 146.396 153.284 146.378C153.302 146.359 153.327 146.349 153.353 146.349H159.47C159.496 146.349 159.521 146.359 159.539 146.378C159.558 146.396 159.568 146.421 159.568 146.447C159.568 146.472 159.558 146.497 159.539 146.516C159.521 146.534 159.496 146.544 159.47 146.544H159.47Z" fill="#111111"/>
<path d="M128.5 132.592C130.986 132.517 133.473 132.485 135.959 132.43L143.418 132.337C148.391 132.282 153.364 132.287 158.336 132.259C163.309 132.285 168.282 132.282 173.254 132.336L180.713 132.429C183.2 132.484 185.686 132.516 188.172 132.592C185.686 132.668 183.2 132.7 180.713 132.756L173.254 132.849C168.282 132.902 163.309 132.899 158.336 132.925C153.364 132.897 148.391 132.902 143.418 132.847L135.959 132.755C133.473 132.7 130.986 132.667 128.5 132.592Z" fill="#111111"/>
<path d="M86.2492 91.6962C85.1582 91.6895 84.069 91.6092 82.9889 91.4558C82.9582 91.4516 82.9286 91.4415 82.9017 91.4261C82.3814 91.1262 79.769 89.5948 79.4328 88.9249C79.0008 88.4098 78.4164 88.0438 77.7631 87.8794C76.5015 87.4689 74.3878 87.2945 71.4799 88.7896C71.4415 88.8094 71.3984 88.8185 71.3552 88.8158C71.312 88.8131 71.2703 88.7987 71.2347 88.7743C71.1991 88.7499 71.1707 88.7162 71.1528 88.677C71.1348 88.6378 71.1279 88.5945 71.1327 88.5516C71.1565 88.3419 71.7597 83.4131 75.7318 82.4238C75.7757 82.4168 77.1465 82.2086 77.8891 79.4703C78.6878 76.5271 80.2105 75.5568 81.3225 74.8488L81.4457 74.7698C82.4623 74.1189 83.6702 71.3221 83.9094 69.5746C84.1724 67.6545 87.2047 62.6551 92.8066 62.2446C97.586 61.8954 103.969 65.2975 104.82 67.3975C104.924 67.6038 104.956 67.8387 104.911 68.0651C104.866 68.2916 104.747 68.4967 104.572 68.648C101.635 72.4796 98.1027 75.8186 94.1076 78.5387V85.7767C94.1593 86.4973 94.0538 87.2205 93.7984 87.8967C93.543 88.5728 93.1438 89.1859 92.6281 89.6939C91.2746 91.0267 89.1359 91.6962 86.2492 91.6962ZM83.1005 90.9905C87.4949 91.5841 90.5876 91.0337 92.2921 89.3554C92.7558 88.8927 93.1151 88.3368 93.3461 87.7249C93.5771 87.1129 93.6744 86.4588 93.6316 85.8064L93.6298 78.4122C93.6298 78.3733 93.6393 78.335 93.6577 78.3006C93.676 78.2662 93.7026 78.2369 93.735 78.2151C97.7353 75.5112 101.269 72.1792 104.199 68.3486C104.211 68.3316 104.226 68.3162 104.242 68.3031C104.349 68.2189 104.422 68.0986 104.447 67.9647C104.472 67.8308 104.447 67.6924 104.377 67.5755C103.592 65.6392 97.3592 62.3901 92.8416 62.7197C87.5871 63.1046 84.6229 67.8861 84.3831 69.6387C84.1551 71.304 82.9705 74.3593 81.7042 75.1705L81.5799 75.2495C80.4753 75.9534 79.1008 76.8293 78.3506 79.5949C77.5139 82.6786 75.8837 82.8845 75.8146 82.8915C72.8609 83.6293 71.929 86.9431 71.6841 88.1578C74.5232 86.8143 76.6261 87.0095 77.9113 87.4266C78.6877 87.6242 79.3744 88.0771 79.8603 88.712C80.0686 89.1272 81.9401 90.3187 83.1005 90.9905H83.1005Z" fill="#111111"/>
<path d="M100.888 132.29L100.882 132.295C100.825 132.394 100.772 132.492 100.713 132.592L100.888 132.29Z" fill="#111111"/>
<path d="M116.084 111.992C115.482 111.154 115.124 105.027 115.124 105.027C114.278 90.498 103.837 88.1367 103.837 88.1367C103.682 88.3235 103.506 88.4913 103.311 88.6366C101.199 90.198 97.0418 89.4792 97.0418 89.4792C97.0418 89.4792 95.116 90.079 94.4518 92.7212C93.7876 95.3632 94.9345 103.047 93.3671 102.628C91.7998 102.209 88.2971 102.261 88.0295 91.4548C88.0295 91.4548 88.0343 91.4166 88.0486 91.35C86.3743 91.5197 84.685 91.4765 83.0216 91.2215C83.0216 91.2215 79.9682 89.4601 79.648 88.8174C79.3231 88.1796 76.3508 86.0183 71.3716 88.5794C71.3716 88.5794 66.3112 89.0413 60.9449 94.8634C55.5786 100.686 49.9161 111.873 48.7119 133.324L52.8788 134.547C52.8979 132.31 53.0174 130.077 53.1989 127.849C53.442 124.819 53.8793 121.807 54.5083 118.833C55.1725 115.881 55.9896 112.892 57.5522 110.273C56.9016 111.638 56.3832 113.061 56.0039 114.524C55.5977 115.976 55.2776 117.452 55.01 118.933C54.4844 121.903 54.1164 124.902 53.8631 127.906C53.6003 130.915 53.457 133.933 53.4044 136.951C53.3805 138.46 53.3949 139.969 53.4761 141.479C53.5095 142.231 53.5525 142.983 53.6481 143.73C53.6924 144.105 53.7562 144.476 53.8393 144.844C53.8789 145.028 53.9332 145.207 54.0017 145.382C54.0418 145.48 54.0898 145.573 54.1451 145.663L54.169 145.687C54.2189 145.737 54.2752 145.78 54.3362 145.815C54.3362 145.815 68.9298 140.027 79.4043 134.928C79.3804 133.733 79.3947 132.543 79.39 131.358L79.3374 127.792C79.2466 125.416 79.1797 123.046 78.9647 120.684C78.7926 118.323 78.5059 115.967 78.1141 113.629C77.923 112.463 77.6856 111.303 77.4021 110.149C77.1396 108.991 76.7882 107.855 76.3508 106.75C77.4093 108.9 78.1728 111.182 78.6206 113.534C78.8882 114.701 79.065 115.886 79.2514 117.066C79.3947 118.252 79.5477 119.442 79.6337 120.632C79.7388 121.822 79.7818 123.017 79.8296 124.207C79.8678 125.402 79.863 126.597 79.8535 127.787L79.7149 131.362C79.6098 132.553 79.5285 133.743 79.4043 134.928C79.4043 134.928 80.5129 136.708 92.2059 134.509C92.2059 134.509 100.65 132.576 100.884 132.295C106.121 123.165 103.837 116.557 103.837 116.557C103.616 115.411 103.457 114.254 103.359 113.091C103.244 111.93 103.192 110.768 103.163 109.602C103.144 108.436 103.163 107.269 103.254 106.103C103.316 104.931 103.512 103.77 103.837 102.642C103.76 103.808 103.77 104.96 103.775 106.117C103.789 107.274 103.803 108.431 103.832 109.588C103.865 111.906 103.923 114.22 103.837 116.557C107.015 117.157 116.084 111.992 116.084 111.992ZM73.7226 100.714C73.5543 100.507 73.3654 100.317 73.1588 100.148L72.5615 99.6286C72.3512 99.4668 72.1218 99.3335 71.902 99.1859C71.012 98.6203 70.0179 98.2368 68.9776 98.0577C67.9361 97.8656 66.8721 97.8255 65.819 97.9387C64.7567 98.0406 63.7088 98.2577 62.6938 98.5861C63.6758 98.1346 64.7191 97.8299 65.7903 97.6816C66.8695 97.5308 67.9655 97.5469 69.0397 97.7293C70.1189 97.9285 71.1433 98.3536 72.0454 98.9765C72.934 99.5961 73.688 100.388 74.2626 101.304L73.7226 100.714Z" fill="#111111"/>
<path d="M88.0497 91.3504L89.1519 91.1331C89.5081 91.02 89.8698 90.9241 90.2166 90.7921C90.9077 90.5277 91.5492 90.1495 92.1144 89.6732C92.658 89.1865 93.0814 88.5811 93.3513 87.9045C93.6176 87.2373 93.7239 86.5175 93.6616 85.8022C93.6608 85.7945 93.6603 85.7842 93.66 85.7766C93.6047 83.3218 93.59 80.867 93.5531 78.4122C93.5523 78.3631 93.5634 78.3145 93.5855 78.2706C93.6076 78.2267 93.6401 78.1888 93.68 78.16L93.6922 78.1515C94.6725 77.4552 95.6425 76.7443 96.5636 75.9719C97.4964 75.2143 98.383 74.4023 99.2539 73.5764C100.128 72.7534 100.963 71.8894 101.767 70.9998C102.571 70.1176 103.329 69.195 104.038 68.2355C104.048 68.2227 104.058 68.2106 104.069 68.1993L104.115 68.1523C104.153 68.1215 104.183 68.0835 104.206 68.0404C104.228 67.9974 104.241 67.9504 104.244 67.9022C104.234 67.7603 104.19 67.6228 104.115 67.5016C103.905 67.1706 103.646 66.873 103.348 66.6185C102.701 66.0683 101.998 65.5879 101.25 65.1852C99.7371 64.3573 98.1226 63.7294 96.4471 63.3176C95.619 63.1109 94.7734 62.9815 93.9213 62.9312C93.5016 62.9077 93.0807 62.918 92.6627 62.962C92.2444 62.9981 91.8295 63.067 91.422 63.168C91.013 63.2635 90.6111 63.3866 90.2189 63.5366C89.8297 63.6964 89.4511 63.881 89.0856 64.0892C88.3464 64.5026 87.6669 65.0139 87.0655 65.609C86.455 66.1986 85.9163 66.8578 85.4607 67.573C84.9941 68.2587 84.6734 69.0323 84.5184 69.8461C84.35 70.7424 84.077 71.6159 83.7049 72.449C83.3569 73.3035 82.876 74.0981 82.2798 74.8036C82.1983 74.8925 82.1027 74.9756 82.0142 75.0606C81.9145 75.1357 81.7988 75.2259 81.7061 75.2827L81.1539 75.6315C80.7981 75.859 80.4647 76.1194 80.1582 76.4094C79.5545 77.001 79.0792 77.7097 78.7617 78.4917C78.5961 78.8888 78.4538 79.2952 78.3357 79.7089C78.2078 80.1453 78.0433 80.5703 77.8438 80.9792C77.6372 81.3943 77.3704 81.7768 77.052 82.1145C76.7244 82.48 76.2895 82.7333 75.8091 82.8386L75.8345 82.834C75.219 82.9845 74.6374 83.2493 74.1204 83.6146C73.6077 83.9987 73.1603 84.4626 72.7954 84.9882C72.4363 85.5264 72.1365 86.1015 71.9013 86.7037C71.6606 87.3089 71.4827 87.937 71.3702 88.5783C71.4465 87.9281 71.5892 87.2873 71.7961 86.666C72.0008 86.0391 72.2788 85.4383 72.6245 84.8762C72.9819 84.312 73.4282 83.8089 73.9463 83.3862C74.4825 82.9721 75.0927 82.663 75.7445 82.4754L75.7702 82.4708C76.1504 82.3547 76.4878 82.1295 76.7402 81.8233C77.0128 81.5057 77.2386 81.151 77.4107 80.7699C77.5872 80.3822 77.7306 79.9804 77.8396 79.5688C77.9522 79.133 78.0901 78.704 78.2527 78.2841C78.5791 77.4209 79.0796 76.6337 79.7235 75.9709C80.0494 75.6458 80.4054 75.352 80.7867 75.0935L81.3438 74.721C81.4373 74.6596 81.4915 74.6078 81.5681 74.5511C81.6353 74.4804 81.7062 74.4178 81.7715 74.3427C82.2942 73.6823 82.7111 72.9454 83.0076 72.158C83.3297 71.3712 83.5673 70.5527 83.7166 69.716C83.7505 69.4813 83.8001 69.2491 83.8652 69.021C83.9315 68.7944 84.0132 68.5725 84.1096 68.3569C84.293 67.9338 84.5076 67.5248 84.7517 67.1334C85.2364 66.3572 85.8114 65.6407 86.4648 64.9987C87.1134 64.347 87.8472 63.7853 88.6464 63.3288C89.0456 63.0969 89.4595 62.891 89.8854 62.7124C90.3162 62.5429 90.7582 62.403 91.2081 62.2936C91.657 62.1787 92.1141 62.0989 92.5754 62.0548C93.0356 62.0031 93.4992 61.988 93.9619 62.0094C94.8746 62.0549 95.7811 62.1853 96.6695 62.3988C98.4292 62.8301 100.121 63.4995 101.699 64.3882C102.502 64.8299 103.256 65.3557 103.947 65.9566C104.318 66.2788 104.635 66.6564 104.889 67.076C105.04 67.3349 105.121 67.629 105.122 67.9286C105.113 68.0999 105.069 68.2675 104.992 68.4209C104.914 68.5744 104.806 68.7102 104.674 68.8199L104.751 68.7368C104.014 69.7185 103.226 70.6617 102.391 71.5624C101.564 72.4619 100.707 73.3335 99.8105 74.1632C98.9141 74.9927 97.9834 75.783 97.0185 76.5342C96.0626 77.2945 95.0584 77.9919 94.0452 78.6727L94.1843 78.4122C94.1473 80.867 94.1326 83.3218 94.0773 85.7766L94.0757 85.7512C94.1163 86.5329 93.9701 87.3131 93.6491 88.0275C93.3339 88.732 92.8593 89.3542 92.2624 89.8455C91.6622 90.3141 90.9844 90.6747 90.2598 90.9112C89.9002 91.0254 89.5292 91.1018 89.1657 91.1949L88.0497 91.3504Z" fill="#111111"/>
<path d="M104.396 68.5194C104.394 68.568 104.332 68.6292 104.294 68.6934L104.162 68.8794L103.896 69.2478C103.718 69.4943 103.528 69.7301 103.342 69.9705C102.964 70.4448 102.579 70.9143 102.181 71.373C101.389 72.2944 100.546 73.1718 99.6736 74.0187C98.7978 74.8619 97.9054 75.6929 96.9523 76.4522C96.0136 77.2293 95.0252 77.9446 94.0262 78.6445L94.1502 78.4122C94.1543 79.6395 94.1764 80.867 94.1658 82.0944L94.1456 85.7766L94.1435 85.7429C94.1915 86.5371 94.0471 87.331 93.7227 88.058C93.405 88.7756 92.9248 89.4102 92.3198 89.9121C91.7119 90.3887 91.0263 90.7577 90.293 91.0031C89.9305 91.1226 89.5567 91.2038 89.1895 91.3017L88.0652 91.4779L88.1761 91.3756L88.1546 91.4807L88.1568 91.4537L88.2243 93.2072C88.2609 93.7905 88.3208 94.3722 88.3678 94.9551C88.4985 96.1146 88.7367 97.2596 89.0794 98.3754C89.386 99.4893 89.974 100.506 90.7873 101.329C91.209 101.707 91.7085 101.989 92.2508 102.154C92.5265 102.238 92.8066 102.308 93.0897 102.362L93.3101 102.412L93.4195 102.436C93.4398 102.435 93.4601 102.437 93.4802 102.44C93.5479 102.438 93.6021 102.398 93.6669 102.308C93.8728 101.798 93.9752 101.252 93.9683 100.702C93.9931 100.125 93.993 99.5429 93.9871 98.9592C93.973 97.7909 93.9258 96.6182 93.9233 95.4369C93.9243 94.8459 93.9385 94.2528 93.9904 93.6527C94.034 93.037 94.1706 92.4314 94.3955 91.8563C94.609 91.2548 94.9453 90.7039 95.3832 90.2384C95.8212 89.7729 96.3512 89.4029 96.9399 89.1517C96.9802 89.1356 97.0241 89.1303 97.0671 89.1363L97.1016 89.1412C98.1713 89.2941 99.2548 89.3284 100.332 89.2435C101.378 89.2034 102.388 88.856 103.236 88.2452C103.619 87.909 103.925 87.4946 104.133 87.0302C104.365 86.5522 104.546 86.0514 104.673 85.5358C104.941 84.4878 105.094 83.4142 105.13 82.3336C105.132 82.2688 105.154 82.2062 105.194 82.1544C105.233 82.1025 105.287 82.0639 105.349 82.0437L105.355 82.0416C105.511 82.0126 105.652 81.9301 105.753 81.8084C105.854 81.6867 105.909 81.5336 105.908 81.3756C105.928 80.9913 105.86 80.6075 105.71 80.253L105.704 80.2376C105.688 80.1981 105.683 80.1556 105.687 80.1136L106.041 77.1013C106.204 76.1166 106.279 75.1193 106.264 74.1214C106.209 73.1258 106.02 72.1421 105.701 71.1968C105.538 70.7227 105.346 70.2587 105.128 69.8072C105.015 69.5828 104.899 69.3597 104.773 69.1421L104.578 68.8191L104.476 68.6608L104.422 68.5832L104.396 68.5446C104.392 68.5399 104.396 68.5334 104.396 68.5194ZM104.394 68.4527C105.661 70.0847 106.435 72.0426 106.625 74.0969C106.678 75.1179 106.639 76.1416 106.51 77.1558L106.236 80.1702L106.214 80.031C106.307 80.2475 106.379 80.4724 106.429 80.7027C106.484 80.9403 106.503 81.1847 106.486 81.428C106.48 81.7068 106.381 81.9758 106.205 82.1929C106.029 82.4099 105.786 82.5627 105.514 82.6274L105.739 82.3356C105.732 83.4702 105.593 84.6001 105.325 85.7027C105.189 86.2633 104.994 86.8082 104.745 87.3284C104.498 87.878 104.136 88.3685 103.683 88.7669C102.731 89.4766 101.587 89.8859 100.399 89.9422C99.2598 90.0427 98.1124 90.0006 96.9837 89.8167L97.1452 89.8061C96.6533 90.0053 96.2132 90.313 95.8579 90.7061C95.4874 91.1118 95.1947 91.5817 94.9944 92.0926C94.5567 93.1115 94.5596 94.2786 94.5217 95.4426C94.4985 96.6076 94.52 97.7807 94.5086 98.9587C94.5029 99.548 94.4891 100.139 94.4413 100.733C94.4139 101.031 94.3846 101.329 94.3285 101.629C94.2817 101.95 94.1742 102.258 94.0119 102.539C93.9542 102.629 93.8752 102.703 93.7819 102.756C93.6886 102.808 93.5838 102.837 93.4767 102.84C93.4236 102.835 93.3702 102.828 93.3181 102.819L93.2127 102.792L93.0039 102.738C92.7111 102.671 92.4218 102.589 92.1373 102.493C91.5551 102.296 91.0229 101.976 90.5777 101.554C89.7593 100.672 89.1684 99.6057 88.8561 98.446C88.525 97.3125 88.2931 96.1526 88.163 94.9792C88.1072 94.3937 88.0387 93.8086 87.9935 93.222L87.9007 91.46C87.9002 91.4521 87.9007 91.4442 87.9022 91.4365L87.9029 91.4328L87.9233 91.3253C87.9281 91.3002 87.9404 91.2772 87.9585 91.2592C87.9767 91.2412 87.9999 91.2291 88.025 91.2245L88.0344 91.2229L89.1282 91.0262C89.4808 90.9179 89.8397 90.8269 90.1835 90.7C90.866 90.4445 91.4997 90.0747 92.0572 89.6065C92.5898 89.1347 93.0056 88.5465 93.2722 87.888C93.5388 87.2294 93.6489 86.5184 93.5939 85.8104L93.5927 85.7959L93.5918 85.7766L93.5716 82.0944C93.561 80.867 93.583 79.6395 93.5872 78.4122C93.5877 78.3664 93.5992 78.3213 93.6208 78.2808C93.6424 78.2404 93.6734 78.2057 93.7113 78.1796C94.7058 77.5024 95.6917 76.8095 96.63 76.0538C97.5749 75.3071 98.4995 74.533 99.3909 73.7207C100.289 72.9149 101.138 72.0568 101.977 71.1892C102.396 70.7544 102.803 70.308 103.204 69.8559C103.61 69.393 103.969 68.9563 104.394 68.4527V68.4527Z" fill="#111111"/>
<path d="M97.8179 75.4104C98.7522 75.2605 99.703 75.2408 100.643 75.3519C101.588 75.4393 102.511 75.6893 103.37 76.0908C102.44 75.9218 101.531 75.7811 100.606 75.6832C99.6827 75.5782 98.7575 75.5081 97.8179 75.4104Z" fill="#111111"/>
<path d="M101.02 78.5723C101.15 78.5678 101.274 78.5131 101.364 78.4198C101.455 78.3264 101.505 78.2017 101.505 78.072C101.505 77.9422 101.455 77.8175 101.364 77.7241C101.274 77.6308 101.15 77.5761 101.02 77.5716C100.89 77.5761 100.767 77.6308 100.676 77.7241C100.586 77.8175 100.535 77.9422 100.535 78.072C100.535 78.2017 100.586 78.3264 100.676 78.4198C100.767 78.5131 100.89 78.5678 101.02 78.5723V78.5723Z" fill="#111111"/>
<path d="M107.227 76.0908C106.851 76.0841 106.474 76.0966 106.099 76.1284L104.976 76.2113L105.102 76.1267C104.973 76.4648 104.894 76.8197 104.867 77.1805C104.835 77.543 104.857 77.9081 104.93 78.2645C105.016 78.6246 105.138 78.975 105.296 79.3102C105.371 79.4805 105.457 79.6461 105.553 79.806C105.655 79.9491 105.766 80.1392 105.962 80.1421C105.756 80.1913 105.591 80.005 105.463 79.8756C105.332 79.7303 105.216 79.5722 105.117 79.4036C104.907 79.0716 104.746 78.7118 104.637 78.3347C104.536 77.9494 104.501 77.5498 104.534 77.1528C104.565 76.7537 104.666 76.363 104.832 75.9982L104.833 75.9956C104.845 75.9717 104.862 75.9514 104.884 75.9369C104.907 75.9224 104.932 75.9143 104.959 75.9135C105.34 75.9024 105.718 75.908 106.098 75.93C106.479 75.9446 106.857 75.9984 107.227 76.0908V76.0908Z" fill="#111111"/>
<path d="M105.69 78.6622C105.821 78.6577 105.944 78.6031 106.034 78.5097C106.125 78.4164 106.176 78.2917 106.176 78.1619C106.176 78.0322 106.125 77.9075 106.034 77.8141C105.944 77.7208 105.821 77.6661 105.69 77.6616C105.56 77.6661 105.437 77.7208 105.346 77.8141C105.256 77.9075 105.205 78.0322 105.205 78.1619C105.205 78.2917 105.256 78.4164 105.346 78.5097C105.437 78.6031 105.56 78.6577 105.69 78.6622V78.6622Z" fill="#111111"/>
<path d="M101.261 84.0156L102.316 84.5829C102.658 84.7662 103.015 84.919 103.384 85.0394C103.539 85.1133 103.711 85.1447 103.882 85.1305C104.053 85.1163 104.218 85.0569 104.358 84.9585C104.573 84.6453 104.687 84.2748 104.687 83.8955C104.754 84.0983 104.777 84.3128 104.754 84.5251C104.732 84.7373 104.665 84.9424 104.557 85.1269C104.482 85.2198 104.388 85.2958 104.281 85.35C104.174 85.4042 104.057 85.4354 103.937 85.4417C103.717 85.4524 103.498 85.4243 103.288 85.3587C102.894 85.2296 102.522 85.0432 102.183 84.8055C101.846 84.5783 101.537 84.3133 101.261 84.0156V84.0156Z" fill="#111111"/>
<path d="M102.376 80.6836C102.359 80.9437 102.361 81.2047 102.381 81.4645C102.417 81.7164 102.497 81.9601 102.617 82.1845C102.465 82.1473 102.33 82.0611 102.233 81.9394C102.13 81.8151 102.066 81.6638 102.049 81.5038C102.029 81.3507 102.049 81.1952 102.106 81.0517C102.163 80.9083 102.256 80.7816 102.376 80.6836V80.6836Z" fill="#111111"/>
<path d="M93.8687 85.7766C94.1728 86.0656 94.4519 86.3796 94.703 86.7154L95.0752 87.2004C95.1992 87.3672 95.3329 87.5266 95.4757 87.6778C95.2584 87.6309 95.0566 87.5296 94.8896 87.3834C94.7216 87.2469 94.5703 87.0912 94.4386 86.9197C94.17 86.5829 93.9758 86.1934 93.8687 85.7766V85.7766Z" fill="#111111"/>
<path d="M105.957 82.026C106.179 83.3497 106.31 84.6661 106.478 85.9756C106.561 86.6292 106.643 87.2836 106.762 87.9274C106.818 88.249 106.891 88.5675 106.979 88.8817C107.055 89.2017 107.19 89.5046 107.378 89.7748C106.886 89.2953 106.546 88.6832 106.399 88.0136C106.216 87.3652 106.083 86.7035 106.004 86.0346C105.834 84.7046 105.818 83.3596 105.957 82.026Z" fill="#111111"/>
<path d="M50.1729 133.754C50.1815 134.679 50.1271 135.604 50.0099 136.522C49.9078 137.441 49.7423 138.353 49.5147 139.25C49.5053 138.324 49.5598 137.4 49.6777 136.482C49.7805 135.563 49.946 134.651 50.1729 133.754V133.754Z" fill="#111111"/>
<path d="M53.2168 139.891C51.7071 139.732 50.1998 139.556 48.6952 139.361L48.8106 139.304C48.1881 140.577 47.6334 141.881 47.1487 143.212C46.6671 144.545 46.2237 145.892 45.8315 147.255C45.4562 148.622 45.1007 149.996 44.8125 151.386C44.5123 152.774 44.2784 154.174 44.0508 155.579C44.1747 154.163 44.3367 152.746 44.5976 151.344C44.8274 149.937 45.166 148.55 45.5332 147.172C45.9041 145.794 46.3457 144.436 46.8564 143.103C47.3505 141.762 47.9369 140.456 48.6117 139.195C48.6228 139.175 48.6398 139.159 48.6605 139.148C48.6811 139.138 48.7044 139.134 48.7273 139.137C50.226 139.373 51.7226 139.624 53.2168 139.891Z" fill="#111111"/>
<path d="M55.2298 145.705C55.4599 146.984 55.7888 148.244 56.2136 149.472C56.6091 150.706 57.1468 151.889 57.8158 152.999C58.4869 154.1 59.3133 155.1 60.2696 155.967C61.2292 156.825 62.2999 157.551 63.4531 158.126C65.7795 159.246 68.3754 159.69 70.9435 159.408C71.2601 159.36 71.583 159.35 71.8944 159.272L72.8337 159.068L74.7179 158.553C75.97 158.192 77.2167 157.813 78.4544 157.406C80.928 156.588 83.3735 155.69 85.7907 154.712C88.2056 153.732 90.579 152.652 92.9364 151.538C95.2934 150.423 97.6132 149.228 99.9073 147.985C102.207 146.751 104.467 145.446 106.707 144.106L106.697 144.113C108.12 143.18 109.702 142.515 111.366 142.15C113.018 141.769 114.714 141.621 116.407 141.711C118.099 141.793 119.773 142.093 121.388 142.601C121.782 142.732 122.183 142.837 122.591 142.915C122.988 142.979 123.394 142.957 123.782 142.851C123.965 142.796 124.133 142.701 124.275 142.573C124.416 142.445 124.526 142.287 124.598 142.111C124.729 141.736 124.775 141.337 124.732 140.943L124.732 140.938C124.731 140.916 124.735 140.894 124.743 140.874C124.752 140.853 124.764 140.835 124.78 140.819C125.051 140.549 125.297 140.256 125.516 139.943C125.739 139.635 125.924 139.302 126.065 138.95C126.208 138.609 126.28 138.244 126.276 137.875C126.254 137.517 126.137 137.172 125.936 136.874C125.908 136.832 125.899 136.78 125.909 136.73C125.92 136.681 125.95 136.637 125.992 136.61L126.01 136.599C126.497 136.353 126.947 136.043 127.35 135.675C127.751 135.331 128.053 134.885 128.221 134.385C128.254 134.263 128.276 134.14 128.288 134.015C128.282 133.885 128.294 133.776 128.276 133.626C128.25 133.343 128.233 133.059 128.219 132.775C128.185 132.195 128.205 131.613 128.28 131.037C128.285 131 128.301 130.966 128.326 130.939L128.342 130.922C129.319 129.883 130.036 128.629 130.433 127.261C130.618 126.593 130.64 125.891 130.496 125.213C130.472 125.044 130.425 124.879 130.357 124.722C130.3 124.562 130.235 124.404 130.161 124.251C130.01 123.955 129.82 123.681 129.594 123.437C129.365 123.225 129.082 123.08 128.775 123.019C128.468 122.957 128.15 122.982 127.857 123.09C127.566 123.201 127.312 123.391 127.124 123.639C126.919 123.924 126.733 124.221 126.566 124.53C126.22 125.163 125.907 125.814 125.627 126.48C125.319 127.236 124.739 127.851 123.999 128.204C123.264 128.516 122.454 128.614 121.665 128.485C120.889 128.389 120.141 128.132 119.47 127.732C118.125 126.916 117.151 125.611 116.754 124.092C116.704 123.905 116.674 123.713 116.634 123.523L116.569 122.945L116.493 121.861C116.433 121.14 116.354 120.421 116.238 119.713C116.136 119.015 115.962 118.329 115.718 117.667C115.616 117.373 115.45 117.105 115.231 116.883C115.148 116.806 115.04 116.761 114.926 116.755C114.813 116.75 114.701 116.786 114.611 116.855L114.508 116.894C114.447 116.916 114.388 116.944 114.332 116.978C114.259 117.02 114.188 117.067 114.121 117.119C113.982 117.234 113.853 117.36 113.736 117.497C113.496 117.791 113.289 118.111 113.12 118.45C112.778 119.159 112.522 119.905 112.358 120.674C112.18 121.452 112.048 122.24 111.962 123.033C111.883 123.448 111.83 123.87 111.725 124.278L111.531 124.882C111.475 125.086 111.399 125.283 111.305 125.472C110.603 126.999 109.559 128.344 108.253 129.405C106.977 130.471 105.546 131.336 104.008 131.972C104.001 131.975 103.993 131.978 103.985 131.98C99.9358 133.056 95.8614 134.011 91.7441 134.78C89.6853 135.157 87.6145 135.489 85.5247 135.666C84.4797 135.762 83.4298 135.796 82.3808 135.766C82.1183 135.758 81.8561 135.742 81.5946 135.71C81.3324 135.686 81.0717 135.647 80.8141 135.593C80.2862 135.515 79.7903 135.292 79.3816 134.95C79.3753 134.944 79.3718 134.936 79.3717 134.927C79.3717 134.918 79.3752 134.909 79.3815 134.903C79.388 134.897 79.3966 134.894 79.4055 134.894C79.4144 134.894 79.4229 134.897 79.4293 134.904C79.8351 135.223 80.3216 135.425 80.8351 135.487C81.0902 135.534 81.3479 135.565 81.6068 135.582C81.8652 135.607 82.1248 135.616 82.3852 135.617C83.4268 135.619 84.4676 135.558 85.5019 135.435C87.573 135.195 89.6298 134.835 91.6772 134.433C95.7684 133.61 99.8261 132.598 103.84 131.47L103.817 131.478C105.286 130.844 106.65 129.992 107.862 128.95C109.079 127.935 110.046 126.656 110.69 125.21C110.777 125.036 110.846 124.853 110.897 124.665L111.075 124.108C111.17 123.732 111.216 123.344 111.291 122.962C111.378 122.141 111.512 121.325 111.694 120.519C111.869 119.698 112.141 118.9 112.505 118.143C112.698 117.755 112.934 117.389 113.209 117.053C113.356 116.88 113.518 116.722 113.693 116.578C113.892 116.414 114.122 116.292 114.369 116.217L114.266 116.256C114.481 116.129 114.726 116.063 114.975 116.066C115.238 116.08 115.487 116.182 115.683 116.356C115.989 116.648 116.223 117.007 116.366 117.405C116.631 118.114 116.821 118.85 116.932 119.598C117.055 120.332 117.137 121.067 117.2 121.802C117.231 122.169 117.258 122.537 117.279 122.904L117.333 123.415C117.369 123.583 117.393 123.753 117.436 123.919C117.78 125.264 118.634 126.424 119.819 127.155C120.409 127.511 121.067 127.741 121.75 127.83C122.417 127.947 123.102 127.872 123.728 127.616C124.328 127.333 124.799 126.835 125.047 126.221C125.339 125.541 125.665 124.875 126.024 124.227C126.207 123.893 126.412 123.572 126.637 123.264C126.83 123.012 127.075 122.804 127.355 122.653C127.634 122.502 127.943 122.412 128.26 122.389C128.578 122.365 128.896 122.408 129.195 122.516C129.494 122.624 129.767 122.794 129.996 123.014C130.513 123.604 130.871 124.315 131.037 125.081C131.202 125.847 131.169 126.642 130.941 127.391C130.505 128.838 129.727 130.16 128.673 131.247L128.735 131.132C128.661 131.671 128.637 132.216 128.661 132.759C128.671 133.036 128.684 133.314 128.706 133.591C128.715 133.743 128.717 133.894 128.712 134.045C128.696 134.2 128.667 134.353 128.624 134.502C128.428 135.072 128.08 135.578 127.618 135.967C127.182 136.355 126.694 136.681 126.169 136.936L126.243 136.662C126.479 137.02 126.614 137.435 126.633 137.864C126.633 138.281 126.547 138.694 126.381 139.076C126.224 139.451 126.022 139.804 125.78 140.13C125.544 140.456 125.279 140.762 124.989 141.042L125.037 140.918C125.079 141.361 125.019 141.807 124.863 142.223C124.772 142.435 124.636 142.624 124.463 142.777C124.29 142.93 124.085 143.043 123.863 143.107C123.436 143.22 122.989 143.239 122.554 143.163C122.135 143.081 121.723 142.971 121.319 142.834C119.724 142.322 118.069 142.017 116.396 141.927C114.724 141.823 113.045 141.968 111.416 142.358C109.787 142.727 108.239 143.389 106.849 144.312L106.841 144.317L106.838 144.319C102.376 147.037 97.8513 149.669 93.157 151.988C88.4758 154.343 83.6206 156.338 78.6337 157.954C77.386 158.355 76.1295 158.728 74.8682 159.083L72.9678 159.588L71.9899 159.794C71.6656 159.872 71.3299 159.881 71.0005 159.928C69.6751 160.076 68.335 160.026 67.0245 159.78C65.7181 159.528 64.452 159.101 63.2609 158.51C60.8857 157.304 58.9094 155.441 57.5685 153.146C56.9221 152.002 56.4109 150.788 56.0449 149.527C55.653 148.28 55.3584 147.006 55.1635 145.714C55.1623 145.705 55.1646 145.696 55.1699 145.689C55.1752 145.682 55.1831 145.677 55.1919 145.676C55.2007 145.675 55.2095 145.678 55.2166 145.683C55.2236 145.688 55.2284 145.696 55.2298 145.705V145.705Z" fill="#111111"/>
<path d="M125.125 132.886C125.744 132.697 126.342 132.449 126.913 132.145C127.477 131.864 127.976 131.467 128.376 130.981L128.38 130.976C128.393 130.959 128.41 130.944 128.429 130.933C128.448 130.922 128.469 130.914 128.49 130.911C128.512 130.908 128.534 130.909 128.556 130.915C128.577 130.92 128.597 130.93 128.615 130.943C128.632 130.956 128.647 130.973 128.658 130.992C128.669 131.011 128.677 131.031 128.68 131.053C128.683 131.075 128.682 131.097 128.676 131.118C128.671 131.14 128.661 131.159 128.648 131.177L128.638 131.188C128.173 131.67 127.609 132.047 126.986 132.295C126.387 132.552 125.763 132.75 125.125 132.886Z" fill="#111111"/>
<path d="M103.687 124.966C103.858 125.457 104.055 125.932 104.257 126.401C104.462 126.867 104.691 127.321 104.944 127.763C105.199 128.199 105.489 128.615 105.811 129.006C106.146 129.393 106.52 129.744 106.928 130.055C106.441 129.847 105.998 129.552 105.62 129.183C105.247 128.807 104.922 128.386 104.654 127.93C104.127 127.021 103.798 126.011 103.687 124.966V124.966Z" fill="#111111"/>
<path d="M115.42 112.358C115.745 112.953 116.051 113.553 116.371 114.148L116.175 114.225C115.912 113.606 115.659 112.987 115.42 112.358Z" fill="#111111"/>
<path d="M123.849 127.921C123.529 127.723 123.251 127.464 123.032 127.159C122.798 126.873 122.578 126.568 122.363 126.264C122.115 125.897 121.88 125.526 121.651 125.15L121.943 125.031C122.143 125.402 122.349 125.774 122.564 126.14C122.745 126.459 122.932 126.778 123.132 127.087C123.322 127.404 123.564 127.685 123.849 127.921Z" fill="#111111"/>
<path d="M189.835 102.091C189.571 100.731 189.065 99.4286 188.341 98.2456C188.035 97.6632 187.524 97.2145 186.905 96.9863C186.261 96.8262 185.589 96.8167 184.94 96.9583C184.265 97.0689 183.588 97.2508 182.885 97.3825C182.526 97.4562 182.162 97.5008 181.796 97.5157C181.394 97.5405 180.993 97.4589 180.633 97.2792C180.269 97.0862 179.972 96.7889 179.78 96.4257C179.604 96.0875 179.484 95.7237 179.424 95.3479C179.391 95.1731 179.368 94.981 179.338 94.8449C179.3 94.7046 179.24 94.5709 179.162 94.4483C178.989 94.1704 178.784 93.9137 178.551 93.6835L178.72 93.2535C178.718 93.2523 178.717 93.2513 178.715 93.2507C178.713 93.2501 178.712 93.2498 178.71 93.2499C178.708 93.2501 178.706 93.2506 178.705 93.2514C178.703 93.2523 178.702 93.2535 178.7 93.2549C178.703 93.2549 178.721 93.2429 178.732 93.2384C178.763 93.2213 178.793 93.2013 178.821 93.1787C178.89 93.1246 178.957 93.0665 179.019 93.0049C179.151 92.8782 179.28 92.7392 179.405 92.5966C179.656 92.312 179.899 92.0112 180.131 91.7094L180.402 91.9732C180.359 91.9974 180.314 92.0173 180.268 92.0326L180.173 92.0504C180.11 92.0621 180.059 92.062 180.001 92.068C179.891 92.0735 179.784 92.0757 179.679 92.0742C179.467 92.0722 179.258 92.0634 179.05 92.0508C178.633 92.0272 178.22 91.9889 177.805 91.9504C177.781 91.9482 177.757 91.9392 177.738 91.9245C177.718 91.9098 177.703 91.89 177.694 91.8672C177.631 91.6994 177.558 91.5354 177.476 91.3758C177.395 91.2254 177.298 91.0499 177.19 91.0075C176.867 90.8844 176.491 90.8037 176.138 90.7053C175.77 90.6162 175.408 90.506 175.053 90.3751C174.999 90.3474 174.952 90.3082 174.916 90.2603C174.879 90.2125 174.854 90.1572 174.841 90.0984C174.82 89.9944 174.82 89.8872 174.84 89.7831C174.877 89.5928 174.937 89.4079 175.02 89.2326C175.351 88.5643 175.738 87.925 176.178 87.3217C176.386 87.0326 176.55 86.7138 176.663 86.3761C176.775 86.0576 176.803 85.7158 176.745 85.3834L176.75 85.3992C176.522 84.7992 176.362 84.1757 176.272 83.5403C176.175 82.9135 176.115 82.2816 176.092 81.6477C176.041 80.3841 176.071 79.1185 176.183 77.8587C176.189 77.79 176.218 77.7253 176.266 77.6752C176.313 77.625 176.377 77.5924 176.445 77.5825C176.514 77.5727 176.584 77.5861 176.643 77.6208C176.703 77.6554 176.75 77.7092 176.775 77.7734L176.78 77.787C177.152 78.7196 177.592 79.6233 178.098 80.4907C178.596 81.3558 179.179 82.1701 179.837 82.9218C180.466 83.6649 181.247 84.2665 182.127 84.6869C182.995 85.0761 183.979 85.1277 184.884 84.8316L184.668 85.0894C184.745 84.6637 184.868 84.2477 185.037 83.849C185.202 83.4209 185.473 83.0409 185.824 82.7439C185.927 82.6722 186.035 82.6085 186.148 82.5531C186.27 82.5111 186.395 82.4786 186.522 82.4561C186.648 82.4518 186.774 82.4568 186.899 82.471C187.017 82.4919 187.133 82.5257 187.243 82.5717C187.354 82.6046 187.458 82.6551 187.553 82.7211L187.839 82.8973C188.007 83.0343 188.167 83.1779 188.329 83.3201C188.352 83.3411 188.371 83.3673 188.383 83.3966C188.596 83.9278 188.771 84.4731 188.909 85.0285C189.054 85.5849 189.134 86.1563 189.146 86.731C189.167 87.0278 189.127 87.3258 189.028 87.6066C188.93 87.8874 188.774 88.1451 188.572 88.3639C188.337 88.5389 188.066 88.6592 187.779 88.7159C187.492 88.7726 187.195 88.7643 186.911 88.6915C186.907 88.6908 186.903 88.6892 186.899 88.6869C186.895 88.6846 186.892 88.6816 186.89 88.678C186.887 88.6745 186.885 88.6704 186.884 88.6662C186.883 88.6619 186.883 88.6575 186.884 88.6532C186.885 88.6449 186.89 88.6375 186.896 88.6324C186.903 88.6272 186.911 88.6247 186.92 88.6254C187.187 88.6705 187.46 88.6577 187.721 88.5879C187.983 88.5182 188.226 88.3931 188.435 88.2212C188.597 88.0133 188.717 87.7749 188.785 87.5202C188.853 87.2655 188.87 86.9997 188.833 86.7386C188.793 86.1932 188.689 85.6543 188.523 85.1328C188.364 84.6072 188.169 84.0931 187.939 83.594L187.993 83.6704L187.543 83.3124L187.303 83.1764C187.23 83.1258 187.148 83.0891 187.062 83.0682C186.918 83.0015 186.758 82.9774 186.601 82.9989C186.444 83.0204 186.296 83.0865 186.176 83.1893C185.913 83.4346 185.715 83.7402 185.598 84.0794C185.462 84.4358 185.364 84.8058 185.307 85.1831C185.298 85.2408 185.273 85.2951 185.236 85.3402C185.199 85.3853 185.15 85.4196 185.095 85.4394L185.091 85.441C184.035 85.8165 182.876 85.7769 181.849 85.3302C180.866 84.8822 179.996 84.2205 179.304 83.3938C178.616 82.603 178.016 81.7407 177.514 80.822C177.006 79.9143 176.566 78.9699 176.2 77.9967L176.797 77.925C176.663 79.1568 176.599 80.3952 176.605 81.6343C176.606 82.252 176.638 82.8692 176.701 83.4837C176.756 84.0925 176.881 84.6929 177.074 85.2734L177.078 85.2858L177.079 85.2894C177.118 85.6805 177.077 86.0755 176.959 86.4503C176.84 86.8252 176.646 87.172 176.388 87.4696C175.945 88.0516 175.554 88.6716 175.22 89.3222C175.143 89.4798 175.085 89.6462 175.049 89.8178C175.015 89.9847 175.035 90.1424 175.152 90.1985C175.492 90.3202 175.839 90.4216 176.191 90.5023C176.552 90.5973 176.903 90.6722 177.278 90.7978C177.462 90.9039 177.607 91.0658 177.692 91.2599C177.784 91.4263 177.866 91.5977 177.938 91.7734L177.826 91.6903C178.237 91.7146 178.65 91.727 179.06 91.7312C179.266 91.7333 179.471 91.7316 179.673 91.7233C179.774 91.7197 179.873 91.7124 179.97 91.7028C180.015 91.6956 180.068 91.6923 180.105 91.6823L180.163 91.669C180.17 91.6641 180.166 91.6641 180.172 91.6675L180.418 91.8163C180.436 91.8274 180.449 91.8454 180.455 91.8662C180.46 91.8871 180.456 91.9091 180.445 91.9275L180.443 91.9315C180.219 92.2554 179.99 92.5696 179.744 92.8785C179.621 93.0329 179.493 93.1849 179.353 93.3336C179.281 93.4112 179.205 93.4847 179.124 93.5536C179.079 93.5938 179.029 93.6299 178.977 93.6614C178.901 93.7136 178.812 93.744 178.72 93.7492L178.889 93.3193C179.167 93.5683 179.415 93.8497 179.626 94.1575C179.742 94.3269 179.829 94.5134 179.886 94.7101C179.935 94.9144 179.954 95.07 179.991 95.2377C180.02 95.5422 180.118 95.8363 180.277 96.0978C180.437 96.3593 180.653 96.5815 180.911 96.7478C181.512 96.9704 182.168 96.9981 182.785 96.8267C183.464 96.7135 184.147 96.5436 184.859 96.4401C185.589 96.2913 186.345 96.3284 187.057 96.548C187.237 96.614 187.411 96.698 187.574 96.7987C187.732 96.9067 187.878 97.0307 188.011 97.1688C188.141 97.3014 188.258 97.4457 188.361 97.5999C188.469 97.7449 188.56 97.9004 188.654 98.0537C189.011 98.6701 189.29 99.3288 189.484 100.014C189.688 100.689 189.828 101.381 189.902 102.082C189.902 102.087 189.902 102.091 189.9 102.095C189.899 102.099 189.897 102.103 189.894 102.107C189.891 102.11 189.888 102.113 189.884 102.115C189.88 102.117 189.876 102.118 189.872 102.119C189.863 102.119 189.855 102.117 189.848 102.112C189.842 102.106 189.837 102.099 189.835 102.091V102.091Z" fill="#111111"/>
<path d="M203.187 86.4753C202.642 84.9138 198.786 80.6532 197.644 80.1438C197.644 80.1438 197.524 75.369 195.775 74.1693C195.775 74.1693 199.995 70.6275 195.173 67.6236C195.173 67.6236 191.011 65.7052 190.892 70.9273C190.892 70.9273 181.01 69.8468 176.489 77.8921C176.489 77.8921 179.361 86.7943 184.986 85.1376C184.986 85.1376 185.549 81.1531 188.163 83.4952C188.163 83.4952 190.49 88.2176 187.437 88.9794C186.894 89.9826 186.737 91.1492 186.997 92.2593C187.437 94.1017 186.711 96.6866 186.711 96.6866C186.711 96.6866 184.866 103.228 190.29 102.085C195.713 100.947 204.272 98.0053 205.777 92.0594C205.777 92.0594 203.727 88.0368 203.187 86.4753ZM193.601 71.8271C193.87 71.9913 194.115 72.1898 194.332 72.4174C194.574 72.6392 194.722 72.9435 194.748 73.2696C194.564 73.0419 194.341 72.8485 194.089 72.6983C193.845 72.5412 193.606 72.384 193.353 72.2364C192.831 71.9348 192.332 71.5976 191.857 71.2272C192.476 71.2974 193.071 71.5022 193.601 71.8271V71.8271ZM196.822 82.405C196.337 83.1883 195.734 83.8931 195.035 84.4948C194.338 85.0874 193.577 85.6001 192.765 86.0231C191.963 86.4522 191.113 86.7862 190.232 87.0181C191.045 86.6229 191.819 86.1706 192.579 85.7041C193.332 85.2357 194.049 84.7122 194.724 84.1378C195.389 83.5618 195.987 82.9136 196.507 82.2051C197.003 81.4684 197.38 80.6588 197.625 79.8058C197.556 80.7212 197.281 81.6094 196.822 82.405L196.822 82.405Z" fill="#111111"/>
<path d="M177.213 85.1564C177.471 84.7681 177.83 84.4572 178.252 84.2572C178.464 84.1542 178.692 84.0848 178.926 84.0513C179.162 84.0184 179.403 84.0475 179.624 84.1357C179.197 84.2173 178.784 84.3593 178.398 84.5572C178.009 84.742 177.635 84.96 177.213 85.1564Z" fill="#111111"/>
<path d="M178.72 86.9173C178.85 86.9128 178.973 86.8582 179.064 86.7648C179.154 86.6715 179.205 86.5468 179.205 86.417C179.205 86.2873 179.154 86.1626 179.064 86.0692C178.973 85.9759 178.85 85.9212 178.72 85.9167C178.59 85.9212 178.466 85.9759 178.376 86.0692C178.285 86.1626 178.235 86.2873 178.235 86.417C178.235 86.5468 178.285 86.6715 178.376 86.7648C178.466 86.8582 178.59 86.9128 178.72 86.9173V86.9173Z" fill="#111111"/>
<path d="M205.779 92.0439C208.085 92.1935 210.351 92.7141 212.49 93.5854C214.641 94.4289 216.683 95.5267 218.571 96.8551C222.31 99.5717 225.473 102.998 227.879 106.936L228.773 108.408L229.603 109.916C229.893 110.412 230.136 110.932 230.393 111.446C230.639 111.964 230.921 112.466 231.138 112.997C231.6 114.048 232.07 115.095 232.462 116.174C232.895 117.238 233.252 118.329 233.616 119.418C233.808 119.96 233.967 120.511 234.123 121.063L234.602 122.718C234.891 123.829 235.15 124.95 235.415 126.068L236.504 132.858C236.511 132.902 236.501 132.947 236.476 132.983C236.451 133.02 236.413 133.046 236.369 133.055L231.456 134.129L226.536 135.17L221.616 136.211L216.69 137.225C216.685 137.225 216.681 137.225 216.677 137.222C216.673 137.22 216.671 137.216 216.67 137.212C216.669 137.208 216.67 137.203 216.672 137.199C216.674 137.196 216.678 137.193 216.682 137.192L221.579 136.045L226.482 134.924L231.384 133.803L236.294 132.716L236.159 132.913L235.097 126.127C234.842 125.014 234.59 123.901 234.315 122.792L233.865 121.137C233.718 120.585 233.568 120.033 233.385 119.491C232.092 115.094 230.201 110.894 227.765 107.008C226.522 105.087 225.114 103.275 223.558 101.595C221.996 99.9243 220.27 98.414 218.406 97.0868C216.55 95.7458 214.539 94.6317 212.417 93.7684C211.355 93.3389 210.267 92.9767 209.159 92.684C208.053 92.3773 206.921 92.1741 205.778 92.0772C205.773 92.0772 205.769 92.0755 205.766 92.0724C205.763 92.0693 205.761 92.065 205.761 92.0606C205.761 92.0561 205.763 92.0519 205.766 92.0488C205.77 92.0457 205.774 92.044 205.779 92.0439V92.0439Z" fill="#111111"/>
<path d="M234.532 133.282C234.825 134.003 235.06 134.747 235.233 135.507C235.421 136.263 235.546 137.032 235.609 137.809C235.314 137.087 235.08 136.343 234.907 135.584C234.72 134.828 234.595 134.058 234.532 133.282V133.282Z" fill="#111111"/>
<path d="M204.392 105.749C204.809 104.806 205.329 103.911 205.941 103.08C206.552 102.24 207.255 101.472 208.039 100.79C208.832 100.109 209.739 99.5704 210.718 99.1989C211.213 99.0299 211.724 98.9133 212.243 98.8512C212.76 98.8071 213.28 98.825 213.793 98.9046C212.772 98.8691 211.755 99.051 210.811 99.4383C209.878 99.8337 209.015 100.376 208.255 101.044C207.48 101.703 206.774 102.436 206.145 103.235C205.504 104.032 204.918 104.872 204.392 105.749V105.749Z" fill="#111111"/>
<path d="M222.351 103.588C222.926 104.016 223.446 104.514 223.898 105.071C224.357 105.626 224.754 106.229 225.082 106.87C225.414 107.51 225.661 108.192 225.814 108.897C225.972 109.597 226.023 110.317 225.966 111.032C225.9 110.679 225.901 110.326 225.808 109.983L225.709 109.466L225.564 108.961C225.366 108.291 225.105 107.641 224.783 107.021C224.464 106.397 224.1 105.797 223.694 105.226C223.283 104.652 222.834 104.104 222.351 103.588V103.588Z" fill="#111111"/>
<path d="M203.458 109.365C202.963 110.572 202.459 111.775 201.934 112.969C201.405 114.161 200.899 115.363 200.349 116.545L198.727 120.104C198.179 121.286 197.619 122.463 197.037 123.63L196.951 123.306L201.123 126.42C202.517 127.453 203.938 128.449 205.364 129.437C206.786 130.431 208.232 131.392 209.67 132.363C211.114 133.327 212.541 134.313 213.971 135.296L213.567 135.338C214.831 133.882 216.016 132.36 217.118 130.779C218.225 129.201 219.282 127.587 220.231 125.911C221.185 124.239 222.016 122.499 222.718 120.707C223.399 118.902 223.871 117.025 224.125 115.113C224.126 115.108 224.127 115.104 224.129 115.1C224.131 115.096 224.134 115.093 224.137 115.09C224.14 115.087 224.144 115.085 224.149 115.084C224.153 115.082 224.157 115.082 224.162 115.082C224.17 115.083 224.178 115.087 224.183 115.094C224.189 115.1 224.192 115.108 224.192 115.117C224.103 117.068 223.75 118.998 223.142 120.855C222.511 122.706 221.73 124.502 220.809 126.228C219.878 127.945 218.839 129.603 217.699 131.19C216.559 132.778 215.331 134.301 214.019 135.752C213.969 135.807 213.9 135.842 213.825 135.849C213.751 135.857 213.676 135.838 213.616 135.794C212.213 134.773 210.808 133.755 209.419 132.715C208.025 131.681 206.639 130.638 205.228 129.628C203.822 128.612 202.41 127.603 200.972 126.633L196.647 123.733C196.597 123.7 196.561 123.651 196.544 123.594C196.527 123.537 196.531 123.476 196.555 123.421L196.561 123.409C197.084 122.215 197.629 121.031 198.185 119.852L199.877 116.326C200.433 115.147 201.032 113.987 201.608 112.817C202.188 111.65 202.788 110.491 203.398 109.337C203.402 109.329 203.408 109.324 203.417 109.321C203.425 109.318 203.434 109.319 203.441 109.322C203.449 109.326 203.455 109.332 203.458 109.34C203.462 109.348 203.462 109.357 203.458 109.365V109.365Z" fill="#111111"/>
<path d="M183.323 97.017C182.86 99.6354 182.368 102.248 181.845 104.855C181.319 107.461 180.784 110.066 180.176 112.656C179.869 113.949 179.542 115.245 179.138 116.514L177.913 120.31C177.498 121.571 177.168 122.859 176.925 124.163C176.806 124.814 176.745 125.473 176.743 126.134C176.75 126.789 176.877 127.436 177.116 128.046L176.948 128.048C177.575 126.722 178.454 125.531 179.538 124.541C180.612 123.537 181.863 122.741 183.229 122.192C183.568 122.052 183.924 121.956 184.271 121.837C184.446 121.784 184.618 121.715 184.797 121.675L185.336 121.565C185.697 121.499 186.054 121.4 186.418 121.363L187.515 121.267C187.88 121.231 188.247 121.224 188.613 121.248L189.711 121.278C190.439 121.347 191.162 121.462 191.888 121.552L191.691 121.754C191.186 119.374 190.791 116.976 190.444 114.571C190.067 112.168 189.869 109.741 189.852 107.31C189.852 107.308 189.852 107.306 189.853 107.304C189.854 107.302 189.855 107.3 189.857 107.298C189.858 107.297 189.86 107.295 189.862 107.295C189.864 107.294 189.867 107.293 189.869 107.293C189.873 107.294 189.877 107.295 189.88 107.298C189.883 107.301 189.885 107.306 189.885 107.31C189.911 108.523 190.034 109.731 190.17 110.935C190.302 112.139 190.481 113.339 190.671 114.537C190.861 115.734 191.076 116.928 191.304 118.119C191.537 119.308 191.773 120.499 192.024 121.683C192.028 121.705 192.029 121.727 192.025 121.749C192.02 121.771 192.012 121.792 192 121.811C191.988 121.83 191.972 121.846 191.953 121.858C191.935 121.871 191.914 121.88 191.892 121.884C191.874 121.888 191.855 121.889 191.837 121.887L191.827 121.886C191.113 121.8 190.401 121.69 189.686 121.623L188.61 121.598C188.252 121.576 187.892 121.583 187.535 121.62L186.464 121.707C186.107 121.74 185.76 121.835 185.407 121.895L184.88 121.998C184.705 122.035 184.538 122.102 184.366 122.152C184.027 122.266 183.679 122.355 183.348 122.488C182.014 123.017 180.784 123.778 179.716 124.734C178.638 125.684 177.756 126.833 177.117 128.118L177.113 128.125C177.106 128.141 177.094 128.154 177.079 128.163C177.064 128.172 177.047 128.176 177.029 128.176C177.012 128.175 176.995 128.169 176.98 128.159C176.966 128.149 176.955 128.136 176.949 128.119C176.712 127.485 176.593 126.812 176.599 126.135C176.616 125.467 176.686 124.801 176.809 124.143C177.07 122.837 177.401 121.547 177.802 120.277C178.191 119.004 178.596 117.738 178.959 116.461C179.333 115.187 179.622 113.893 179.906 112.595L183.29 97.0106C183.291 97.0063 183.293 97.0024 183.297 97C183.3 96.9975 183.305 96.9966 183.309 96.9974C183.314 96.9983 183.318 97.0008 183.32 97.0045C183.322 97.0081 183.323 97.0126 183.323 97.017H183.323Z" fill="#111111"/>
<path d="M177.522 127.167C177.642 127.684 177.786 128.189 177.938 128.688C178.087 129.185 178.272 129.67 178.492 130.14C178.698 130.609 178.97 131.046 179.298 131.44C179.635 131.835 180.054 132.151 180.528 132.365C179.99 132.265 179.495 132.004 179.108 131.619C178.721 131.233 178.41 130.779 178.188 130.281C177.962 129.793 177.793 129.28 177.686 128.753C177.571 128.232 177.516 127.7 177.522 127.167V127.167Z" fill="#111111"/>
<path d="M191.857 121.719C192.572 122.058 193.258 122.454 193.91 122.902C194.57 123.337 195.193 123.825 195.774 124.36C195.06 124.022 194.373 123.626 193.722 123.178C193.063 122.741 192.439 122.254 191.857 121.719Z" fill="#111111"/>
<path d="M153.811 142.451C154.043 142.211 154.31 142.007 154.605 141.848C154.906 141.668 155.263 141.606 155.607 141.672C155.953 141.78 156.242 142.019 156.413 142.337C156.494 142.49 156.567 142.648 156.633 142.807L156.787 143.298C156.8 143.34 156.796 143.386 156.775 143.425C156.755 143.464 156.719 143.494 156.677 143.507C156.634 143.52 156.588 143.516 156.549 143.495C156.51 143.475 156.48 143.439 156.467 143.397L156.463 143.384L156.459 143.366L156.355 142.899C156.307 142.749 156.252 142.6 156.192 142.456C156.071 142.174 155.845 141.95 155.561 141.833C155.253 141.75 154.926 141.782 154.641 141.923C154.338 142.055 154.058 142.234 153.811 142.451V142.451Z" fill="#111111"/>
<path d="M149.981 142.912C150.504 142.252 150.99 141.565 151.438 140.852C151.663 140.496 151.868 140.128 152.053 139.75C152.25 139.376 152.382 138.972 152.445 138.555C152.409 138.979 152.303 139.394 152.13 139.783C151.969 140.177 151.786 140.562 151.584 140.935C151.179 141.685 150.733 142.411 150.249 143.112C150.236 143.13 150.22 143.145 150.202 143.157C150.184 143.169 150.163 143.178 150.141 143.182C150.12 143.186 150.097 143.185 150.076 143.181C150.054 143.176 150.034 143.168 150.016 143.155C149.998 143.143 149.982 143.127 149.97 143.109C149.958 143.09 149.95 143.07 149.946 143.048C149.942 143.027 149.942 143.004 149.947 142.983C149.951 142.962 149.96 142.941 149.972 142.923L149.979 142.915L149.981 142.912Z" fill="#111111"/>
<path d="M149.252 141.625L152.445 136.285L149.544 141.788C149.523 141.827 149.488 141.857 149.445 141.87C149.403 141.883 149.357 141.879 149.318 141.858C149.279 141.838 149.249 141.802 149.236 141.76C149.223 141.718 149.227 141.672 149.247 141.633L149.252 141.625Z" fill="#111111"/>
<path d="M150.815 137.117L152.927 134.206L151.095 137.3C151.084 137.318 151.07 137.335 151.052 137.348C151.034 137.362 151.014 137.371 150.993 137.377C150.972 137.382 150.949 137.384 150.928 137.381C150.906 137.378 150.885 137.37 150.866 137.359C150.847 137.348 150.83 137.333 150.817 137.316C150.804 137.298 150.794 137.278 150.788 137.257C150.783 137.235 150.782 137.213 150.785 137.191C150.788 137.17 150.796 137.149 150.807 137.13L150.815 137.117Z" fill="#111111"/>
<path d="M56.2739 149.9C52.0491 152.095 47.7958 154.231 43.5562 156.395L37.1761 159.599L30.7915 162.793L30.5512 161.759L37.6974 161.67L44.8436 161.615L59.136 161.538C68.6643 161.498 78.1927 161.508 87.7212 161.643L102.014 161.805L109.16 161.887L116.307 161.934C125.835 161.978 135.363 161.915 144.891 161.849L173.476 161.514L187.769 161.389L202.061 161.311C221.118 161.175 240.174 161.172 259.231 161.303L258.846 162.72L247.538 156.002C243.764 153.771 240.013 151.5 236.253 149.245L224.985 142.459L213.751 135.617C213.732 135.606 213.719 135.588 213.713 135.566C213.708 135.545 213.711 135.523 213.722 135.504C213.733 135.485 213.751 135.471 213.773 135.465C213.794 135.46 213.816 135.463 213.835 135.473L225.32 141.89L236.772 148.364C240.585 150.528 244.407 152.678 248.206 154.866L259.618 161.407C259.763 161.49 259.876 161.618 259.941 161.772C260.005 161.925 260.017 162.096 259.975 162.257C259.933 162.418 259.839 162.561 259.707 162.664C259.575 162.766 259.414 162.823 259.246 162.825H259.233C240.176 163.005 221.12 163.042 202.063 162.936L187.77 162.888L173.478 162.794L144.892 162.519C135.364 162.472 125.835 162.43 116.307 162.493L109.161 162.556L102.015 162.653L87.7225 162.844C78.1943 162.999 68.666 163.029 59.1376 163.009L44.845 162.962L37.6987 162.922L30.5524 162.849L30.5397 162.848C30.4164 162.847 30.2971 162.804 30.2013 162.727C30.1056 162.649 30.0391 162.542 30.0127 162.422C29.9862 162.301 30.0015 162.176 30.0558 162.066C30.1102 161.955 30.2006 161.867 30.3121 161.814L36.7702 158.769L43.2328 155.734C47.555 153.739 51.8634 151.715 56.2005 149.75C56.2204 149.741 56.243 149.74 56.2635 149.748C56.2841 149.755 56.3009 149.77 56.3105 149.79C56.32 149.809 56.3216 149.832 56.3147 149.852C56.3079 149.873 56.2932 149.89 56.2739 149.9L56.2739 149.9Z" fill="#111111"/>
<path d="M30.5516 167.467L59.1367 167.224L87.7218 167.084L144.892 166.967L202.062 167.082L230.647 167.222L259.232 167.467L230.647 167.712L202.062 167.852L144.892 167.967L87.7218 167.85L59.1367 167.71L30.5516 167.467Z" fill="#111111"/>
<path d="M197.092 123.727C195.388 126.385 193.3 128.778 190.895 130.828C188.51 132.944 185.737 134.582 182.728 135.651C181.214 136.167 179.647 136.516 178.056 136.693C177.261 136.776 176.462 136.818 175.662 136.819L174.473 136.782L173.293 136.786L163.856 136.822C163.809 136.822 163.763 136.813 163.72 136.794C161.173 135.685 158.623 134.578 156.065 133.499C155.432 133.236 154.771 132.951 154.16 132.727L154.057 132.691C154.041 132.693 154.05 132.701 154.044 132.694C153.995 132.705 153.946 132.721 153.901 132.744C153.768 132.808 153.644 132.888 153.53 132.982C153.277 133.183 153.045 133.411 152.84 133.662C151.979 134.676 151.44 135.921 151.289 137.241C151.283 137.294 151.265 137.345 151.236 137.39C150.947 137.839 150.662 138.29 150.395 138.748C150.129 139.195 149.899 139.662 149.707 140.144C149.621 140.367 149.563 140.6 149.533 140.837C149.518 141.051 149.557 141.264 149.646 141.459C149.93 141.922 150.19 142.399 150.425 142.888C150.451 142.956 150.456 143.03 150.437 143.101L150.437 143.103C150.361 143.406 150.329 143.718 150.34 144.029C150.345 144.328 150.415 144.622 150.544 144.892C150.668 145.146 150.873 145.352 151.127 145.477C151.397 145.613 151.691 145.696 151.993 145.722L151.927 145.722C152.372 145.662 152.812 145.567 153.243 145.439C153.675 145.315 154.095 145.152 154.497 144.952C154.89 144.757 155.255 144.511 155.583 144.221C155.89 143.933 156.139 143.587 156.314 143.205C156.342 143.142 156.388 143.09 156.447 143.054C156.506 143.019 156.574 143.002 156.643 143.006C156.712 143.011 156.777 143.035 156.831 143.078C156.885 143.12 156.925 143.178 156.945 143.243L156.948 143.251C157.153 143.908 157.501 144.512 157.967 145.019C158.435 145.527 159.016 145.92 159.663 146.166C160.328 146.388 161.028 146.49 161.729 146.467C162.082 146.459 162.438 146.398 162.792 146.367L163.846 146.133L163.858 146.13C163.917 146.117 163.978 146.119 164.036 146.136C166.149 146.743 168.295 147.226 170.465 147.584C172.636 147.954 174.825 148.215 177.023 148.365C181.416 148.689 185.832 148.472 190.171 147.722C192.33 147.319 194.452 146.744 196.518 146.004L198.051 145.41L199.547 144.733C200.058 144.531 200.531 144.255 201.023 144.012C201.517 143.774 201.998 143.511 202.464 143.223C204.367 142.121 206.14 140.809 207.75 139.313L208.941 138.169C209.316 137.766 209.677 137.35 210.046 136.94L210.596 136.323L211.098 135.665L212.102 134.348L211.151 135.705L210.675 136.385L210.149 137.026C209.795 137.452 209.449 137.885 209.089 138.306L207.936 139.505C206.367 141.085 204.626 142.484 202.744 143.678C200.872 144.897 198.858 145.889 196.748 146.63C194.647 147.383 192.488 147.968 190.293 148.378C185.898 149.139 181.426 149.358 176.977 149.031C174.757 148.879 172.546 148.616 170.353 148.242C168.153 147.879 165.977 147.388 163.834 146.772L164.024 146.775L162.902 147.025C162.518 147.061 162.136 147.125 161.748 147.134C160.961 147.16 160.176 147.043 159.43 146.791C158.683 146.508 158.012 146.055 157.472 145.468C156.93 144.88 156.529 144.177 156.298 143.413L156.932 143.46C156.72 143.931 156.417 144.356 156.038 144.71C155.664 145.043 155.248 145.324 154.799 145.548C154.361 145.766 153.904 145.943 153.433 146.078C152.964 146.218 152.484 146.321 151.999 146.385L151.992 146.386C151.972 146.389 151.952 146.389 151.932 146.386C151.54 146.353 151.157 146.243 150.807 146.063C150.435 145.873 150.134 145.569 149.948 145.196C149.774 144.84 149.679 144.451 149.67 144.055C149.656 143.673 149.698 143.291 149.793 142.92L149.804 143.136C149.625 142.664 149.316 142.295 149.035 141.733C148.901 141.436 148.842 141.11 148.865 140.785C148.9 140.487 148.971 140.195 149.078 139.915C149.283 139.397 149.529 138.895 149.814 138.416C150.09 137.943 150.381 137.483 150.675 137.026L150.622 137.176C150.786 135.722 151.379 134.349 152.327 133.232C152.563 132.946 152.828 132.686 153.118 132.456C153.274 132.329 153.444 132.222 153.625 132.137C153.736 132.083 153.854 132.048 153.975 132.031C154.058 132.027 154.141 132.032 154.222 132.045L154.366 132.092C155.06 132.346 155.675 132.616 156.325 132.885C158.89 133.966 161.439 135.073 163.989 136.183L163.853 136.155L173.31 136.119L174.492 136.115L175.664 136.152C176.439 136.151 177.213 136.11 177.984 136.03C179.526 135.861 181.044 135.52 182.509 135.015C185.459 133.993 188.209 132.473 190.639 130.52C191.866 129.547 193.023 128.489 194.1 127.354C195.188 126.222 196.189 125.01 197.092 123.727Z" fill="#111111"/>
<path d="M116.181 114.24C115.85 114.408 115.516 114.571 115.178 114.721L115.231 114.599C115.446 115.06 115.643 115.527 115.838 115.995C116.039 116.461 116.222 116.934 116.387 117.414C116.554 117.893 116.709 118.377 116.885 118.853C117.062 119.328 117.259 119.796 117.461 120.261C118.301 122.11 119.1 123.976 119.777 125.89L119.598 125.813C120.274 125.571 120.956 125.343 121.645 125.134C121.649 125.133 121.653 125.134 121.657 125.135C121.661 125.137 121.664 125.14 121.665 125.144C121.667 125.148 121.667 125.153 121.665 125.157C121.664 125.16 121.661 125.164 121.657 125.166C121.012 125.484 120.359 125.785 119.7 126.068C119.667 126.082 119.631 126.083 119.598 126.07C119.565 126.057 119.539 126.032 119.525 126L119.521 125.991C118.696 124.136 117.993 122.232 117.33 120.313C117.157 119.836 116.978 119.362 116.78 118.895C116.581 118.428 116.36 117.97 116.152 117.507C115.94 117.045 115.748 116.576 115.574 116.099C115.394 115.625 115.215 115.151 115.055 114.669L115.052 114.66C115.045 114.638 115.046 114.613 115.057 114.592C115.067 114.571 115.085 114.554 115.108 114.546C115.457 114.424 115.812 114.314 116.169 114.209C116.173 114.208 116.177 114.208 116.181 114.21C116.185 114.212 116.188 114.215 116.189 114.219C116.191 114.223 116.191 114.227 116.189 114.231C116.188 114.235 116.185 114.238 116.181 114.24V114.24Z" fill="#111111"/>
<path d="M121.936 125.015C122.884 124.615 123.826 124.202 124.777 123.813L127.631 122.641C129.537 121.869 131.445 121.102 133.368 120.375L133.296 120.541L132.217 117.697L131.115 114.862C130.364 112.979 129.585 111.106 128.809 109.233L128.95 109.293C126.999 110.098 125.044 110.892 123.085 111.676L123.078 111.679C123.048 111.691 123.015 111.693 122.985 111.684C122.862 111.657 122.747 111.601 122.65 111.52C122.552 111.433 122.481 111.32 122.446 111.193C122.416 111.079 122.407 110.961 122.418 110.844C122.427 110.731 122.449 110.62 122.485 110.513C122.49 110.498 122.498 110.484 122.508 110.471L122.511 110.467C122.699 110.228 122.804 109.935 122.808 109.631C122.807 109.485 122.776 109.34 122.716 109.205C122.656 109.071 122.569 108.951 122.461 108.851C122.219 108.657 121.929 108.532 121.621 108.491C121.313 108.451 121 108.496 120.716 108.621C120.421 108.724 120.161 108.905 119.961 109.144C119.762 109.383 119.632 109.672 119.584 109.979C119.571 110.13 119.589 110.281 119.637 110.424C119.685 110.567 119.761 110.699 119.862 110.812C120.076 111.041 120.362 111.191 120.673 111.239L120.679 111.24C120.69 111.242 120.7 111.246 120.709 111.251C120.906 111.353 121.069 111.509 121.18 111.7C121.236 111.807 121.259 111.928 121.247 112.048C121.232 112.163 121.189 112.273 121.122 112.368C121.111 112.386 121.094 112.4 121.075 112.407L121.071 112.408C119.512 113.007 117.947 113.592 116.377 114.164C116.373 114.165 116.369 114.165 116.365 114.163C116.361 114.161 116.358 114.158 116.356 114.154C116.355 114.15 116.355 114.146 116.356 114.142C116.358 114.138 116.361 114.135 116.365 114.133C117.9 113.474 119.441 112.831 120.989 112.204L120.938 112.244C120.985 112.182 121.013 112.109 121.018 112.032C121.024 111.955 121.007 111.878 120.971 111.811C120.878 111.667 120.749 111.551 120.596 111.476L120.632 111.487C120.261 111.439 119.917 111.267 119.656 111C119.525 110.861 119.424 110.697 119.359 110.519C119.295 110.34 119.267 110.149 119.278 109.96C119.319 109.589 119.463 109.237 119.695 108.945C119.928 108.653 120.238 108.431 120.591 108.307C120.934 108.156 121.313 108.103 121.686 108.154C122.058 108.205 122.408 108.359 122.698 108.597C122.842 108.728 122.957 108.887 123.037 109.064C123.116 109.242 123.159 109.433 123.161 109.627C123.161 110.01 123.03 110.381 122.789 110.68L122.815 110.633C122.76 110.784 122.747 110.946 122.777 111.103C122.795 111.168 122.831 111.226 122.881 111.271C122.931 111.317 122.994 111.346 123.06 111.357L122.961 111.364C124.926 110.595 126.895 109.838 128.87 109.092L128.873 109.091C128.899 109.081 128.929 109.082 128.954 109.093C128.98 109.105 129.001 109.126 129.011 109.153C129.736 111.046 130.459 112.941 131.21 114.825L132.362 117.64L133.535 120.447C133.548 120.478 133.548 120.512 133.536 120.543C133.523 120.574 133.498 120.599 133.467 120.612L133.467 120.612L133.463 120.613C131.563 121.398 129.646 122.144 127.728 122.884L124.844 123.981C123.884 124.348 122.914 124.69 121.949 125.046C121.945 125.048 121.94 125.048 121.936 125.046C121.932 125.044 121.929 125.041 121.927 125.037C121.926 125.033 121.926 125.028 121.928 125.024C121.929 125.02 121.932 125.017 121.937 125.015L121.936 125.015Z" fill="#111111"/>
<path d="M240.189 151.137L221.055 139.73L237.175 137.208C237.175 137.208 241.153 142.011 240.189 151.137Z" fill="#111111"/>
</svg>
